{
copyright = "Copyright 2014-2022 Indian Type Foundry. All rights reserved.";
designer = "Joana Correia";
designerURL = "https://www.indiantypefoundry.com/designers";
familyName = Karma;
customParameters = (
{
name = glyphOrder;
value = (
.notdef,
CR,
space,
ITF,
circledotted,
indianrupee,
NULL,
exclam,
quotedbl,
quotesingle,
numbersign,
dollar,
percent,
ampersand,
parenleft,
parenright,
asterisk,
plus,
comma,
hyphen,
period,
slash,
zero,
one,
two,
three,
four,
five,
six,
seven,
eight,
nine,
colon,
semicolon,
less,
equal,
greater,
question,
at,
A,
B,
C,
D,
E,
F,
G,
H,
I,
J,
K,
L,
M,
N,
O,
P,
Q,
R,
S,
T,
U,
V,
W,
X,
Y,
Z,
bracketleft,
backslash,
bracketright,
asciicircum,
underscore,
grave,
acute,
a,
b,
c,
d,
e,
f,
g,
h,
i,
j,
k,
l,
m,
n,
o,
p,
q,
r,
s,
t,
u,
v,
w,
x,
y,
z,
braceleft,
bar,
braceright,
asciitilde,
nbspace,
exclamdown,
cent,
sterling,
currency,
yen,
brokenbar,
section,
dieresis,
copyright,
ordfeminine,
guillemotleft,
logicalnot,
registered,
macron,
degree,
plusminus,
twosuperior,
threesuperior,
micro,
paragraph,
periodcentered,
cedilla,
onesuperior,
ordmasculine,
guillemotright,
onequarter,
onehalf,
threequarters,
questiondown,
Agrave,
Aacute,
Acircumflex,
Atilde,
Adieresis,
Aring,
AE,
Ccedilla,
Egrave,
Eacute,
Ecircumflex,
Edieresis,
Igrave,
Iacute,
Icircumflex,
Idieresis,
Eth,
Ntilde,
Ograve,
Oacute,
Ocircumflex,
Otilde,
Odieresis,
multiply,
Oslash,
Ugrave,
Uacute,
Ucircumflex,
Udieresis,
Yacute,
Thorn,
germandbls,
agrave,
aacute,
acircumflex,
atilde,
adieresis,
aring,
ae,
ccedilla,
egrave,
eacute,
ecircumflex,
edieresis,
igrave,
dotlessi,
iacute,
icircumflex,
idieresis,
eth,
ntilde,
ograve,
oacute,
ocircumflex,
otilde,
odieresis,
divide,
oslash,
ugrave,
uacute,
ucircumflex,
udieresis,
yacute,
thorn,
ydieresis,
Amacron,
amacron,
Abreve,
abreve,
Aogonek,
aogonek,
Cacute,
cacute,
Ccaron,
ccaron,
Dcaron,
dcaron,
Dcroat,
dcroat,
Emacron,
emacron,
Edotaccent,
edotaccent,
Eogonek,
eogonek,
Ecaron,
ecaron,
Gbreve,
gbreve,
Gcommaaccent,
gcommaaccent,

glyphs = (
{
glyphname = .notdef;
layers = (
{
layerId = "013606A7-00D0-4ED4-9959-28651EF45347";
paths = (
{
closed = 1;
nodes = (
"160 0 LINE",
"596 0 LINE",
"596 701 LINE",
"160 701 LINE"
);
},
{
closed = 1;
nodes = (
"241 625 LINE",
"516 625 LINE",
"516 76 LINE",
"241 76 LINE"
);
}
);
width = 756;
},
{
layerId = "E147A15F-B728-486F-B295-953D9C6EFD33";
paths = (
{
closed = 1;
nodes = (
"180 0 LINE",
"570 0 LINE",
"570 701 LINE",
"180 701 LINE"
);
},
{
closed = 1;
nodes = (
"234 651 LINE",
"516 651 LINE",
"516 50 LINE",
"234 50 LINE"
);
}
);
width = 750;
}
);
},
{
glyphname = ITF;
layers = (
{
layerId = "013606A7-00D0-4ED4-9959-28651EF45347";
paths = (
{
closed = 1;
nodes = (
"147 0 LINE",
"343 0 LINE",
"343 634 LINE",
"147 634 LINE"
);
},
{
closed = 1;
nodes = (
"383 449 LINE",
"579 449 LINE",
"579 634 LINE",
"383 634 LINE"
);
},
{
closed = 1;
nodes = (
"619 0 LINE",
"815 0 LINE",
"815 634 LINE",
"619 634 LINE"
);
},
{
closed = 1;
nodes = (
"855 449 LINE",
"1051 449 LINE",
"1051 634 LINE",
"855 634 LINE"
);
},
{
closed = 1;
nodes = (
"1091 0 LINE",
"1287 0 LINE",
"1287 634 LINE",
"1091 634 LINE"
);
},
{
closed = 1;
nodes = (
"1327 449 LINE",
"1523 449 LINE",
"1523 634 LINE",
"1327 634 LINE"
);
},
{
closed = 1;
nodes = (
"1327 224 LINE",
"1523 224 LINE",
"1523 409 LINE",
"1327 409 LINE"
);
}
);
width = 1648;
},
{
layerId = "E147A15F-B728-486F-B295-953D9C6EFD33";
paths = (
{
closed = 1;
nodes = (
"147 0 LINE",
"343 0 LINE",
"343 634 LINE",
"147 634 LINE"
);
},
{
closed = 1;
nodes = (
"383 449 LINE",
"579 449 LINE",
"579 634 LINE",
"383 634 LINE"
);
},
{
closed = 1;
nodes = (
"619 0 LINE",
"815 0 LINE",
"815 634 LINE",
"619 634 LINE"
);
},
{
closed = 1;
nodes = (
"855 449 LINE",
"1051 449 LINE",
"1051 634 LINE",
"855 634 LINE"
);
},
{
closed = 1;
nodes = (
"1091 0 LINE",
"1287 0 LINE",
"1287 634 LINE",
"1091 634 LINE"
);
},
{
closed = 1;
nodes = (
"1327 449 LINE",
"1523 449 LINE",
"1523 634 LINE",
"1327 634 LINE"
);
},
{
closed = 1;
nodes = (
"1327 224 LINE",
"1523 224 LINE",
"1523 409 LINE",
"1327 409 LINE"
);
}
);
width = 1648;
}
);
},
{
glyphname = circledotted;
layers = (
{
layerId = "013606A7-00D0-4ED4-9959-28651EF45347";
paths = (
{
closed = 1;
nodes = (
"139 491 OFFCURVE",
"157 472 OFFCURVE",
"183 472 CURVE SMOOTH",
"209 472 OFFCURVE",
"227 491 OFFCURVE",
"227 517 CURVE SMOOTH",
"227 542 OFFCURVE",
"209 561 OFFCURVE",
"183 561 CURVE SMOOTH",
"157 561 OFFCURVE",
"139 542 OFFCURVE",
"139 517 CURVE SMOOTH"
);
},
{
closed = 1;
nodes = (
"57 382 OFFCURVE",
"77 363 OFFCURVE",
"103 363 CURVE SMOOTH",
"127 363 OFFCURVE",
"147 382 OFFCURVE",
"147 407 CURVE SMOOTH",
"147 432 OFFCURVE",
"127 451 OFFCURVE",
"103 451 CURVE SMOOTH",
"77 451 OFFCURVE",
"57 432 OFFCURVE",
"57 407 CURVE SMOOTH"
);
},
{
closed = 1;
nodes = (
"44 256 OFFCURVE",
"63 238 OFFCURVE",
"88 238 CURVE SMOOTH",
"114 238 OFFCURVE",
"132 256 OFFCURVE",
"132 281 CURVE SMOOTH",
"132 307 OFFCURVE",
"114 326 OFFCURVE",
"88 326 CURVE SMOOTH",
"63 326 OFFCURVE",
"44 307 OFFCURVE",
"44 281 CURVE SMOOTH"
);
},
{
closed = 1;
nodes = (
"96 139 OFFCURVE",
"114 121 OFFCURVE",
"140 121 CURVE SMOOTH",
"165 121 OFFCURVE",
"184 139 OFFCURVE",
"184 165 CURVE SMOOTH",
"184 190 OFFCURVE",
"165 209 OFFCURVE",
"140 209 CURVE SMOOTH",
"114 209 OFFCURVE",
"96 190 OFFCURVE",
"96 165 CURVE SMOOTH"
);
},
{
closed = 1;
nodes = (
"197 64 OFFCURVE",
"216 44 OFFCURVE",
"242 44 CURVE SMOOTH",
"267 44 OFFCURVE",
"286 64 OFFCURVE",
"286 90 CURVE SMOOTH",
"286 114 OFFCURVE",
"267 134 OFFCURVE",
"242 134 CURVE SMOOTH",
"216 134 OFFCURVE",
"197 114 OFFCURVE",
"197 90 CURVE SMOOTH"
);
},
{
closed = 1;
nodes = (
"324 48 OFFCURVE",
"342 30 OFFCURVE",
"368 30 CURVE SMOOTH",
"394 30 OFFCURVE",
"413 48 OFFCURVE",
"413 74 CURVE SMOOTH",
"413 100 OFFCURVE",
"394 118 OFFCURVE",
"368 118 CURVE SMOOTH",
"342 118 OFFCURVE",
"324 100 OFFCURVE",
"324 74 CURVE SMOOTH"
);
},
{
closed = 1;
nodes = (
"445 101 OFFCURVE",
"464 83 OFFCURVE",
"489 83 CURVE SMOOTH",
"514 83 OFFCURVE",
"534 101 OFFCURVE",
"534 127 CURVE SMOOTH",
"534 152 OFFCURVE",
"514 171 OFFCURVE",
"489 171 CURVE SMOOTH",
"464 171 OFFCURVE",
"445 152 OFFCURVE",
"445 127 CURVE SMOOTH"
);
},
{
closed = 1;
nodes = (
"518 200 OFFCURVE",
"537 181 OFFCURVE",
"563 181 CURVE SMOOTH",
"587 181 OFFCURVE",
"606 200 OFFCURVE",
"606 225 CURVE SMOOTH",
"606 251 OFFCURVE",
"587 270 OFFCURVE",
"563 270 CURVE SMOOTH",
"537 270 OFFCURVE",
"518 251 OFFCURVE",
"518 225 CURVE SMOOTH"
);
},
{
closed = 1;
nodes = (
"528 333 OFFCURVE",
"546 315 OFFCURVE",
"572 315 CURVE SMOOTH",
"597 315 OFFCURVE",
"616 333 OFFCURVE",
"616 359 CURVE SMOOTH",
"616 385 OFFCURVE",
"597 403 OFFCURVE",
"572 403 CURVE SMOOTH",
"546 403 OFFCURVE",
"528 385 OFFCURVE",
"528 359 CURVE SMOOTH"
);
},
{
closed = 1;
nodes = (
"478 452 OFFCURVE",
"497 433 OFFCURVE",
"522 433 CURVE SMOOTH",
"548 433 OFFCURVE",
"566 452 OFFCURVE",
"566 477 CURVE SMOOTH",
"566 503 OFFCURVE",
"548 522 OFFCURVE",
"522 522 CURVE SMOOTH",
"497 522 OFFCURVE",
"478 503 OFFCURVE",
"478 477 CURVE SMOOTH"
);
},
{
closed = 1;
nodes = (
"383 521 OFFCURVE",
"402 501 OFFCURVE",
"428 501 CURVE SMOOTH",
"453 501 OFFCURVE",
"471 521 OFFCURVE",
"471 545 CURVE SMOOTH",
"471 571 OFFCURVE",
"453 590 OFFCURVE",
"428 590 CURVE SMOOTH",
"402 590 OFFCURVE",
"383 571 OFFCURVE",
"383 545 CURVE SMOOTH"
);
},
{
closed = 1;
nodes = (
"257 534 OFFCURVE",
"275 516 OFFCURVE",
"301 516 CURVE SMOOTH",
"327 516 OFFCURVE",
"345 534 OFFCURVE",
"345 560 CURVE SMOOTH",
"345 586 OFFCURVE",
"327 604 OFFCURVE",
"301 604 CURVE SMOOTH",
"275 604 OFFCURVE",
"257 586 OFFCURVE",
"257 560 CURVE SMOOTH"
);
}
);
width = 660;
},
{
layerId = "E147A15F-B728-486F-B295-953D9C6EFD33";
paths = (
{
closed = 1;
nodes = (
"139 491 OFFCURVE",
"157 472 OFFCURVE",
"183 472 CURVE SMOOTH",
"209 472 OFFCURVE",
"227 491 OFFCURVE",
"227 517 CURVE SMOOTH",
"227 542 OFFCURVE",
"209 561 OFFCURVE",
"183 561 CURVE SMOOTH",
"157 561 OFFCURVE",
"139 542 OFFCURVE",
"139 517 CURVE SMOOTH"
);
},
{
closed = 1;
nodes = (
"57 382 OFFCURVE",
"77 363 OFFCURVE",
"103 363 CURVE SMOOTH",
"127 363 OFFCURVE",
"147 382 OFFCURVE",
"147 407 CURVE SMOOTH",
"147 432 OFFCURVE",
"127 451 OFFCURVE",
"103 451 CURVE SMOOTH",
"77 451 OFFCURVE",
"57 432 OFFCURVE",
"57 407 CURVE SMOOTH"
);
},
{
closed = 1;
nodes = (
"44 256 OFFCURVE",
"63 238 OFFCURVE",
"88 238 CURVE SMOOTH",
"114 238 OFFCURVE",
"132 256 OFFCURVE",
"132 281 CURVE SMOOTH",
"132 307 OFFCURVE",
"114 326 OFFCURVE",
"88 326 CURVE SMOOTH",
"63 326 OFFCURVE",
"44 307 OFFCURVE",
"44 281 CURVE SMOOTH"
);
},
{
closed = 1;
nodes = (
"96 139 OFFCURVE",
"114 121 OFFCURVE",
"140 121 CURVE SMOOTH",
"165 121 OFFCURVE",
"184 139 OFFCURVE",
"184 165 CURVE SMOOTH",
"184 190 OFFCURVE",
"165 209 OFFCURVE",
"140 209 CURVE SMOOTH",
"114 209 OFFCURVE",
"96 190 OFFCURVE",
"96 165 CURVE SMOOTH"
);
},
{
closed = 1;
nodes = (
"197 64 OFFCURVE",
"216 44 OFFCURVE",
"242 44 CURVE SMOOTH",
"267 44 OFFCURVE",
"286 64 OFFCURVE",
"286 90 CURVE SMOOTH",
"286 114 OFFCURVE",
"267 134 OFFCURVE",
"242 134 CURVE SMOOTH",
"216 134 OFFCURVE",
"197 114 OFFCURVE",
"197 90 CURVE SMOOTH"
);
},
{
closed = 1;
nodes = (
"324 48 OFFCURVE",
"342 30 OFFCURVE",
"368 30 CURVE SMOOTH",
"394 30 OFFCURVE",
"413 48 OFFCURVE",
"413 74 CURVE SMOOTH",
"413 100 OFFCURVE",
"394 118 OFFCURVE",
"368 118 CURVE SMOOTH",
"342 118 OFFCURVE",
"324 100 OFFCURVE",
"324 74 CURVE SMOOTH"
);
},
{
closed = 1;
nodes = (
"445 101 OFFCURVE",
"464 83 OFFCURVE",
"489 83 CURVE SMOOTH",
"514 83 OFFCURVE",
"534 101 OFFCURVE",
"534 127 CURVE SMOOTH",
"534 152 OFFCURVE",
"514 171 OFFCURVE",
"489 171 CURVE SMOOTH",
"464 171 OFFCURVE",
"445 152 OFFCURVE",
"445 127 CURVE SMOOTH"
);
},
{
closed = 1;
nodes = (
"518 200 OFFCURVE",
"537 181 OFFCURVE",
"563 181 CURVE SMOOTH",
"587 181 OFFCURVE",
"606 200 OFFCURVE",
"606 225 CURVE SMOOTH",
"606 251 OFFCURVE",
"587 270 OFFCURVE",
"563 270 CURVE SMOOTH",
"537 270 OFFCURVE",
"518 251 OFFCURVE",
"518 225 CURVE SMOOTH"
);
},
{
closed = 1;
nodes = (
"528 333 OFFCURVE",
"546 315 OFFCURVE",
"572 315 CURVE SMOOTH",
"597 315 OFFCURVE",
"616 333 OFFCURVE",
"616 359 CURVE SMOOTH",
"616 385 OFFCURVE",
"597 403 OFFCURVE",
"572 403 CURVE SMOOTH",
"546 403 OFFCURVE",
"528 385 OFFCURVE",
"528 359 CURVE SMOOTH"
);
},
{
closed = 1;
nodes = (
"478 452 OFFCURVE",
"497 433 OFFCURVE",
"522 433 CURVE SMOOTH",
"548 433 OFFCURVE",
"566 452 OFFCURVE",
"566 477 CURVE SMOOTH",
"566 503 OFFCURVE",
"548 522 OFFCURVE",
"522 522 CURVE SMOOTH",
"497 522 OFFCURVE",
"478 503 OFFCURVE",
"478 477 CURVE SMOOTH"
);
},
{
closed = 1;
nodes = (
"383 521 OFFCURVE",
"402 501 OFFCURVE",
"428 501 CURVE SMOOTH",
"453 501 OFFCURVE",
"471 521 OFFCURVE",
"471 545 CURVE SMOOTH",
"471 571 OFFCURVE",
"453 590 OFFCURVE",
"428 590 CURVE SMOOTH",
"402 590 OFFCURVE",
"383 571 OFFCURVE",
"383 545 CURVE SMOOTH"
);
},
{
closed = 1;
nodes = (
"257 534 OFFCURVE",
"275 516 OFFCURVE",
"301 516 CURVE SMOOTH",
"327 516 OFFCURVE",
"345 534 OFFCURVE",
"345 560 CURVE SMOOTH",
"345 586 OFFCURVE",
"327 604 OFFCURVE",
"301 604 CURVE SMOOTH",
"275 604 OFFCURVE",
"257 586 OFFCURVE",
"257 560 CURVE SMOOTH"
);
}
);
width = 660;
}
);
unicode = 25CC;
},
{
glyphname = indianrupee;
layers = (
{
layerId = "013606A7-00D0-4ED4-9959-28651EF45347";
paths = (
{
closed = 1;
nodes = (
"14 625 LINE",
"14 584 OFFCURVE",
"32 546 OFFCURVE",
"53 520 CURVE",
"463 520 LINE",
"463 561 OFFCURVE",
"445 599 OFFCURVE",
"424 625 CURVE"
);
},
{
closed = 1;
nodes = (
"185 560 LINE",
"226 502 OFFCURVE",
"235 427 OFFCURVE",
"235 390 CURVE SMOOTH",
"235 378 OFFCURVE",
"233 368 OFFCURVE",
"229 362 CURVE",
"223 364 OFFCURVE",
"203 369 OFFCURVE",
"181 369 CURVE SMOOTH",
"135 369 OFFCURVE",
"95 352 OFFCURVE",
"95 299 CURVE SMOOTH",
"95 182 OFFCURVE",
"261 22 OFFCURVE",
"326 -30 CURVE",
"345 -24 OFFCURVE",
"384 5 OFFCURVE",
"395 26 CURVE",
"342 75 OFFCURVE",
"237 166 OFFCURVE",
"208 216 CURVE",
"287 216 OFFCURVE",
"337 269 OFFCURVE",
"337 373 CURVE SMOOTH",
"337 415 OFFCURVE",
"331 515 OFFCURVE",
"313 560 CURVE"
);
},
{
closed = 1;
nodes = (
"45 480 LINE",
"45 439 OFFCURVE",
"52 422 OFFCURVE",
"68 400 CURVE",
"479 400 LINE",
"477 433 OFFCURVE",
"470 454 OFFCURVE",
"449 480 CURVE"
);
}
);
width = 488;
},
{
layerId = "E147A15F-B728-486F-B295-953D9C6EFD33";
paths = (
{
closed = 1;
nodes = (
"21 600 LINE",
"21 583 OFFCURVE",
"28 560 OFFCURVE",
"36 550 CURVE",
"388 550 LINE",
"388 566 OFFCURVE",
"382 589 OFFCURVE",
"373 600 CURVE"
);
},
{
closed = 1;
nodes = (
"187 562 LINE",
"205 524 OFFCURVE",
"225 464 OFFCURVE",
"225 408 CURVE SMOOTH",
"225 383 OFFCURVE",
"221 359 OFFCURVE",
"211 338 CURVE",
"194 344 OFFCURVE",
"173 349 OFFCURVE",
"147 349 CURVE SMOOTH",
"108 349 OFFCURVE",
"81 327 OFFCURVE",
"81 291 CURVE SMOOTH",
"81 196 OFFCURVE",
"289 -11 OFFCURVE",
"306 -27 CURVE",
"317 -21 OFFCURVE",
"341 -5 OFFCURVE",
"351 8 CURVE",
"294 54 OFFCURVE",
"194 153 OFFCURVE",
"138 243 CURVE",
"237 247 OFFCURVE",
"270 337 OFFCURVE",
"270 427 CURVE SMOOTH",
"270 477 OFFCURVE",
"261 527 OFFCURVE",
"251 562 CURVE"
);
},
{
closed = 1;
nodes = (
"38 458 LINE",
"38 441 OFFCURVE",
"45 418 OFFCURVE",
"53 408 CURVE",
"405 408 LINE",
"405 424 OFFCURVE",
"399 447 OFFCURVE",
"390 458 CURVE"
);
}
);
width = 430;
}
);
unicode = 20B9;
},
{
glyphname = exclam;
layers = (
{
layerId = "013606A7-00D0-4ED4-9959-28651EF45347";
paths = (
{
closed = 1;
nodes = (
"78 219 LINE",
"105 212 OFFCURVE",
"136 212 OFFCURVE",
"160 219 CURVE",
"191 706 LINE",
"154 713 OFFCURVE",
"94 712 OFFCURVE",
"59 699 CURVE"
);
},
{
closed = 1;
nodes = (
"163 -15 OFFCURVE",
"198 20 OFFCURVE",
"198 64 CURVE SMOOTH",
"198 108 OFFCURVE",
"163 143 OFFCURVE",
"119 143 CURVE SMOOTH",
"75 143 OFFCURVE",
"40 108 OFFCURVE",
"40 64 CURVE SMOOTH",
"40 20 OFFCURVE",
"75 -15 OFFCURVE",
"119 -15 CURVE SMOOTH"
);
}
);
width = 238;
},
{
layerId = "E147A15F-B728-486F-B295-953D9C6EFD33";
paths = (
{
closed = 1;
nodes = (
"106 186 LINE",
"119 182 OFFCURVE",
"131 182 OFFCURVE",
"144 186 CURVE",
"161 694 LINE",
"137 698 OFFCURVE",
"115 697 OFFCURVE",
"97 690 CURVE"
);
},
{
closed = 1;
nodes = (
"153 -15 OFFCURVE",
"172 5 OFFCURVE",
"172 32 CURVE SMOOTH",
"172 59 OFFCURVE",
"153 79 OFFCURVE",
"126 79 CURVE SMOOTH",
"99 79 OFFCURVE",
"80 59 OFFCURVE",
"80 32 CURVE SMOOTH",
"80 5 OFFCURVE",
"99 -15 OFFCURVE",
"126 -15 CURVE SMOOTH"
);
}
);
width = 252;
}
);
unicode = 0021;
},
{
glyphname = quotesingle;
layers = (
{
layerId = "013606A7-00D0-4ED4-9959-28651EF45347";
paths = (
{
closed = 1;
nodes = (
"73 474 LINE",
"100 467 OFFCURVE",
"116 467 OFFCURVE",
"140 474 CURVE",
"170 696 LINE",
"125 704 OFFCURVE",
"85 701 OFFCURVE",
"50 689 CURVE"
);
}
);
width = 220;
},
{
layerId = "E147A15F-B728-486F-B295-953D9C6EFD33";
paths = (
{
closed = 1;
nodes = (
"62 507 LINE",
"78 504 OFFCURVE",
"90 504 OFFCURVE",
"104 507 CURVE",
"121 682 LINE",
"95 687 OFFCURVE",
"71 685 OFFCURVE",
"50 679 CURVE"
);
}
);
width = 171;
}
);
unicode = 0027;
},
{
glyphname = numbersign;
layers = (
{
layerId = "013606A7-00D0-4ED4-9959-28651EF45347";
paths = (
{
closed = 1;
nodes = (
"391 271 LINE",
"256 271 LINE",
"291 434 LINE",
"426 434 LINE"
);
},
{
closed = 1;
nodes = (
"483 271 LINE",
"518 434 LINE",
"659 434 LINE",
"657 471 OFFCURVE",
"647 494 OFFCURVE",
"626 514 CURVE",
"534 514 LINE",
"568 674 LINE",
"476 674 LINE",
"442 514 LINE",
"307 514 LINE",
"341 674 LINE",
"249 674 LINE",
"215 514 LINE",
"82 514 LINE",
"84 477 OFFCURVE",
"94 454 OFFCURVE",
"115 434 CURVE",
"199 434 LINE",
"164 271 LINE",
"40 271 LINE",
"42 234 OFFCURVE",
"52 211 OFFCURVE",
"73 191 CURVE",
"148 191 LINE",
"111 17 LINE",
"203 17 LINE",
"240 191 LINE",
"375 191 LINE",
"338 17 LINE",
"430 17 LINE",
"467 191 LINE",
"617 191 LINE",
"615 228 OFFCURVE",
"605 251 OFFCURVE",
"584 271 CURVE"
);
}
);
width = 699;
},
{
layerId = "E147A15F-B728-486F-B295-953D9C6EFD33";
paths = (
{
closed = 1;
nodes = (
"400 235 LINE",
"225 235 LINE",
"280 424 LINE",
"455 424 LINE"
);
},
{
closed = 1;
nodes = (
"447 235 LINE",
"502 424 LINE",
"645 424 LINE",
"643 439 OFFCURVE",
"639 456 OFFCURVE",
"631 468 CURVE",
"515 468 LINE",
"566 644 LINE",
"519 644 LINE",
"468 468 LINE",
"293 467 LINE",
"344 644 LINE",
"297 644 LINE",
"246 467 LINE",
"88 467 LINE",
"90 453 OFFCURVE",
"95 438 OFFCURVE",
"102 424 CURVE",
"233 424 LINE",
"178 235 LINE",
"60 235 LINE",
"61 219 OFFCURVE",
"64 205 OFFCURVE",
"74 190 CURVE",
"165 190 LINE",
"115 17 LINE",
"162 17 LINE",
"212 190 LINE",
"387 190 LINE",
"337 17 LINE",
"384 17 LINE",
"434 190 LINE",
"616 190 LINE",
"615 205 OFFCURVE",
"611 220 OFFCURVE",
"603 235 CURVE"
);
}
);
width = 705;
}
);
unicode = 0023;
},
{
glyphname = dollar;
layers = (
{
layerId = "013606A7-00D0-4ED4-9959-28651EF45347";
paths = (
{
closed = 1;
nodes = (
"147 -15 OFFCURVE",
"45 19 OFFCURVE",
"45 100 CURVE SMOOTH",
"45 145 OFFCURVE",
"72 179 OFFCURVE",
"139 179 CURVE",
"139 91 OFFCURVE",
"174 59 OFFCURVE",
"250 59 CURVE SMOOTH",
"315 59 OFFCURVE",
"357 83 OFFCURVE",
"357 137 CURVE SMOOTH",
"357 212 OFFCURVE",
"292 245 OFFCURVE",
"233 270 CURVE SMOOTH",
"148 307 OFFCURVE",
"64 342 OFFCURVE",
"64 441 CURVE SMOOTH",
"64 571 OFFCURVE",
"169 629 OFFCURVE",
"276 629 CURVE SMOOTH",
"340 629 OFFCURVE",
"433 605 OFFCURVE",
"433 517 CURVE SMOOTH",
"433 472 OFFCURVE",
"400 439 OFFCURVE",
"350 447 CURVE",
"350 522 OFFCURVE",
"320 559 OFFCURVE",
"249 559 CURVE SMOOTH",
"195 559 OFFCURVE",
"162 526 OFFCURVE",
"162 482 CURVE SMOOTH",
"162 424 OFFCURVE",
"211 404 OFFCURVE",
"296 367 CURVE SMOOTH",
"405 317 OFFCURVE",
"457 282 OFFCURVE",
"457 190 CURVE SMOOTH",
"457 68 OFFCURVE",
"368 -15 OFFCURVE",
"232 -15 CURVE SMOOTH"
);
},
{
closed = 1;
nodes = (
"274 11 LINE",
"286 -115 LINE",
"267 -125 OFFCURVE",
"213 -126 OFFCURVE",
"196 -115 CURVE",
"207 10 LINE"
);
},
{
closed = 1;
nodes = (
"208 592 LINE",
"196 728 LINE",
"213 739 OFFCURVE",
"267 738 OFFCURVE",
"286 728 CURVE",
"274 596 LINE"
);
}
);
width = 502;
},
{
layerId = "E147A15F-B728-486F-B295-953D9C6EFD33";
paths = (
{
closed = 1;
nodes = (
"137 -17 OFFCURVE",
"40 22 OFFCURVE",
"40 83 CURVE SMOOTH",
"40 106 OFFCURVE",
"55 127 OFFCURVE",
"79 127 CURVE",
"97 62 OFFCURVE",
"151 26 OFFCURVE",
"223 26 CURVE SMOOTH",
"297 26 OFFCURVE",
"367 65 OFFCURVE",
"367 152 CURVE SMOOTH",
"367 227 OFFCURVE",
"316 249 OFFCURVE",
"236 281 CURVE SMOOTH",
"139 318 OFFCURVE",
"53 365 OFFCURVE",
"53 446 CURVE SMOOTH",
"53 536 OFFCURVE",
"138 595 OFFCURVE",
"236 596 CURVE SMOOTH",
"294 597 OFFCURVE",
"391 577 OFFCURVE",
"391 505 CURVE SMOOTH",
"391 466 OFFCURVE",
"363 456 OFFCURVE",
"342 456 CURVE",
"342 512 OFFCURVE",
"312 550 OFFCURVE",
"232 550 CURVE SMOOTH",
"162 550 OFFCURVE",
"108 520 OFFCURVE",
"108 462 CURVE SMOOTH",
"108 389 OFFCURVE",
"192 354 OFFCURVE",
"258 329 CURVE SMOOTH",
"348 295 OFFCURVE",
"418 261 OFFCURVE",
"418 170 CURVE SMOOTH",
"418 75 OFFCURVE",
"340 -17 OFFCURVE",
"217 -17 CURVE SMOOTH"
);
},
{
closed = 1;
nodes = (
"246 6 LINE",
"252 -99 LINE",
"234 -105 OFFCURVE",
"210 -104 OFFCURVE",
"194 -99 CURVE",
"201 4 LINE"
);
},
{
closed = 1;
nodes = (
"202 568 LINE",
"194 677 LINE",
"210 682 OFFCURVE",
"234 683 OFFCURVE",
"252 677 CURVE",
"245 568 LINE"
);
}
);
width = 458;
}
);
unicode = 0024;
},
{
glyphname = percent;
layers = (
{
layerId = "013606A7-00D0-4ED4-9959-28651EF45347";
paths = (
{
closed = 1;
nodes = (
"638 630 LINE",
"533 630 LINE",
"177 0 LINE",
"282 0 LINE"
);
},
{
closed = 1;
nodes = (
"224 573 OFFCURVE",
"244 533 OFFCURVE",
"244 453 CURVE SMOOTH",
"244 370 OFFCURVE",
"222 331 OFFCURVE",
"187 331 CURVE SMOOTH",
"152 331 OFFCURVE",
"128 366 OFFCURVE",
"128 449 CURVE SMOOTH",
"128 530 OFFCURVE",
"148 573 OFFCURVE",
"188 573 CURVE SMOOTH"
);
},
{
closed = 1;
nodes = (
"98 631 OFFCURVE",
"45 572 OFFCURVE",
"45 451 CURVE SMOOTH",
"45 330 OFFCURVE",
"98 273 OFFCURVE",
"188 273 CURVE SMOOTH",
"277 273 OFFCURVE",
"330 331 OFFCURVE",
"330 455 CURVE SMOOTH",
"330 577 OFFCURVE",
"279 631 OFFCURVE",
"190 631 CURVE SMOOTH"
);
},
{
closed = 1;
nodes = (
"658 285 OFFCURVE",
"678 245 OFFCURVE",
"678 165 CURVE SMOOTH",
"678 82 OFFCURVE",
"656 43 OFFCURVE",
"621 43 CURVE SMOOTH",
"586 43 OFFCURVE",
"562 78 OFFCURVE",
"562 161 CURVE SMOOTH",
"562 242 OFFCURVE",
"582 285 OFFCURVE",
"622 285 CURVE SMOOTH"
);
},
{
closed = 1;
nodes = (
"532 343 OFFCURVE",
"479 284 OFFCURVE",
"479 163 CURVE SMOOTH",
"479 42 OFFCURVE",
"532 -15 OFFCURVE",
"622 -15 CURVE SMOOTH",
"711 -15 OFFCURVE",
"764 43 OFFCURVE",
"764 167 CURVE SMOOTH",
"764 289 OFFCURVE",
"713 343 OFFCURVE",
"624 343 CURVE SMOOTH"
);
}
);
width = 809;
},
{
layerId = "E147A15F-B728-486F-B295-953D9C6EFD33";
paths = (
{
closed = 1;
nodes = (
"571 620 LINE",
"519 620 LINE",
"165 0 LINE",
"217 0 LINE"
);
},
{
closed = 1;
nodes = (
"230 582 OFFCURVE",
"258 533 OFFCURVE",
"258 453 CURVE SMOOTH",
"258 363 OFFCURVE",
"228 321 OFFCURVE",
"173 321 CURVE SMOOTH",
"121 321 OFFCURVE",
"91 364 OFFCURVE",
"91 451 CURVE SMOOTH",
"91 534 OFFCURVE",
"118 582 OFFCURVE",
"174 582 CURVE SMOOTH"
);
},
{
closed = 1;
nodes = (
"89 620 OFFCURVE",
"45 560 OFFCURVE",
"45 450 CURVE SMOOTH",
"45 335 OFFCURVE",
"94 282 OFFCURVE",
"173 282 CURVE SMOOTH",
"256 282 OFFCURVE",
"304 341 OFFCURVE",
"304 453 CURVE SMOOTH",
"304 560 OFFCURVE",
"261 620 OFFCURVE",
"175 620 CURVE SMOOTH"
);
},
{
closed = 1;
nodes = (
"618 285 OFFCURVE",
"646 236 OFFCURVE",
"646 156 CURVE SMOOTH",
"646 66 OFFCURVE",
"616 24 OFFCURVE",
"561 24 CURVE SMOOTH",
"509 24 OFFCURVE",
"479 67 OFFCURVE",
"479 154 CURVE SMOOTH",
"479 237 OFFCURVE",
"506 285 OFFCURVE",
"562 285 CURVE SMOOTH"
);
},
{
closed = 1;
nodes = (
"477 323 OFFCURVE",
"433 263 OFFCURVE",
"433 153 CURVE SMOOTH",
"433 38 OFFCURVE",
"482 -15 OFFCURVE",
"561 -15 CURVE SMOOTH",
"644 -15 OFFCURVE",
"692 44 OFFCURVE",
"692 156 CURVE SMOOTH",
"692 263 OFFCURVE",
"649 323 OFFCURVE",
"563 323 CURVE SMOOTH"
);
}
);
width = 737;
}
);
unicode = 0025;
},
{
glyphname = ampersand;
layers = (
{
layerId = "013606A7-00D0-4ED4-9959-28651EF45347";
paths = (
{
closed = 1;
nodes = (
"152 675 OFFCURVE",
"85 597 OFFCURVE",
"85 509 CURVE SMOOTH",
"85 443 OFFCURVE",
"123 377 OFFCURVE",
"225 263 CURVE SMOOTH",
"358 114 OFFCURVE",
"510 -17 OFFCURVE",
"631 -17 CURVE SMOOTH",
"704 -17 OFFCURVE",
"731 32 OFFCURVE",
"731 71 CURVE SMOOTH",
"731 88 OFFCURVE",
"726 103 OFFCURVE",
"717 111 CURVE",
"706 94 OFFCURVE",
"670 83 OFFCURVE",
"645 83 CURVE SMOOTH",
"567 83 OFFCURVE",
"426 191 OFFCURVE",
"302 339 CURVE SMOOTH",
"225 431 OFFCURVE",
"197 487 OFFCURVE",
"197 532 CURVE SMOOTH",
"197 583 OFFCURVE",
"233 615 OFFCURVE",
"270 615 CURVE SMOOTH",
"301 615 OFFCURVE",
"335 593 OFFCURVE",
"335 530 CURVE SMOOTH",
"335 472 OFFCURVE",
"307 411 OFFCURVE",
"244 382 CURVE",
"274 339 LINE",
"356 361 OFFCURVE",
"441 427 OFFCURVE",
"441 530 CURVE SMOOTH",
"441 621 OFFCURVE",
"374 675 OFFCURVE",
"273 675 CURVE SMOOTH"
);
},
{
closed = 1;
nodes = (
"227 372 LINE",
"79 322 OFFCURVE",
"35 233 OFFCURVE",
"35 156 CURVE SMOOTH",
"35 58 OFFCURVE",
"107 -18 OFFCURVE",
"253 -18 CURVE SMOOTH",
"417 -18 OFFCURVE",
"553 79 OFFCURVE",
"598 308 CURVE",
"521 302 LINE",
"485 129 OFFCURVE",
"382 66 OFFCURVE",
"283 66 CURVE SMOOTH",
"201 66 OFFCURVE",
"150 109 OFFCURVE",
"150 177 CURVE SMOOTH",
"150 237 OFFCURVE",
"190 305 OFFCURVE",
"266 333 CURVE"
);
},
{
closed = 1;
nodes = (
"488 335 LINE SMOOTH",
"441 335 OFFCURVE",
"445 281 OFFCURVE",
"446 271 CURVE",
"520 265 LINE",
"579 267 LINE",
"622 270 LINE SMOOTH",
"666 273 OFFCURVE",
"659 325 OFFCURVE",
"660 335 CURVE"
);
}
);
width = 744;
},
{
layerId = "E147A15F-B728-486F-B295-953D9C6EFD33";
paths = (
{
closed = 1;
nodes = (
"164 675 OFFCURVE",
"104 619 OFFCURVE",
"104 526 CURVE SMOOTH",
"104 462 OFFCURVE",
"143 383 OFFCURVE",
"254 263 CURVE SMOOTH",
"383 124 OFFCURVE",
"541 -17 OFFCURVE",
"642 -17 CURVE SMOOTH",
"685 -17 OFFCURVE",
"706 8 OFFCURVE",
"706 31 CURVE SMOOTH",
"706 42 OFFCURVE",
"701 53 OFFCURVE",
"692 61 CURVE",
"679 43 OFFCURVE",
"657 33 OFFCURVE",
"637 33 CURVE SMOOTH",
"564 33 OFFCURVE",
"408 173 OFFCURVE",
"287 305 CURVE SMOOTH",
"202 398 OFFCURVE",
"154 478 OFFCURVE",
"154 531 CURVE SMOOTH",
"154 583 OFFCURVE",
"183 630 OFFCURVE",
"260 630 CURVE SMOOTH",
"289 630 OFFCURVE",
"346 608 OFFCURVE",
"346 542 CURVE SMOOTH",
"346 477 OFFCURVE",
"313 401 OFFCURVE",
"221 372 CURVE",
"238 339 LINE",
"312 361 OFFCURVE",
"399 436 OFFCURVE",
"399 541 CURVE SMOOTH",
"399 631 OFFCURVE",
"317 675 OFFCURVE",
"260 675 CURVE SMOOTH"
);
},
{
closed = 1;
nodes = (
"232 377 LINE",
"88 325 OFFCURVE",
"40 229 OFFCURVE",
"40 155 CURVE SMOOTH",
"40 58 OFFCURVE",
"107 -18 OFFCURVE",
"247 -18 CURVE SMOOTH",
"400 -18 OFFCURVE",
"541 85 OFFCURVE",
"583 308 CURVE",
"535 302 LINE",
"499 113 OFFCURVE",
"373 26 OFFCURVE",
"256 26 CURVE SMOOTH",
"141 26 OFFCURVE",
"100 98 OFFCURVE",
"100 167 CURVE SMOOTH",
"100 238 OFFCURVE",
"154 308 OFFCURVE",
"251 341 CURVE"
);
},
{
closed = 1;
nodes = (
"499 332 LINE",
"471 332 OFFCURVE",
"475 307 OFFCURVE",
"476 297 CURVE",
"534 291 LINE",
"564 293 LINE",
"613 296 LINE SMOOTH",
"647 298 OFFCURVE",
"640 322 OFFCURVE",
"641 332 CURVE"
);
}
);
width = 721;
}
);
unicode = 0026;
},
{
glyphname = parenleft;
layers = (
{
layerId = "013606A7-00D0-4ED4-9959-28651EF45347";
paths = (
{
closed = 1;
nodes = (
"235 740 LINE",
"124 642 OFFCURVE",
"50 451 OFFCURVE",
"50 279 CURVE SMOOTH",
"50 106 OFFCURVE",
"124 -80 OFFCURVE",
"235 -179 CURVE",
"278 -134 LINE",
"209 -36 OFFCURVE",
"163 133 OFFCURVE",
"163 277 CURVE SMOOTH",
"163 418 OFFCURVE",
"208 591 OFFCURVE",
"276 699 CURVE"
);
}
);
width = 308;
},
{
layerId = "E147A15F-B728-486F-B295-953D9C6EFD33";
paths = (
{
closed = 1;
nodes = (
"230 702 LINE",
"166 627 OFFCURVE",
"60 488 OFFCURVE",
"60 245 CURVE SMOOTH",
"60 2 OFFCURVE",
"156 -117 OFFCURVE",
"222 -196 CURVE",
"255 -170 LINE",
"218 -124 OFFCURVE",
"124 1 OFFCURVE",
"124 250 CURVE SMOOTH",
"124 493 OFFCURVE",
"219 618 OFFCURVE",
"261 679 CURVE"
);
}
);
width = 271;
}
);
unicode = 0028;
},
{
glyphname = asterisk;
layers = (
{
layerId = "013606A7-00D0-4ED4-9959-28651EF45347";
paths = (
{
closed = 1;
nodes = (
"262 572 LINE",
"293 727 LINE",
"267 736 OFFCURVE",
"201 740 OFFCURVE",
"176 728 CURVE",
"211 571 LINE",
"72 648 LINE",
"53 627 OFFCURVE",
"40 564 OFFCURVE",
"40 533 CURVE",
"200 525 LINE",
"83 422 LINE",
"97 397 OFFCURVE",
"151 361 OFFCURVE",
"180 354 CURVE",
"236 493 LINE",
"293 352 LINE",
"323 359 OFFCURVE",
"375 396 OFFCURVE",
"391 421 CURVE",
"272 525 LINE",
"432 533 LINE",
"432 561 OFFCURVE",
"417 624 OFFCURVE",
"400 647 CURVE"
);
}
);
width = 472;
},
{
layerId = "E147A15F-B728-486F-B295-953D9C6EFD33";
paths = (
{
closed = 1;
nodes = (
"270 547 LINE",
"293 698 LINE",
"268 705 OFFCURVE",
"241 705 OFFCURVE",
"214 698 CURVE",
"238 546 LINE",
"101 617 LINE",
"87 598 OFFCURVE",
"78 572 OFFCURVE",
"75 542 CURVE",
"226 515 LINE",
"118 404 LINE",
"134 382 OFFCURVE",
"156 365 OFFCURVE",
"182 357 CURVE",
"254 495 LINE",
"325 358 LINE",
"352 367 OFFCURVE",
"374 383 OFFCURVE",
"389 404 CURVE",
"280 516 LINE",
"432 543 LINE",
"432 570 OFFCURVE",
"423 596 OFFCURVE",
"407 618 CURVE"
);
}
);
width = 600;
}
);
unicode = 002A;
},
{
glyphname = plus;
layers = (
{
layerId = "013606A7-00D0-4ED4-9959-28651EF45347";
paths = (
{
closed = 1;
nodes = (
"50 307 LINE",
"50 227 LINE",
"458 227 LINE",
"458 307 LINE"
);
},
{
closed = 1;
nodes = (
"297 471 LINE",
"214 471 LINE",
"214 63 LINE",
"297 63 LINE"
);
}
);
width = 508;
},
{
layerId = "E147A15F-B728-486F-B295-953D9C6EFD33";
paths = (
{
closed = 1;
nodes = (
"50 316 LINE",
"50 266 LINE",
"420 266 LINE",
"420 316 LINE"
);
},
{
closed = 1;
nodes = (
"261 476 LINE",
"209 476 LINE",
"209 106 LINE",
"261 106 LINE"
);
}
);
width = 470;
}
);
unicode = 002B;
},
{
glyphname = comma;
layers = (
{
layerId = "013606A7-00D0-4ED4-9959-28651EF45347";
paths = (
{
closed = 1;
nodes = (
"121 14 LINE",
"121 -13 OFFCURVE",
"100 -75 OFFCURVE",
"54 -108 CURVE",
"54 -116 OFFCURVE",
"75 -137 OFFCURVE",
"84 -132 CURVE",
"139 -109 OFFCURVE",
"206 -16 OFFCURVE",
"206 60 CURVE SMOOTH",
"206 109 OFFCURVE",
"174 141 OFFCURVE",
"128 141 CURVE SMOOTH",
"80 141 OFFCURVE",
"50 110 OFFCURVE",
"50 61 CURVE SMOOTH",
"50 22 OFFCURVE",
"79 -14 OFFCURVE",
"125 -14 CURVE SMOOTH",
"138 -14 OFFCURVE",
"146 -11 OFFCURVE",
"161 -4 CURVE"
);
}
);
width = 256;
},
{
layerId = "E147A15F-B728-486F-B295-953D9C6EFD33";
paths = (
{
closed = 1;
nodes = (
"82 1 LINE",
"82 -16 OFFCURVE",
"69 -62 OFFCURVE",
"42 -81 CURVE",
"42 -86 OFFCURVE",
"54 -99 OFFCURVE",
"60 -96 CURVE",
"93 -82 OFFCURVE",
"132 -29 OFFCURVE",
"132 29 CURVE SMOOTH",
"132 58 OFFCURVE",
"113 77 OFFCURVE",
"86 77 CURVE SMOOTH",
"58 77 OFFCURVE",
"40 58 OFFCURVE",
"40 30 CURVE SMOOTH",
"40 7 OFFCURVE",
"56 -17 OFFCURVE",
"84 -17 CURVE SMOOTH",
"92 -17 OFFCURVE",
"97 -14 OFFCURVE",
"106 -10 CURVE"
);
}
);
width = 172;
}
);
unicode = 002C;
},
{
glyphname = hyphen;
layers = (
{
layerId = "013606A7-00D0-4ED4-9959-28651EF45347";
paths = (
{
closed = 1;
nodes = (
"40 312 LINE",
"40 222 LINE",
"365 222 LINE",
"365 312 LINE"
);
}
);
width = 405;
},
{
layerId = "E147A15F-B728-486F-B295-953D9C6EFD33";
paths = (
{
closed = 1;
nodes = (
"50 270 LINE",
"50 220 LINE",
"333 220 LINE",
"333 270 LINE"
);
}
);
width = 383;
}
);
unicode = 002D;
},
{
glyphname = period;
layers = (
{
layerId = "013606A7-00D0-4ED4-9959-28651EF45347";
paths = (
{
closed = 1;
nodes = (
"173 -15 OFFCURVE",
"208 20 OFFCURVE",
"208 64 CURVE SMOOTH",
"208 108 OFFCURVE",
"173 143 OFFCURVE",
"129 143 CURVE SMOOTH",
"85 143 OFFCURVE",
"50 108 OFFCURVE",
"50 64 CURVE SMOOTH",
"50 20 OFFCURVE",
"85 -15 OFFCURVE",
"129 -15 CURVE SMOOTH"
);
}
);
width = 258;
},
{
layerId = "E147A15F-B728-486F-B295-953D9C6EFD33";
paths = (
{
closed = 1;
nodes = (
"113 -15 OFFCURVE",
"132 5 OFFCURVE",
"132 32 CURVE SMOOTH",
"132 59 OFFCURVE",
"113 79 OFFCURVE",
"86 79 CURVE SMOOTH",
"59 79 OFFCURVE",
"40 59 OFFCURVE",
"40 32 CURVE SMOOTH",
"40 5 OFFCURVE",
"59 -15 OFFCURVE",
"86 -15 CURVE SMOOTH"
);
}
);
width = 172;
}
);
unicode = 002E;
},
{
glyphname = slash;
layers = (
{
layerId = "013606A7-00D0-4ED4-9959-28651EF45347";
paths = (
{
closed = 1;
nodes = (
"119 -90 LINE",
"355 697 LINE",
"256 697 LINE",
"20 -90 LINE"
);
}
);
width = 375;
},
{
layerId = "E147A15F-B728-486F-B295-953D9C6EFD33";
paths = (
{
closed = 1;
nodes = (
"79 -142 LINE",
"389 696 LINE",
"330 696 LINE",
"20 -142 LINE"
);
}
);
width = 409;
}
);
unicode = 002F;
},
{
glyphname = zero;
layers = (
{
layerId = "013606A7-00D0-4ED4-9959-28651EF45347";
paths = (
{
closed = 1;
nodes = (
"118 624 OFFCURVE",
"35 504 OFFCURVE",
"35 303 CURVE SMOOTH",
"35 104 OFFCURVE",
"117 -15 OFFCURVE",
"273 -15 CURVE SMOOTH",
"424 -15 OFFCURVE",
"505 96 OFFCURVE",
"505 313 CURVE SMOOTH",
"505 508 OFFCURVE",
"439 636 OFFCURVE",
"274 630 CURVE SMOOTH"
);
},
{
closed = 1;
nodes = (
"354 550 OFFCURVE",
"389 474 OFFCURVE",
"389 297 CURVE SMOOTH",
"389 144 OFFCURVE",
"363 64 OFFCURVE",
"273 64 CURVE SMOOTH",
"197 64 OFFCURVE",
"151 122 OFFCURVE",
"151 297 CURVE SMOOTH",
"151 433 OFFCURVE",
"179 550 OFFCURVE",
"276 550 CURVE SMOOTH"
);
}
);
width = 540;
},
{
layerId = "E147A15F-B728-486F-B295-953D9C6EFD33";
paths = (
{
closed = 1;
nodes = (
"102 620 OFFCURVE",
"35 519 OFFCURVE",
"35 295 CURVE SMOOTH",
"35 82 OFFCURVE",
"102 -15 OFFCURVE",
"247 -15 CURVE SMOOTH",
"392 -15 OFFCURVE",
"459 82 OFFCURVE",
"459 295 CURVE SMOOTH",
"459 519 OFFCURVE",
"392 620 OFFCURVE",
"247 620 CURVE SMOOTH"
);
},
{
closed = 1;
nodes = (
"351 575 OFFCURVE",
"399 488 OFFCURVE",
"399 295 CURVE SMOOTH",
"399 113 OFFCURVE",
"351 30 OFFCURVE",
"247 30 CURVE SMOOTH",
"143 30 OFFCURVE",
"95 113 OFFCURVE",
"95 295 CURVE SMOOTH",
"95 488 OFFCURVE",
"143 575 OFFCURVE",
"247 575 CURVE SMOOTH"
);
}
);
width = 494;
}
);
unicode = 0030;
},
{
glyphname = one;
layers = (
{
layerId = "013606A7-00D0-4ED4-9959-28651EF45347";
paths = (
{
closed = 1;
nodes = (
"276 578 LINE SMOOTH",
"276 613 OFFCURVE",
"263 630 OFFCURVE",
"236 630 CURVE SMOOTH",
"223 630 OFFCURVE",
"205 629 OFFCURVE",
"186 618 CURVE SMOOTH",
"30 530 LINE",
"29 517 OFFCURVE",
"55 464 OFFCURVE",
"97 477 CURVE SMOOTH",
"156 495 LINE",
"156 0 LINE",
"276 0 LINE"
);
},
{
closed = 1;
nodes = (
"276 73 LINE",
"156 71 LINE",
"95 69 LINE SMOOTH",
"46 67 OFFCURVE",
"52 10 OFFCURVE",
"51 0 CURVE",
"332 0 LINE SMOOTH",
"382 0 OFFCURVE",
"378 57 OFFCURVE",
"377 67 CURVE"
);
}
);
width = 408;
},
{
layerId = "E147A15F-B728-486F-B295-953D9C6EFD33";
paths = (
{
closed = 1;
nodes = (
"209 591 LINE",
"209 613 OFFCURVE",
"197 620 OFFCURVE",
"183 620 CURVE SMOOTH",
"172 620 OFFCURVE",
"159 617 OFFCURVE",
"148 611 CURVE SMOOTH",
"45 553 LINE",
"45 540 OFFCURVE",
"56 517 OFFCURVE",
"75 524 CURVE SMOOTH",
"151 552 LINE",
"151 0 LINE",
"209 0 LINE"
);
},
{
closed = 1;
nodes = (
"209 41 LINE",
"151 39 LINE",
"86 36 LINE SMOOTH",
"53 34 OFFCURVE",
"59 10 OFFCURVE",
"58 0 CURVE",
"273 0 LINE SMOOTH",
"301 0 OFFCURVE",
"297 25 OFFCURVE",
"296 35 CURVE"
);
}
);
width = 342;
}
);
unicode = 0031;
},
{
glyphname = two;
layers = (
{
layerId = "013606A7-00D0-4ED4-9959-28651EF45347";
paths = (
{
closed = 1;
nodes = (
"140 630 OFFCURVE",
"51 566 OFFCURVE",
"51 483 CURVE SMOOTH",
"51 417 OFFCURVE",
"107 402 OFFCURVE",
"149 405 CURVE",
"149 486 OFFCURVE",
"166 553 OFFCURVE",
"242 553 CURVE SMOOTH",
"304 553 OFFCURVE",
"329 511 OFFCURVE",
"329 457 CURVE SMOOTH",
"329 308 OFFCURVE",
"141 155 OFFCURVE",
"38 64 CURVE",
"36 51 OFFCURVE",
"48 10 OFFCURVE",
"51 1 CURVE",
"487 1 LINE",
"487 181 LINE",
"461 188 OFFCURVE",
"425 181 OFFCURVE",
"421 142 CURVE SMOOTH",
"415 86 LINE",
"191 86 LINE",
"265 140 OFFCURVE",
"456 292 OFFCURVE",
"456 454 CURVE SMOOTH",
"456 555 OFFCURVE",
"384 630 OFFCURVE",
"257 630 CURVE SMOOTH"
);
}
);
width = 520;
},
{
layerId = "E147A15F-B728-486F-B295-953D9C6EFD33";
paths = (
{
closed = 1;
nodes = (
"121 620 OFFCURVE",
"51 563 OFFCURVE",
"51 495 CURVE SMOOTH",
"51 457 OFFCURVE",
"75 445 OFFCURVE",
"98 445 CURVE",
"98 526 OFFCURVE",
"139 574 OFFCURVE",
"218 574 CURVE SMOOTH",
"289 574 OFFCURVE",
"333 527 OFFCURVE",
"333 455 CURVE SMOOTH",
"333 308 OFFCURVE",
"150 143 OFFCURVE",
"36 29 CURVE",
"34 16 OFFCURVE",
"37 9 OFFCURVE",
"40 0 CURVE",
"404 0 LINE",
"404 135 LINE",
"397 142 OFFCURVE",
"366 135 OFFCURVE",
"362 107 CURVE SMOOTH",
"352 44 LINE",
"106 41 LINE",
"189 126 OFFCURVE",
"393 296 OFFCURVE",
"393 464 CURVE SMOOTH",
"393 561 OFFCURVE",
"324 620 OFFCURVE",
"222 620 CURVE SMOOTH"
);
}
);
width = 439;
}
);
unicode = 0032;
},
{
glyphname = three;
layers = (
{
layerId = "013606A7-00D0-4ED4-9959-28651EF45347";
paths = (
{
closed = 1;
nodes = (
"129 630 OFFCURVE",
"62 586 OFFCURVE",
"62 525 CURVE SMOOTH",
"62 490 OFFCURVE",
"84 462 OFFCURVE",
"143 462 CURVE",
"145 505 OFFCURVE",
"166 558 OFFCURVE",
"230 558 CURVE SMOOTH",
"275 558 OFFCURVE",
"295 533 OFFCURVE",
"295 489 CURVE SMOOTH",
"295 386 OFFCURVE",
"187 359 OFFCURVE",
"136 359 CURVE",
"137 272 LINE",
"226 279 OFFCURVE",
"323 262 OFFCURVE",
"324 168 CURVE SMOOTH",
"325 99 OFFCURVE",
"274 63 OFFCURVE",
"213 63 CURVE SMOOTH",
"148 63 OFFCURVE",
"110 104 OFFCURVE",
"110 163 CURVE",
"59 163 OFFCURVE",
"35 129 OFFCURVE",
"35 92 CURVE SMOOTH",
"35 34 OFFCURVE",
"93 -15 OFFCURVE",
"205 -15 CURVE SMOOTH",
"358 -15 OFFCURVE",
"451 76 OFFCURVE",
"451 178 CURVE SMOOTH",
"451 292 OFFCURVE",
"336 360 OFFCURVE",
"183 330 CURVE",
"193 317 LINE",
"378 337 OFFCURVE",
"417 425 OFFCURVE",
"417 489 CURVE SMOOTH",
"417 578 OFFCURVE",
"343 630 OFFCURVE",
"232 630 CURVE SMOOTH"
);
}
);
width = 471;
},
{
layerId = "E147A15F-B728-486F-B295-953D9C6EFD33";
paths = (
{
closed = 1;
nodes = (
"125 620 OFFCURVE",
"65 575 OFFCURVE",
"59 528 CURVE SMOOTH",
"55 497 OFFCURVE",
"77 479 OFFCURVE",
"109 476 CURVE",
"110 538 OFFCURVE",
"142 575 OFFCURVE",
"203 575 CURVE SMOOTH",
"265 575 OFFCURVE",
"307 536 OFFCURVE",
"307 474 CURVE SMOOTH",
"307 366 OFFCURVE",
"181 340 OFFCURVE",
"129 340 CURVE",
"130 294 LINE",
"218 300 OFFCURVE",
"330 279 OFFCURVE",
"334 168 CURVE SMOOTH",
"337 87 OFFCURVE",
"279 28 OFFCURVE",
"191 28 CURVE SMOOTH",
"119 28 OFFCURVE",
"82 67 OFFCURVE",
"70 117 CURVE",
"38 108 OFFCURVE",
"34 87 OFFCURVE",
"34 74 CURVE SMOOTH",
"34 17 OFFCURVE",
"103 -15 OFFCURVE",
"183 -15 CURVE SMOOTH",
"308 -15 OFFCURVE",
"396 62 OFFCURVE",
"396 169 CURVE SMOOTH",
"396 277 OFFCURVE",
"307 345 OFFCURVE",
"173 332 CURVE",
"173 309 LINE",
"308 331 OFFCURVE",
"369 404 OFFCURVE",
"369 482 CURVE SMOOTH",
"369 565 OFFCURVE",
"301 620 OFFCURVE",
"209 620 CURVE SMOOTH"
);
}
);
width = 426;
}
);
unicode = 0033;
},
{
glyphname = four;
layers = (
{
layerId = "013606A7-00D0-4ED4-9959-28651EF45347";
paths = (
{
closed = 1;
nodes = (
"394 629 LINE",
"366 632 OFFCURVE",
"337 629 OFFCURVE",
"305 621 CURVE",
"15 185 LINE",
"19 160 OFFCURVE",
"28 138 OFFCURVE",
"44 117 CURVE",
"483 117 LINE",
"483 197 LINE",
"54 197 LINE",
"99 181 LINE",
"364 584 LINE",
"274 533 LINE",
"274 -10 LINE",
"394 0 LINE"
);
}
);
width = 498;
},
{
layerId = "E147A15F-B728-486F-B295-953D9C6EFD33";
paths = (
{
closed = 1;
nodes = (
"350 610 LINE",
"331 615 OFFCURVE",
"312 615 OFFCURVE",
"293 610 CURVE",
"20 195 LINE",
"21 176 OFFCURVE",
"33 163 OFFCURVE",
"39 152 CURVE",
"440 152 LINE",
"440 197 LINE",
"43 197 LINE",
"56 171 LINE",
"333 602 LINE",
"297 591 LINE",
"297 -10 LINE",
"352 0 LINE"
);
}
);
width = 455;
}
);
unicode = 0034;
},
{
glyphname = five;
layers = (
{
layerId = "013606A7-00D0-4ED4-9959-28651EF45347";
paths = (
{
closed = 1;
nodes = (
"108 620 LINE",
"94 277 LINE",
"108 270 LINE",
"140 279 OFFCURVE",
"169 288 OFFCURVE",
"206 288 CURVE SMOOTH",
"272 288 OFFCURVE",
"326 259 OFFCURVE",
"326 182 CURVE SMOOTH",
"326 109 OFFCURVE",
"278 59 OFFCURVE",
"207 59 CURVE SMOOTH",
"149 59 OFFCURVE",
"114 91 OFFCURVE",
"104 155 CURVE",
"67 155 OFFCURVE",
"40 131 OFFCURVE",
"40 91 CURVE SMOOTH",
"40 27 OFFCURVE",
"108 -15 OFFCURVE",
"205 -15 CURVE SMOOTH",
"341 -15 OFFCURVE",
"447 69 OFFCURVE",
"447 205 CURVE SMOOTH",
"447 335 OFFCURVE",
"349 387 OFFCURVE",
"243 387 CURVE SMOOTH",
"194 387 OFFCURVE",
"149 376 OFFCURVE",
"111 364 CURVE",
"171 368 LINE",
"181 598 LINE",
"128 525 LINE",
"398 525 LINE",
"408 620 LINE"
);
}
);
width = 472;
},
{
layerId = "E147A15F-B728-486F-B295-953D9C6EFD33";
paths = (
{
closed = 1;
nodes = (
"87 611 LINE",
"73 307 LINE",
"85 300 LINE",
"113 317 OFFCURVE",
"143 327 OFFCURVE",
"190 327 CURVE SMOOTH",
"254 327 OFFCURVE",
"329 301 OFFCURVE",
"329 194 CURVE SMOOTH",
"329 94 OFFCURVE",
"271 28 OFFCURVE",
"185 28 CURVE SMOOTH",
"95 28 OFFCURVE",
"77 75 OFFCURVE",
"73 102 CURVE",
"64 101 OFFCURVE",
"33 97 OFFCURVE",
"33 65 CURVE SMOOTH",
"33 17 OFFCURVE",
"87 -15 OFFCURVE",
"181 -15 CURVE SMOOTH",
"306 -15 OFFCURVE",
"390 71 OFFCURVE",
"390 201 CURVE SMOOTH",
"390 320 OFFCURVE",
"311 374 OFFCURVE",
"209 374 CURVE SMOOTH",
"162 374 OFFCURVE",
"121 364 OFFCURVE",
"80 347 CURVE",
"121 347 LINE",
"131 589 LINE",
"107 561 LINE",
"341 561 LINE",
"344 610 LINE"
);
}
);
width = 413;
}
);
unicode = 0035;
},
{
glyphname = six;
layers = (
{
layerId = "013606A7-00D0-4ED4-9959-28651EF45347";
paths = (
{
closed = 1;
nodes = (
"385 -15 OFFCURVE",
"467 74 OFFCURVE",
"467 194 CURVE SMOOTH",
"467 314 OFFCURVE",
"386 372 OFFCURVE",
"293 372 CURVE SMOOTH",
"233 372 OFFCURVE",
"168 348 OFFCURVE",
"114 301 CURVE",
"125 238 LINE",
"152 270 OFFCURVE",
"192 292 OFFCURVE",
"244 292 CURVE SMOOTH",
"299 292 OFFCURVE",
"346 268 OFFCURVE",
"346 174 CURVE SMOOTH",
"346 100 OFFCURVE",
"317 59 OFFCURVE",
"259 59 CURVE SMOOTH",
"198 59 OFFCURVE",
"161 104 OFFCURVE",
"161 277 CURVE SMOOTH",
"161 483 OFFCURVE",
"214 559 OFFCURVE",
"292 559 CURVE SMOOTH",
"337 559 OFFCURVE",
"362 534 OFFCURVE",
"362 488 CURVE",
"421 484 OFFCURVE",
"437 524 OFFCURVE",
"437 550 CURVE SMOOTH",
"437 593 OFFCURVE",
"392 630 OFFCURVE",
"304 630 CURVE SMOOTH",
"141 630 OFFCURVE",
"35 504 OFFCURVE",
"35 271 CURVE SMOOTH",
"35 91 OFFCURVE",
"98 -15 OFFCURVE",
"248 -15 CURVE SMOOTH"
);
}
);
width = 490;
},
{
layerId = "E147A15F-B728-486F-B295-953D9C6EFD33";
paths = (
{
closed = 1;
nodes = (
"364 -15 OFFCURVE",
"430 76 OFFCURVE",
"430 181 CURVE SMOOTH",
"430 283 OFFCURVE",
"376 347 OFFCURVE",
"268 347 CURVE SMOOTH",
"195 347 OFFCURVE",
"136 321 OFFCURVE",
"87 279 CURVE",
"87 225 LINE",
"133 279 OFFCURVE",
"192 303 OFFCURVE",
"253 303 CURVE SMOOTH",
"330 303 OFFCURVE",
"370 255 OFFCURVE",
"370 173 CURVE SMOOTH",
"370 82 OFFCURVE",
"325 28 OFFCURVE",
"248 28 CURVE SMOOTH",
"163 28 OFFCURVE",
"115 100 OFFCURVE",
"115 238 CURVE SMOOTH",
"115 449 OFFCURVE",
"182 577 OFFCURVE",
"291 577 CURVE SMOOTH",
"347 577 OFFCURVE",
"365 542 OFFCURVE",
"365 515 CURVE",
"398 519 OFFCURVE",
"405 541 OFFCURVE",
"405 560 CURVE SMOOTH",
"405 594 OFFCURVE",
"371 620 OFFCURVE",
"298 620 CURVE SMOOTH",
"144 620 OFFCURVE",
"55 490 OFFCURVE",
"55 241 CURVE SMOOTH",
"55 73 OFFCURVE",
"119 -15 OFFCURVE",
"248 -15 CURVE SMOOTH"
);
}
);
width = 467;
}
);
unicode = 0036;
},
{
glyphname = seven;
layers = (
{
layerId = "013606A7-00D0-4ED4-9959-28651EF45347";
paths = (
{
closed = 1;
nodes = (
"30 620 LINE",
"30 447 LINE",
"38 440 OFFCURVE",
"92 447 OFFCURVE",
"95 475 CURVE SMOOTH",
"100 517 LINE",
"305 517 LINE",
"48 23 LINE",
"165 -17 LINE",
"411 559 LINE",
"411 578 OFFCURVE",
"407 603 OFFCURVE",
"398 620 CURVE"
);
}
);
width = 421;
},
{
layerId = "E147A15F-B728-486F-B295-953D9C6EFD33";
paths = (
{
closed = 1;
nodes = (
"15 611 LINE",
"15 476 LINE",
"22 469 OFFCURVE",
"53 473 OFFCURVE",
"57 498 CURVE SMOOTH",
"67 567 LINE",
"310 571 LINE",
"61 15 LINE",
"121 -4 LINE",
"370 585 LINE",
"370 597 OFFCURVE",
"366 605 OFFCURVE",
"363 611 CURVE"
);
}
);
width = 378;
}
);
unicode = 0037;
},
{
glyphname = eight;
layers = (
{
layerId = "013606A7-00D0-4ED4-9959-28651EF45347";
paths = (
{
closed = 1;
nodes = (
"319 393 OFFCURVE",
"253 348 OFFCURVE",
"220 331 CURVE",
"259 302 LINE",
"336 328 OFFCURVE",
"427 392 OFFCURVE",
"427 491 CURVE SMOOTH",
"427 573 OFFCURVE",
"365 630 OFFCURVE",
"258 630 CURVE SMOOTH",
"123 630 OFFCURVE",
"61 540 OFFCURVE",
"61 453 CURVE SMOOTH",
"61 332 OFFCURVE",
"180 284 OFFCURVE",
"246 248 CURVE SMOOTH",
"310 213 OFFCURVE",
"338 179 OFFCURVE",
"338 136 CURVE SMOOTH",
"338 91 OFFCURVE",
"306 55 OFFCURVE",
"244 55 CURVE SMOOTH",
"178 55 OFFCURVE",
"148 95 OFFCURVE",
"148 153 CURVE SMOOTH",
"148 215 OFFCURVE",
"182 275 OFFCURVE",
"248 308 CURVE",
"226 352 LINE",
"125 322 OFFCURVE",
"30 248 OFFCURVE",
"30 145 CURVE SMOOTH",
"30 45 OFFCURVE",
"121 -15 OFFCURVE",
"229 -15 CURVE SMOOTH",
"375 -15 OFFCURVE",
"448 93 OFFCURVE",
"448 182 CURVE SMOOTH",
"448 289 OFFCURVE",
"343 333 OFFCURVE",
"273 373 CURVE SMOOTH",
"194 418 OFFCURVE",
"173 446 OFFCURVE",
"173 486 CURVE SMOOTH",
"173 541 OFFCURVE",
"213 560 OFFCURVE",
"247 560 CURVE SMOOTH",
"282 560 OFFCURVE",
"319 540 OFFCURVE",
"319 477 CURVE SMOOTH"
);
}
);
width = 478;
},
{
layerId = "E147A15F-B728-486F-B295-953D9C6EFD33";
paths = (
{
closed = 1;
nodes = (
"335 394 OFFCURVE",
"255 345 OFFCURVE",
"219 326 CURVE",
"241 306 LINE",
"281 327 OFFCURVE",
"386 379 OFFCURVE",
"386 486 CURVE SMOOTH",
"386 576 OFFCURVE",
"312 620 OFFCURVE",
"237 620 CURVE SMOOTH",
"152 620 OFFCURVE",
"86 564 OFFCURVE",
"86 476 CURVE SMOOTH",
"86 380 OFFCURVE",
"165 336 OFFCURVE",
"241 294 CURVE SMOOTH",
"306 258 OFFCURVE",
"367 217 OFFCURVE",
"367 148 CURVE SMOOTH",
"367 84 OFFCURVE",
"315 28 OFFCURVE",
"228 28 CURVE SMOOTH",
"140 28 OFFCURVE",
"101 85 OFFCURVE",
"101 142 CURVE SMOOTH",
"101 215 OFFCURVE",
"163 281 OFFCURVE",
"231 311 CURVE",
"218 341 LINE",
"142 310 OFFCURVE",
"42 235 OFFCURVE",
"46 130 CURVE SMOOTH",
"49 60 OFFCURVE",
"97 -15 OFFCURVE",
"217 -15 CURVE SMOOTH",
"346 -15 OFFCURVE",
"417 73 OFFCURVE",
"417 164 CURVE SMOOTH",
"417 258 OFFCURVE",
"341 303 OFFCURVE",
"268 345 CURVE SMOOTH",
"194 387 OFFCURVE",
"136 422 OFFCURVE",
"136 484 CURVE SMOOTH",
"136 537 OFFCURVE",
"178 580 OFFCURVE",
"241 580 CURVE SMOOTH",
"303 580 OFFCURVE",
"335 538 OFFCURVE",
"335 482 CURVE SMOOTH"
);
}
);
width = 447;
}
);
unicode = 0038;
},
{
glyphname = nine;
layers = (
{
layerId = "013606A7-00D0-4ED4-9959-28651EF45347";
paths = (
{
closed = 1;
nodes = (
"92 630 OFFCURVE",
"10 541 OFFCURVE",
"10 419 CURVE SMOOTH",
"10 302 OFFCURVE",
"91 243 OFFCURVE",
"184 243 CURVE SMOOTH",
"244 243 OFFCURVE",
"309 267 OFFCURVE",
"363 314 CURVE",
"352 377 LINE",
"325 345 OFFCURVE",
"286 323 OFFCURVE",
"230 323 CURVE SMOOTH",
"178 323 OFFCURVE",
"131 347 OFFCURVE",
"131 444 CURVE SMOOTH",
"131 514 OFFCURVE",
"160 556 OFFCURVE",
"219 556 CURVE SMOOTH",
"279 556 OFFCURVE",
"316 511 OFFCURVE",
"316 338 CURVE SMOOTH",
"316 132 OFFCURVE",
"263 56 OFFCURVE",
"184 56 CURVE SMOOTH",
"140 56 OFFCURVE",
"115 81 OFFCURVE",
"115 127 CURVE",
"56 131 OFFCURVE",
"40 90 OFFCURVE",
"40 68 CURVE SMOOTH",
"40 19 OFFCURVE",
"90 -15 OFFCURVE",
"169 -15 CURVE SMOOTH",
"336 -15 OFFCURVE",
"442 111 OFFCURVE",
"442 338 CURVE SMOOTH",
"442 523 OFFCURVE",
"382 630 OFFCURVE",
"228 630 CURVE SMOOTH"
);
}
);
width = 477;
},
{
layerId = "E147A15F-B728-486F-B295-953D9C6EFD33";
paths = (
{
closed = 1;
nodes = (
"90 620 OFFCURVE",
"24 529 OFFCURVE",
"24 424 CURVE SMOOTH",
"24 322 OFFCURVE",
"78 258 OFFCURVE",
"186 258 CURVE SMOOTH",
"259 258 OFFCURVE",
"318 284 OFFCURVE",
"367 326 CURVE",
"367 380 LINE",
"321 326 OFFCURVE",
"262 302 OFFCURVE",
"201 302 CURVE SMOOTH",
"124 302 OFFCURVE",
"84 350 OFFCURVE",
"84 432 CURVE SMOOTH",
"84 523 OFFCURVE",
"129 577 OFFCURVE",
"206 577 CURVE SMOOTH",
"291 577 OFFCURVE",
"339 505 OFFCURVE",
"339 367 CURVE SMOOTH",
"339 156 OFFCURVE",
"272 28 OFFCURVE",
"163 28 CURVE SMOOTH",
"107 28 OFFCURVE",
"89 63 OFFCURVE",
"89 90 CURVE",
"56 86 OFFCURVE",
"49 64 OFFCURVE",
"49 45 CURVE SMOOTH",
"49 11 OFFCURVE",
"83 -15 OFFCURVE",
"156 -15 CURVE SMOOTH",
"310 -15 OFFCURVE",
"399 115 OFFCURVE",
"399 364 CURVE SMOOTH",
"399 532 OFFCURVE",
"335 620 OFFCURVE",
"206 620 CURVE SMOOTH"
);
}
);
width = 431;
}
);
unicode = 0039;
},
{
glyphname = colon;
layers = (
{
layerId = "013606A7-00D0-4ED4-9959-28651EF45347";
paths = (
{
closed = 1;
nodes = (
"180 -16 OFFCURVE",
"216 20 OFFCURVE",
"216 67 CURVE SMOOTH",
"216 113 OFFCURVE",
"180 150 OFFCURVE",
"133 150 CURVE SMOOTH",
"87 150 OFFCURVE",
"50 113 OFFCURVE",
"50 67 CURVE SMOOTH",
"50 20 OFFCURVE",
"87 -16 OFFCURVE",
"133 -16 CURVE SMOOTH"
);
},
{
closed = 1;
nodes = (
"180 317 OFFCURVE",
"216 353 OFFCURVE",
"216 400 CURVE SMOOTH",
"216 446 OFFCURVE",
"180 483 OFFCURVE",
"133 483 CURVE SMOOTH",
"87 483 OFFCURVE",
"50 446 OFFCURVE",
"50 400 CURVE SMOOTH",
"50 353 OFFCURVE",
"87 317 OFFCURVE",
"133 317 CURVE SMOOTH"
);
}
);
width = 266;
},
{
layerId = "E147A15F-B728-486F-B295-953D9C6EFD33";
paths = (
{
closed = 1;
nodes = (
"113 -15 OFFCURVE",
"132 5 OFFCURVE",
"132 32 CURVE SMOOTH",
"132 59 OFFCURVE",
"113 79 OFFCURVE",
"86 79 CURVE SMOOTH",
"59 79 OFFCURVE",
"40 59 OFFCURVE",
"40 32 CURVE SMOOTH",
"40 5 OFFCURVE",
"59 -15 OFFCURVE",
"86 -15 CURVE SMOOTH"
);
},
{
closed = 1;
nodes = (
"113 291 OFFCURVE",
"132 311 OFFCURVE",
"132 338 CURVE SMOOTH",
"132 365 OFFCURVE",
"113 385 OFFCURVE",
"86 385 CURVE SMOOTH",
"59 385 OFFCURVE",
"40 365 OFFCURVE",
"40 338 CURVE SMOOTH",
"40 311 OFFCURVE",
"59 291 OFFCURVE",
"86 291 CURVE SMOOTH"
);
}
);
width = 172;
}
);
unicode = 003A;
},
{
glyphname = semicolon;
layers = (
{
components = (
{
name = comma;
transform = "{1, 0, 0, 1, 3, -19}";
alignment = -1;
}
);
layerId = "013606A7-00D0-4ED4-9959-28651EF45347";
paths = (
{
closed = 1;
nodes = (
"173 347 OFFCURVE",
"208 382 OFFCURVE",
"208 426 CURVE SMOOTH",
"208 470 OFFCURVE",
"173 505 OFFCURVE",
"129 505 CURVE SMOOTH",
"85 505 OFFCURVE",
"50 470 OFFCURVE",
"50 426 CURVE SMOOTH",
"50 382 OFFCURVE",
"85 347 OFFCURVE",
"129 347 CURVE SMOOTH"
);
}
);
width = 259;
},
{
components = (
{
name = comma;
transform = "{1, 0, 0, 1, 17, 0}";
alignment = -1;
}
);
layerId = "E147A15F-B728-486F-B295-953D9C6EFD33";
paths = (
{
closed = 1;
nodes = (
"113 291 OFFCURVE",
"132 311 OFFCURVE",
"132 338 CURVE SMOOTH",
"132 365 OFFCURVE",
"113 385 OFFCURVE",
"86 385 CURVE SMOOTH",
"59 385 OFFCURVE",
"40 365 OFFCURVE",
"40 338 CURVE SMOOTH",
"40 311 OFFCURVE",
"59 291 OFFCURVE",
"86 291 CURVE SMOOTH"
);
}
);
width = 189;
}
);
unicode = 003B;
},
{
glyphname = less;
layers = (
{
layerId = "013606A7-00D0-4ED4-9959-28651EF45347";
paths = (
{
closed = 1;
nodes = (
"30 303 LINE",
"30 249 LINE",
"406 56 LINE",
"447 135 LINE",
"102 308 LINE",
"102 242 LINE",
"452 421 LINE",
"410 499 LINE"
);
}
);
width = 506;
},
{
layerId = "E147A15F-B728-486F-B295-953D9C6EFD33";
paths = (
{
closed = 1;
nodes = (
"40 310 LINE",
"40 272 LINE",
"367 100 LINE",
"391 146 LINE",
"78 310 LINE",
"78 272 LINE",
"391 436 LINE",
"367 482 LINE"
);
}
);
width = 441;
}
);
unicode = 003C;
},
{
glyphname = equal;
layers = (
{
layerId = "013606A7-00D0-4ED4-9959-28651EF45347";
paths = (
{
closed = 1;
nodes = (
"50 387 LINE",
"50 307 LINE",
"458 307 LINE",
"458 387 LINE"
);
},
{
closed = 1;
nodes = (
"50 229 LINE",
"50 149 LINE",
"458 149 LINE",
"458 229 LINE"
);
}
);
width = 508;
},
{
layerId = "E147A15F-B728-486F-B295-953D9C6EFD33";
paths = (
{
closed = 1;
nodes = (
"50 383 LINE",
"50 333 LINE",
"420 333 LINE",
"420 383 LINE"
);
},
{
closed = 1;
nodes = (
"50 254 LINE",
"50 204 LINE",
"420 204 LINE",
"420 254 LINE"
);
}
);
width = 470;
}
);
unicode = 003D;
},
{
glyphname = greater;
layers = (
{
layerId = "013606A7-00D0-4ED4-9959-28651EF45347";
paths = (
{
closed = 1;
nodes = (
"476 303 LINE",
"476 249 LINE",
"100 56 LINE",
"59 135 LINE",
"404 308 LINE",
"404 242 LINE",
"54 421 LINE",
"96 499 LINE"
);
}
);
width = 506;
},
{
layerId = "E147A15F-B728-486F-B295-953D9C6EFD33";
paths = (
{
closed = 1;
nodes = (
"381 310 LINE",
"381 272 LINE",
"54 100 LINE",
"30 146 LINE",
"343 310 LINE",
"343 272 LINE",
"30 436 LINE",
"54 482 LINE"
);
}
);
width = 421;
}
);
unicode = 003E;
},
{
glyphname = question;
layers = (
{
layerId = "013606A7-00D0-4ED4-9959-28651EF45347";
paths = (
{
closed = 1;
nodes = (
"105 715 OFFCURVE",
"40 635 OFFCURVE",
"40 575 CURVE SMOOTH",
"40 527 OFFCURVE",
"83 509 OFFCURVE",
"126 509 CURVE",
"126 542 OFFCURVE",
"152 639 OFFCURVE",
"241 639 CURVE SMOOTH",
"306 639 OFFCURVE",
"336 587 OFFCURVE",
"336 532 CURVE SMOOTH",
"336 435 OFFCURVE",
"243 397 OFFCURVE",
"157 375 CURVE",
"163 217 LINE",
"195 213 OFFCURVE",
"226 213 OFFCURVE",
"243 217 CURVE",
"249 318 LINE",
"370 339 OFFCURVE",
"463 425 OFFCURVE",
"463 538 CURVE SMOOTH",
"463 644 OFFCURVE",
"381 715 OFFCURVE",
"247 715 CURVE SMOOTH"
);
},
{
closed = 1;
nodes = (
"159 143 OFFCURVE",
"124 108 OFFCURVE",
"124 64 CURVE SMOOTH",
"124 20 OFFCURVE",
"159 -15 OFFCURVE",
"203 -15 CURVE SMOOTH",
"247 -15 OFFCURVE",
"282 20 OFFCURVE",
"282 64 CURVE SMOOTH",
"282 108 OFFCURVE",
"247 143 OFFCURVE",
"203 143 CURVE SMOOTH"
);
}
);
width = 503;
},
{
layerId = "E147A15F-B728-486F-B295-953D9C6EFD33";
paths = (
{
closed = 1;
nodes = (
"115 709 OFFCURVE",
"50 634 OFFCURVE",
"50 573 CURVE SMOOTH",
"50 539 OFFCURVE",
"71 529 OFFCURVE",
"104 529 CURVE",
"104 600 OFFCURVE",
"146 668 OFFCURVE",
"245 668 CURVE SMOOTH",
"324 668 OFFCURVE",
"372 612 OFFCURVE",
"372 547 CURVE SMOOTH",
"372 460 OFFCURVE",
"293 390 OFFCURVE",
"187 363 CURVE",
"192 179 LINE",
"207 177 OFFCURVE",
"219 177 OFFCURVE",
"233 179 CURVE",
"239 332 LINE",
"325 353 OFFCURVE",
"432 427 OFFCURVE",
"432 548 CURVE SMOOTH",
"432 646 OFFCURVE",
"359 709 OFFCURVE",
"248 709 CURVE SMOOTH"
);
},
{
closed = 1;
nodes = (
"185 79 OFFCURVE",
"166 59 OFFCURVE",
"166 32 CURVE SMOOTH",
"166 5 OFFCURVE",
"185 -15 OFFCURVE",
"212 -15 CURVE SMOOTH",
"239 -15 OFFCURVE",
"258 5 OFFCURVE",
"258 32 CURVE SMOOTH",
"258 59 OFFCURVE",
"239 79 OFFCURVE",
"212 79 CURVE SMOOTH"
);
}
);
width = 482;
}
);
unicode = 003F;
},
{
glyphname = at;
layers = (
{
layerId = "013606A7-00D0-4ED4-9959-28651EF45347";
paths = (
{
closed = 1;
nodes = (
"270 684 OFFCURVE",
"85 510 OFFCURVE",
"85 248 CURVE SMOOTH",
"85 0 OFFCURVE",
"267 -166 OFFCURVE",
"541 -166 CURVE SMOOTH",
"641 -166 OFFCURVE",
"721 -142 OFFCURVE",
"788 -106 CURVE",
"776 -43 LINE",
"715 -83 OFFCURVE",
"626 -96 OFFCURVE",
"555 -96 CURVE SMOOTH",
"320 -96 OFFCURVE",
"163 42 OFFCURVE",
"163 248 CURVE SMOOTH",
"163 468 OFFCURVE",
"317 614 OFFCURVE",
"549 614 CURVE SMOOTH",
"748 614 OFFCURVE",
"881 507 OFFCURVE",
"881 346 CURVE SMOOTH",
"881 213 OFFCURVE",
"803 124 OFFCURVE",
"687 124 CURVE",
"737 480 LINE",
"615 473 LINE",
"565 118 LINE",
"562 68 OFFCURVE",
"590 53 OFFCURVE",
"655 53 CURVE SMOOTH",
"835 53 OFFCURVE",
"955 177 OFFCURVE",
"955 362 CURVE SMOOTH",
"955 555 OFFCURVE",
"792 684 OFFCURVE",
"548 684 CURVE SMOOTH"
);
},
{
closed = 1;
nodes = (
"375 493 OFFCURVE",
"302 387 OFFCURVE",
"287 254 CURVE SMOOTH",
"270 99 OFFCURVE",
"350 53 OFFCURVE",
"438 53 CURVE SMOOTH",
"518 53 OFFCURVE",
"561 91 OFFCURVE",
"613 139 CURVE",
"612 207 LINE",
"560 159 OFFCURVE",
"528 135 OFFCURVE",
"484 135 CURVE SMOOTH",
"420 135 OFFCURVE",
"397 185 OFFCURVE",
"410 273 CURVE SMOOTH",
"419 333 OFFCURVE",
"446 420 OFFCURVE",
"525 420 CURVE SMOOTH",
"572 420 OFFCURVE",
"608 389 OFFCURVE",
"620 368 CURVE",
"672 437 LINE",
"621 474 OFFCURVE",
"580 493 OFFCURVE",
"519 493 CURVE SMOOTH"
);
}
);
width = 1040;
},
{
layerId = "E147A15F-B728-486F-B295-953D9C6EFD33";
paths = (
{
closed = 1;
nodes = (
"230 684 OFFCURVE",
"50 510 OFFCURVE",
"50 248 CURVE SMOOTH",
"50 1 OFFCURVE",
"227 -163 OFFCURVE",
"493 -163 CURVE SMOOTH",
"593 -163 OFFCURVE",
"673 -139 OFFCURVE",
"740 -103 CURVE",
"728 -63 LINE",
"667 -102 OFFCURVE",
"586 -123 OFFCURVE",
"500 -123 CURVE SMOOTH",
"260 -123 OFFCURVE",
"100 29 OFFCURVE",
"100 256 CURVE SMOOTH",
"100 489 OFFCURVE",
"259 644 OFFCURVE",
"498 644 CURVE SMOOTH",
"710 644 OFFCURVE",
"852 530 OFFCURVE",
"852 359 CURVE SMOOTH",
"852 194 OFFCURVE",
"753 88 OFFCURVE",
"604 93 CURVE",
"657 480 LINE",
"609 473 LINE",
"557 100 LINE",
"553 56 OFFCURVE",
"575 53 OFFCURVE",
"600 53 CURVE SMOOTH",
"780 53 OFFCURVE",
"900 177 OFFCURVE",
"900 363 CURVE SMOOTH",
"900 556 OFFCURVE",
"740 684 OFFCURVE",
"500 684 CURVE SMOOTH"
);
},
{
closed = 1;
nodes = (
"381 481 OFFCURVE",
"291 390 OFFCURVE",
"274 246 CURVE SMOOTH",
"258 109 OFFCURVE",
"322 41 OFFCURVE",
"410 41 CURVE SMOOTH",
"490 41 OFFCURVE",
"553 98 OFFCURVE",
"585 134 CURVE",
"583 161 LINE",
"528 121 OFFCURVE",
"491 90 OFFCURVE",
"434 90 CURVE SMOOTH",
"336 90 OFFCURVE",
"315 178 OFFCURVE",
"327 260 CURVE SMOOTH",
"339 344 OFFCURVE",
"388 436 OFFCURVE",
"489 436 CURVE SMOOTH",
"554 436 OFFCURVE",
"597 398 OFFCURVE",
"603 386 CURVE",
"633 443 LINE",
"595 465 OFFCURVE",
"562 481 OFFCURVE",
"508 481 CURVE SMOOTH"
);
}
);
width = 950;
}
);
unicode = 0040;
},
{
glyphname = A;
layers = (
{
anchors = (
{
name = ogonek;
position = "{557, -19}";
},
{
name = top;
position = "{336, 685}";
}
);
layerId = "013606A7-00D0-4ED4-9959-28651EF45347";
paths = (
{
closed = 1;
nodes = (
"178 71 LINE",
"96 69 LINE",
"57 67 LINE SMOOTH",
"8 64 OFFCURVE",
"14 10 OFFCURVE",
"13 0 CURVE",
"214 0 LINE SMOOTH",
"264 0 OFFCURVE",
"260 55 OFFCURVE",
"259 65 CURVE"
);
},
{
closed = 1;
nodes = (
"574 71 LINE",
"439 69 LINE",
"410 67 LINE SMOOTH",
"361 64 OFFCURVE",
"367 10 OFFCURVE",
"366 0 CURVE",
"600 0 LINE SMOOTH",
"650 0 OFFCURVE",
"646 55 OFFCURVE",
"645 65 CURVE"
);
},
{
closed = 1;
nodes = (
"172 281 LINE",
"172 214 LINE",
"444 214 LINE",
"444 281 LINE"
);
},
{
closed = 1;
nodes = (
"455 13 LINE",
"582 48 LINE",
"387 685 LINE",
"347 688 OFFCURVE",
"326 689 OFFCURVE",
"286 685 CURVE",
"73 0 LINE",
"157 0 LINE",
"338 619 LINE",
"290 620 LINE"
);
}
);
width = 660;
},
{
anchors = (
{
name = ogonek;
position = "{531, 0}";
},
{
name = top;
position = "{299, 675}";
}
);
layerId = "E147A15F-B728-486F-B295-953D9C6EFD33";
paths = (
{
closed = 1;
nodes = (
"127 45 LINE",
"78 43 LINE",
"38 40 LINE SMOOTH",
"5 38 OFFCURVE",
"11 10 OFFCURVE",
"10 0 CURVE",
"178 0 LINE SMOOTH",
"206 0 OFFCURVE",
"202 29 OFFCURVE",
"201 39 CURVE"
);
},
{
closed = 1;
nodes = (
"522 45 LINE",
"460 43 LINE",
"410 40 LINE SMOOTH",
"377 38 OFFCURVE",
"383 10 OFFCURVE",
"382 0 CURVE",
"563 0 LINE SMOOTH",
"591 0 OFFCURVE",
"587 29 OFFCURVE",
"586 39 CURVE"
);
},
{
closed = 1;
nodes = (
"167 281 LINE",
"167 236 LINE",
"420 236 LINE",
"420 281 LINE"
);
},
{
closed = 1;
nodes = (
"473 0 LINE",
"535 0 LINE",
"328 676 LINE",
"309 679 OFFCURVE",
"291 679 OFFCURVE",
"272 676 CURVE",
"72 22 LINE",
"120 20 LINE",
"305 650 LINE",
"281 650 LINE"
);
}
);
width = 597;
}
);
unicode = 0041;
},
{
glyphname = B;
layers = (
{
layerId = "013606A7-00D0-4ED4-9959-28651EF45347";
paths = (
{
closed = 1;
nodes = (
"239 647 LINE",
"114 647 LINE",
"114 0 LINE",
"239 0 LINE"
);
},
{
closed = 1;
nodes = (
"312 0 LINE SMOOTH",
"482 0 OFFCURVE",
"570 80 OFFCURVE",
"570 209 CURVE SMOOTH",
"570 317 OFFCURVE",
"478 363 OFFCURVE",
"370 363 CURVE",
"370 348 LINE",
"484 370 OFFCURVE",
"540 436 OFFCURVE",
"540 525 CURVE SMOOTH",
"540 601 OFFCURVE",
"484 685 OFFCURVE",
"307 685 CURVE SMOOTH",
"80 685 LINE SMOOTH",
"43 685 OFFCURVE",
"40 631 OFFCURVE",
"41 621 CURVE",
"115 615 LINE",
"242 621 LINE",
"280 623 LINE SMOOTH",
"351 628 OFFCURVE",
"410 599 OFFCURVE",
"410 507 CURVE SMOOTH",
"410 430 OFFCURVE",
"371 382 OFFCURVE",
"260 382 CURVE SMOOTH",
"194 382 LINE",
"192 321 LINE",
"272 322 LINE SMOOTH",
"380 323 OFFCURVE",
"442 287 OFFCURVE",
"442 195 CURVE SMOOTH",
"442 119 OFFCURVE",
"395 70 OFFCURVE",
"287 71 CURVE SMOOTH",
"211 72 LINE",
"115 70 LINE",
"82 66 LINE SMOOTH",
"56 63 OFFCURVE",
"43 46 OFFCURVE",
"42 0 CURVE"
);
}
);
width = 592;
},
{
layerId = "E147A15F-B728-486F-B295-953D9C6EFD33";
paths = (
{
closed = 1;
nodes = (
"178 647 LINE",
"120 647 LINE",
"120 0 LINE",
"178 0 LINE"
);
},
{
closed = 1;
nodes = (
"279 0 LINE",
"410 0 OFFCURVE",
"502 71 OFFCURVE",
"501 196 CURVE SMOOTH",
"500 305 OFFCURVE",
"405 363 OFFCURVE",
"327 363 CURVE",
"327 348 LINE",
"401 370 OFFCURVE",
"467 419 OFFCURVE",
"467 511 CURVE SMOOTH",
"467 601 OFFCURVE",
"405 677 OFFCURVE",
"274 677 CURVE SMOOTH",
"70 677 LINE SMOOTH",
"42 677 OFFCURVE",
"46 648 OFFCURVE",
"47 638 CURVE",
"121 632 LINE",
"179 634 LINE",
"229 637 LINE SMOOTH",
"341 644 OFFCURVE",
"405 602 OFFCURVE",
"405 511 CURVE SMOOTH",
"405 423 OFFCURVE",
"357 372 OFFCURVE",
"227 372 CURVE SMOOTH",
"161 372 LINE",
"159 331 LINE",
"239 332 LINE SMOOTH",
"379 334 OFFCURVE",
"439 298 OFFCURVE",
"439 187 CURVE SMOOTH",
"439 100 OFFCURVE",
"398 40 OFFCURVE",
"254 42 CURVE SMOOTH",
"178 43 LINE",
"120 43 LINE",
"70 40 LINE SMOOTH",
"37 38 OFFCURVE",
"43 10 OFFCURVE",
"42 0 CURVE"
);
}
);
width = 531;
}
);
unicode = 0042;
},
{
glyphname = C;
layers = (
{
anchors = (
{
name = bottom;
position = "{337, 0}";
},
{
name = top;
position = "{347, 685}";
}
);
layerId = "013606A7-00D0-4ED4-9959-28651EF45347";
paths = (
{
closed = 1;
nodes = (
"144 700 OFFCURVE",
"35 546 OFFCURVE",
"35 335 CURVE SMOOTH",
"35 117 OFFCURVE",
"134 -15 OFFCURVE",
"334 -15 CURVE SMOOTH",
"468 -15 OFFCURVE",
"572 52 OFFCURVE",
"572 103 CURVE SMOOTH",
"572 114 OFFCURVE",
"566 129 OFFCURVE",
"556 135 CURVE",
"519 107 OFFCURVE",
"453 74 OFFCURVE",
"373 74 CURVE SMOOTH",
"223 74 OFFCURVE",
"165 169 OFFCURVE",
"165 347 CURVE SMOOTH",
"165 499 OFFCURVE",
"231 614 OFFCURVE",
"358 614 CURVE SMOOTH",
"432 614 OFFCURVE",
"466 567 OFFCURVE",
"466 485 CURVE",
"526 485 OFFCURVE",
"566 514 OFFCURVE",
"566 569 CURVE SMOOTH",
"566 639 OFFCURVE",
"490 700 OFFCURVE",
"370 700 CURVE SMOOTH"
);
}
);
width = 602;
},
{
anchors = (
{
name = bottom;
position = "{329, 0}";
},
{
name = top;
position = "{324, 675}";
}
);
layerId = "E147A15F-B728-486F-B295-953D9C6EFD33";
paths = (
{
closed = 1;
nodes = (
"143 690 OFFCURVE",
"34 527 OFFCURVE",
"40 310 CURVE SMOOTH",
"45 116 OFFCURVE",
"139 -15 OFFCURVE",
"319 -15 CURVE SMOOTH",
"445 -15 OFFCURVE",
"521 49 OFFCURVE",
"521 80 CURVE SMOOTH",
"521 88 OFFCURVE",
"517 96 OFFCURVE",
"509 100 CURVE",
"480 75 OFFCURVE",
"425 39 OFFCURVE",
"330 39 CURVE SMOOTH",
"161 39 OFFCURVE",
"103 168 OFFCURVE",
"103 332 CURVE SMOOTH",
"103 514 OFFCURVE",
"174 644 OFFCURVE",
"319 644 CURVE SMOOTH",
"404 644 OFFCURVE",
"461 598 OFFCURVE",
"461 512 CURVE",
"499 513 OFFCURVE",
"514 532 OFFCURVE",
"514 563 CURVE SMOOTH",
"514 637 OFFCURVE",
"431 690 OFFCURVE",
"326 690 CURVE SMOOTH"
);
}
);
width = 547;
}
);
unicode = 0043;
},
{
glyphname = D;
layers = (
{
anchors = (
{
name = top;
position = "{324, 685}";
}
);
layerId = "013606A7-00D0-4ED4-9959-28651EF45347";
paths = (
{
closed = 1;
nodes = (
"237 655 LINE",
"112 658 LINE",
"112 0 LINE",
"237 0 LINE"
);
},
{
closed = 1;
nodes = (
"236 73 LINE",
"112 70 LINE",
"76 66 LINE SMOOTH",
"46 63 OFFCURVE",
"38 28 OFFCURVE",
"41 0 CURVE",
"332 0 LINE SMOOTH",
"546 0 OFFCURVE",
"677 119 OFFCURVE",
"677 346 CURVE SMOOTH",
"677 578 OFFCURVE",
"557 685 OFFCURVE",
"327 685 CURVE SMOOTH",
"93 685 LINE SMOOTH",
"50 685 OFFCURVE",
"40 664 OFFCURVE",
"41 620 CURVE",
"111 614 LINE",
"237 614 LINE",
"293 616 LINE SMOOTH",
"472 622 OFFCURVE",
"547 545 OFFCURVE",
"547 338 CURVE SMOOTH",
"547 144 OFFCURVE",
"476 58 OFFCURVE",
"302 69 CURVE SMOOTH"
);
}
);
width = 712;
},
{
anchors = (
{
name = top;
position = "{273, 677}";
}
);
layerId = "E147A15F-B728-486F-B295-953D9C6EFD33";
paths = (
{
closed = 1;
nodes = (
"178 647 LINE",
"120 647 LINE",
"120 0 LINE",
"178 0 LINE"
);
},
{
closed = 1;
nodes = (
"178 42 LINE",
"120 43 LINE",
"70 40 LINE SMOOTH",
"37 38 OFFCURVE",
"43 10 OFFCURVE",
"42 0 CURVE",
"273 0 LINE SMOOTH",
"498 0 OFFCURVE",
"612 119 OFFCURVE",
"612 346 CURVE SMOOTH",
"612 564 OFFCURVE",
"518 677 OFFCURVE",
"273 677 CURVE SMOOTH",
"70 677 LINE SMOOTH",
"42 677 OFFCURVE",
"46 648 OFFCURVE",
"47 638 CURVE",
"121 632 LINE",
"179 634 LINE",
"229 636 LINE SMOOTH",
"438 644 OFFCURVE",
"550 558 OFFCURVE",
"550 338 CURVE SMOOTH",
"550 134 OFFCURVE",
"438 42 OFFCURVE",
"252 42 CURVE SMOOTH"
);
}
);
width = 652;
}
);
unicode = 0044;
},
{
glyphname = E;
layers = (
{
anchors = (
{
name = bottom;
position = "{299, 0}";
},
{
name = ogonek;
position = "{444, -22}";
},
{
name = top;
position = "{321, 685}";
}
);
layerId = "013606A7-00D0-4ED4-9959-28651EF45347";
paths = (
{
closed = 1;
nodes = (
"238 616 LINE",
"451 613 LINE",
"460 495 LINE",
"470 494 OFFCURVE",
"524 490 OFFCURVE",
"524 534 CURVE SMOOTH",
"524 685 LINE",
"86 685 LINE SMOOTH",
"36 685 OFFCURVE",
"40 630 OFFCURVE",
"41 620 CURVE",
"113 614 LINE",
"113 69 LINE",
"84 67 LINE SMOOTH",
"35 64 OFFCURVE",
"40 10 OFFCURVE",
"40 0 CURVE",
"543 0 LINE",
"543 163 LINE SMOOTH",
"543 207 OFFCURVE",
"489 203 OFFCURVE",
"479 202 CURVE",
"471 79 LINE",
"238 71 LINE",
"238 300 LINE",
"418 290 LINE",
"424 321 OFFCURVE",
"423 362 OFFCURVE",
"417 389 CURVE",
"238 368 LINE"
);
}
);
width = 573;
},
{
anchors = (
{
name = bottom;
position = "{301, 0}";
},
{
name = ogonek;
position = "{538, 10}";
},
{
name = top;
position = "{301, 675}";
}
);
layerId = "E147A15F-B728-486F-B295-953D9C6EFD33";
paths = (
{
closed = 1;
nodes = (
"178 630 LINE",
"440 625 LINE",
"450 513 LINE",
"460 512 OFFCURVE",
"489 508 OFFCURVE",
"489 536 CURVE SMOOTH",
"489 675 LINE",
"71 675 LINE SMOOTH",
"42 675 OFFCURVE",
"46 647 OFFCURVE",
"47 637 CURVE",
"120 630 LINE",
"120 43 LINE",
"70 40 LINE SMOOTH",
"37 38 OFFCURVE",
"43 10 OFFCURVE",
"42 0 CURVE",
"501 0 LINE",
"501 129 LINE SMOOTH",
"501 159 OFFCURVE",
"472 153 OFFCURVE",
"462 152 CURVE",
"452 51 LINE",
"178 45 LINE",
"178 315 LINE",
"374 304 LINE",
"378 326 OFFCURVE",
"378 350 OFFCURVE",
"374 369 CURVE",
"178 358 LINE"
);
}
);
width = 547;
}
);
unicode = 0045;
},
{
glyphname = F;
layers = (
{
layerId = "013606A7-00D0-4ED4-9959-28651EF45347";
paths = (
{
closed = 1;
nodes = (
"514 685 LINE",
"86 685 LINE SMOOTH",
"36 685 OFFCURVE",
"40 630 OFFCURVE",
"41 620 CURVE",
"113 614 LINE",
"113 69 LINE",
"84 67 LINE SMOOTH",
"35 64 OFFCURVE",
"41 10 OFFCURVE",
"40 0 CURVE",
"285 0 LINE SMOOTH",
"335 0 OFFCURVE",
"331 55 OFFCURVE",
"330 65 CURVE",
"238 71 LINE",
"238 306 LINE",
"418 296 LINE",
"424 327 OFFCURVE",
"423 368 OFFCURVE",
"417 395 CURVE",
"238 374 LINE",
"238 616 LINE",
"441 609 LINE",
"450 495 LINE",
"460 494 OFFCURVE",
"514 490 OFFCURVE",
"514 534 CURVE SMOOTH"
);
}
);
width = 529;
},
{
layerId = "E147A15F-B728-486F-B295-953D9C6EFD33";
paths = (
{
closed = 1;
nodes = (
"490 675 LINE",
"71 675 LINE SMOOTH",
"42 675 OFFCURVE",
"46 647 OFFCURVE",
"47 637 CURVE",
"120 630 LINE",
"120 43 LINE",
"70 40 LINE SMOOTH",
"37 38 OFFCURVE",
"43 10 OFFCURVE",
"42 0 CURVE",
"243 0 LINE SMOOTH",
"271 0 OFFCURVE",
"267 29 OFFCURVE",
"266 39 CURVE",
"180 45 LINE",
"180 327 LINE",
"375 316 LINE",
"379 338 OFFCURVE",
"379 362 OFFCURVE",
"375 381 CURVE",
"180 370 LINE",
"180 630 LINE",
"440 630 LINE",
"451 523 LINE",
"461 522 OFFCURVE",
"490 518 OFFCURVE",
"490 546 CURVE SMOOTH"
);
}
);
width = 510;
}
);
unicode = 0046;
},
{
glyphname = G;
layers = (
{
anchors = (
{
name = bottom;
position = "{335, 0}";
},
{
name = top;
position = "{361, 685}";
}
);
layerId = "013606A7-00D0-4ED4-9959-28651EF45347";
paths = (
{
closed = 1;
nodes = (
"144 700 OFFCURVE",
"35 546 OFFCURVE",
"35 335 CURVE SMOOTH",
"35 116 OFFCURVE",
"134 -15 OFFCURVE",
"332 -15 CURVE SMOOTH",
"451 -15 OFFCURVE",
"554 28 OFFCURVE",
"589 92 CURVE",
"589 274 LINE",
"492 278 LINE",
"492 113 LINE",
"470 90 OFFCURVE",
"422 74 OFFCURVE",
"371 74 CURVE SMOOTH",
"223 74 OFFCURVE",
"165 168 OFFCURVE",
"165 347 CURVE SMOOTH",
"165 513 OFFCURVE",
"215 628 OFFCURVE",
"356 628 CURVE SMOOTH",
"470 628 OFFCURVE",
"504 581 OFFCURVE",
"504 485 CURVE",
"564 485 OFFCURVE",
"604 514 OFFCURVE",
"604 569 CURVE SMOOTH",
"604 639 OFFCURVE",
"528 700 OFFCURVE",
"368 700 CURVE SMOOTH"
);
},
{
closed = 1;
nodes = (
"395 316 LINE SMOOTH",
"345 316 OFFCURVE",
"349 261 OFFCURVE",
"350 251 CURVE",
"492 245 LINE",
"595 247 LINE",
"624 249 LINE SMOOTH",
"673 252 OFFCURVE",
"667 306 OFFCURVE",
"668 316 CURVE"
);
}
);
width = 684;
},
{
anchors = (
{
name = bottom;
position = "{287, 0}";
},
{
name = top;
position = "{315, 675}";
}
);
layerId = "E147A15F-B728-486F-B295-953D9C6EFD33";
paths = (
{
closed = 1;
nodes = (
"143 692 OFFCURVE",
"34 533 OFFCURVE",
"40 310 CURVE SMOOTH",
"46 105 OFFCURVE",
"146 -15 OFFCURVE",
"314 -15 CURVE SMOOTH",
"400 -15 OFFCURVE",
"496 17 OFFCURVE",
"544 65 CURVE",
"544 268 LINE",
"485 268 LINE",
"485 80 LINE",
"448 51 OFFCURVE",
"385 32 OFFCURVE",
"325 32 CURVE SMOOTH",
"160 32 OFFCURVE",
"102 168 OFFCURVE",
"102 329 CURVE SMOOTH",
"102 515 OFFCURVE",
"179 646 OFFCURVE",
"332 646 CURVE SMOOTH",
"423 646 OFFCURVE",
"487 608 OFFCURVE",
"487 512 CURVE",
"534 512 OFFCURVE",
"540 545 OFFCURVE",
"540 565 CURVE SMOOTH",
"540 625 OFFCURVE",
"488 692 OFFCURVE",
"346 692 CURVE SMOOTH"
);
},
{
closed = 1;
nodes = (
"402 303 LINE",
"375 303 OFFCURVE",
"379 274 OFFCURVE",
"380 264 CURVE",
"486 258 LINE",
"544 260 LINE",
"568 263 LINE SMOOTH",
"600 267 OFFCURVE",
"595 293 OFFCURVE",
"596 303 CURVE"
);
}
);
width = 612;
}
);
unicode = 0047;
},
{
glyphname = H;
layers = (
{
anchors = (
{
name = top;
position = "{383, 685}";
}
);
layerId = "013606A7-00D0-4ED4-9959-28651EF45347";
paths = (
{
closed = 1;
nodes = (
"238 71 LINE",
"238 616 LINE",
"267 618 LINE SMOOTH",
"316 621 OFFCURVE",
"310 675 OFFCURVE",
"311 685 CURVE",
"86 685 LINE SMOOTH",
"36 685 OFFCURVE",
"40 630 OFFCURVE",
"41 620 CURVE",
"113 614 LINE",
"113 69 LINE",
"84 67 LINE SMOOTH",
"35 64 OFFCURVE",
"41 10 OFFCURVE",
"40 0 CURVE",
"265 0 LINE SMOOTH",
"315 0 OFFCURVE",
"311 55 OFFCURVE",
"310 65 CURVE"
);
},
{
closed = 1;
nodes = (
"528 614 LINE",
"528 69 LINE",
"499 67 LINE SMOOTH",
"450 64 OFFCURVE",
"456 10 OFFCURVE",
"455 0 CURVE",
"680 0 LINE SMOOTH",
"730 0 OFFCURVE",
"726 55 OFFCURVE",
"725 65 CURVE",
"653 71 LINE",
"653 616 LINE",
"682 618 LINE SMOOTH",
"731 621 OFFCURVE",
"725 675 OFFCURVE",
"726 685 CURVE",
"501 685 LINE SMOOTH",
"451 685 OFFCURVE",
"455 630 OFFCURVE",
"456 620 CURVE"
);
},
{
closed = 1;
nodes = (
"544 305 LINE",
"544 372 LINE",
"222 372 LINE",
"222 305 LINE"
);
}
);
width = 766;
},
{
anchors = (
{
name = top;
position = "{354, 675}";
}
);
layerId = "E147A15F-B728-486F-B295-953D9C6EFD33";
paths = (
{
closed = 1;
nodes = (
"178 45 LINE",
"179 632 LINE",
"229 635 LINE SMOOTH",
"262 637 OFFCURVE",
"256 665 OFFCURVE",
"257 675 CURVE",
"70 675 LINE SMOOTH",
"42 675 OFFCURVE",
"46 646 OFFCURVE",
"47 636 CURVE",
"120 630 LINE",
"120 43 LINE",
"70 40 LINE SMOOTH",
"37 38 OFFCURVE",
"43 10 OFFCURVE",
"42 0 CURVE",
"229 0 LINE SMOOTH",
"257 0 OFFCURVE",
"253 29 OFFCURVE",
"252 39 CURVE"
);
},
{
closed = 1;
nodes = (
"521 630 LINE",
"521 43 LINE",
"471 40 LINE SMOOTH",
"438 38 OFFCURVE",
"444 10 OFFCURVE",
"443 0 CURVE",
"629 0 LINE SMOOTH",
"657 0 OFFCURVE",
"653 29 OFFCURVE",
"652 39 CURVE",
"579 45 LINE",
"579 632 LINE",
"629 635 LINE SMOOTH",
"662 637 OFFCURVE",
"656 665 OFFCURVE",
"657 675 CURVE",
"471 675 LINE SMOOTH",
"443 675 OFFCURVE",
"447 646 OFFCURVE",
"448 636 CURVE"
);
},
{
closed = 1;
nodes = (
"532 316 LINE",
"532 361 LINE",
"167 361 LINE",
"167 316 LINE"
);
}
);
width = 699;
}
);
unicode = 0048;
},
{
glyphname = I;
layers = (
{
anchors = (
{
name = ogonek;
position = "{217, -17}";
},
{
name = top;
position = "{175, 685}";
}
);
layerId = "013606A7-00D0-4ED4-9959-28651EF45347";
paths = (
{
closed = 1;
nodes = (
"238 655 LINE",
"113 658 LINE",
"113 0 LINE",
"238 0 LINE"
);
},
{
closed = 1;
nodes = (
"239 71 LINE",
"113 69 LINE",
"84 67 LINE SMOOTH",
"35 64 OFFCURVE",
"41 10 OFFCURVE",
"40 0 CURVE",
"265 0 LINE SMOOTH",
"315 0 OFFCURVE",
"311 55 OFFCURVE",
"310 65 CURVE"
);
},
{
closed = 1;
nodes = (
"112 614 LINE",
"238 616 LINE",
"267 618 LINE SMOOTH",
"316 621 OFFCURVE",
"310 675 OFFCURVE",
"311 685 CURVE",
"86 685 LINE SMOOTH",
"36 685 OFFCURVE",
"40 630 OFFCURVE",
"41 620 CURVE"
);
}
);
width = 351;
},
{
anchors = (
{
name = ogonek;
position = "{280, 10}";
},
{
name = top;
position = "{154, 675}";
}
);
layerId = "E147A15F-B728-486F-B295-953D9C6EFD33";
paths = (
{
closed = 1;
nodes = (
"178 645 LINE",
"120 645 LINE",
"120 0 LINE",
"178 0 LINE"
);
},
{
closed = 1;
nodes = (
"178 45 LINE",
"120 43 LINE",
"70 40 LINE SMOOTH",
"37 38 OFFCURVE",
"43 10 OFFCURVE",
"42 0 CURVE",
"229 0 LINE SMOOTH",
"257 0 OFFCURVE",
"253 29 OFFCURVE",
"252 39 CURVE"
);
},
{
closed = 1;
nodes = (
"121 630 LINE",
"179 632 LINE",
"229 635 LINE SMOOTH",
"262 637 OFFCURVE",
"256 665 OFFCURVE",
"257 675 CURVE",
"70 675 LINE SMOOTH",
"42 675 OFFCURVE",
"46 646 OFFCURVE",
"47 636 CURVE"
);
}
);
width = 299;
}
);
unicode = 0049;
},
{
glyphname = J;
layers = (
{
anchors = (
{
name = top;
position = "{253, 685}";
}
);
layerId = "013606A7-00D0-4ED4-9959-28651EF45347";
paths = (
{
closed = 1;
nodes = (
"319 655 LINE",
"194 658 LINE",
"194 132 LINE SMOOTH",
"194 41 OFFCURVE",
"180 21 OFFCURVE",
"158 21 CURVE SMOOTH",
"122 21 OFFCURVE",
"108 53 OFFCURVE",
"108 100 CURVE",
"44 100 OFFCURVE",
"23 63 OFFCURVE",
"23 20 CURVE SMOOTH",
"23 -23 OFFCURVE",
"63 -63 OFFCURVE",
"129 -63 CURVE SMOOTH",
"247 -63 OFFCURVE",
"319 23 OFFCURVE",
"319 139 CURVE SMOOTH"
);
},
{
closed = 1;
nodes = (
"165 685 LINE SMOOTH",
"115 685 OFFCURVE",
"119 630 OFFCURVE",
"120 620 CURVE",
"193 614 LINE",
"319 616 LINE",
"348 618 LINE SMOOTH",
"397 621 OFFCURVE",
"391 675 OFFCURVE",
"392 685 CURVE"
);
}
);
width = 410;
},
{
anchors = (
{
name = top;
position = "{167, 675}";
}
);
layerId = "E147A15F-B728-486F-B295-953D9C6EFD33";
paths = (
{
closed = 1;
nodes = (
"191 647 LINE",
"133 647 LINE",
"133 117 LINE SMOOTH",
"133 17 OFFCURVE",
"111 -15 OFFCURVE",
"68 -15 CURVE SMOOTH",
"35 -15 OFFCURVE",
"21 0 OFFCURVE",
"19 27 CURVE",
"-6 29 OFFCURVE",
"-20 14 OFFCURVE",
"-20 -7 CURVE SMOOTH",
"-20 -39 OFFCURVE",
"15 -62 OFFCURVE",
"54 -62 CURVE SMOOTH",
"141 -62 OFFCURVE",
"191 19 OFFCURVE",
"191 128 CURVE SMOOTH"
);
},
{
closed = 1;
nodes = (
"72 675 LINE",
"44 675 OFFCURVE",
"48 646 OFFCURVE",
"49 636 CURVE",
"133 630 LINE",
"191 632 LINE",
"236 635 LINE SMOOTH",
"269 637 OFFCURVE",
"263 665 OFFCURVE",
"264 675 CURVE"
);
}
);
width = 306;
}
);
unicode = 004A;
},
{
glyphname = K;
layers = (
{
anchors = (
{
name = bottom;
position = "{347, 0}";
},
{
name = top;
position = "{350, 685}";
}
);
layerId = "013606A7-00D0-4ED4-9959-28651EF45347";
paths = (
{
closed = 1;
nodes = (
"423 685 LINE SMOOTH",
"373 685 OFFCURVE",
"377 630 OFFCURVE",
"378 620 CURVE",
"443 616 LINE",
"238 348 LINE",
"238 616 LINE",
"267 618 LINE SMOOTH",
"316 621 OFFCURVE",
"310 675 OFFCURVE",
"311 685 CURVE",
"86 685 LINE SMOOTH",
"36 685 OFFCURVE",
"40 630 OFFCURVE",
"41 620 CURVE",
"113 614 LINE",
"113 69 LINE",
"84 67 LINE SMOOTH",
"35 64 OFFCURVE",
"41 10 OFFCURVE",
"40 0 CURVE",
"275 0 LINE SMOOTH",
"325 0 OFFCURVE",
"321 55 OFFCURVE",
"320 65 CURVE",
"238 71 LINE",
"238 242 LINE",
"268 279 LINE",
"462 0 LINE",
"583 0 LINE SMOOTH",
"625 0 OFFCURVE",
"636 52 OFFCURVE",
"628 65 CURVE",
"565 71 LINE",
"349 381 LINE",
"536 616 LINE",
"576 618 LINE SMOOTH",
"621 620 OFFCURVE",
"618 675 OFFCURVE",
"619 685 CURVE"
);
}
);
width = 641;
},
{
anchors = (
{
name = bottom;
position = "{274, 0}";
},
{
name = top;
position = "{304, 675}";
}
);
layerId = "E147A15F-B728-486F-B295-953D9C6EFD33";
paths = (
{
closed = 1;
nodes = (
"395 675 LINE",
"367 675 OFFCURVE",
"371 646 OFFCURVE",
"372 636 CURVE",
"435 630 LINE",
"178 317 LINE",
"179 632 LINE",
"229 635 LINE SMOOTH",
"262 637 OFFCURVE",
"256 665 OFFCURVE",
"257 675 CURVE",
"70 675 LINE SMOOTH",
"42 675 OFFCURVE",
"46 646 OFFCURVE",
"47 636 CURVE",
"120 630 LINE",
"120 43 LINE",
"70 40 LINE SMOOTH",
"37 38 OFFCURVE",
"43 10 OFFCURVE",
"42 0 CURVE",
"229 0 LINE SMOOTH",
"257 0 OFFCURVE",
"253 29 OFFCURVE",
"252 39 CURVE",
"178 45 LINE",
"178 253 LINE",
"231 317 LINE",
"454 0 LINE",
"537 0 LINE SMOOTH",
"565 0 OFFCURVE",
"561 25 OFFCURVE",
"560 35 CURVE",
"499 41 LINE",
"268 361 LINE",
"494 632 LINE",
"533 635 LINE SMOOTH",
"566 637 OFFCURVE",
"560 665 OFFCURVE",
"561 675 CURVE"
);
}
);
width = 590;
}
);
unicode = 004B;
},
{
glyphname = L;
layers = (
{
anchors = (
{
name = bottom;
position = "{284, 0}";
},
{
name = top;
position = "{227, 685}";
}
);
layerId = "013606A7-00D0-4ED4-9959-28651EF45347";
paths = (
{
closed = 1;
nodes = (
"113 658 LINE",
"113 22 LINE",
"238 22 LINE",
"238 655 LINE"
);
},
{
closed = 1;
nodes = (
"534 80 LINE",
"238 71 LINE",
"113 69 LINE",
"84 67 LINE SMOOTH",
"35 64 OFFCURVE",
"41 10 OFFCURVE",
"40 0 CURVE",
"534 0 LINE"
);
},
{
closed = 1;
nodes = (
"449 35 LINE",
"466 0 LINE",
"534 0 LINE",
"534 177 LINE SMOOTH",
"534 221 OFFCURVE",
"480 217 OFFCURVE",
"470 216 CURVE"
);
},
{
closed = 1;
nodes = (
"88 685 LINE SMOOTH",
"38 685 OFFCURVE",
"42 630 OFFCURVE",
"43 620 CURVE",
"114 614 LINE",
"240 616 LINE",
"289 618 LINE SMOOTH",
"338 620 OFFCURVE",
"332 675 OFFCURVE",
"333 685 CURVE"
);
}
);
width = 559;
},
{
anchors = (
{
name = bottom;
position = "{240, 0}";
},
{
name = top;
position = "{194, 675}";
}
);
layerId = "E147A15F-B728-486F-B295-953D9C6EFD33";
paths = (
{
closed = 1;
nodes = (
"120 647 LINE",
"120 0 LINE",
"178 0 LINE",
"178 647 LINE"
);
},
{
closed = 1;
nodes = (
"498 50 LINE",
"178 45 LINE",
"120 43 LINE",
"70 40 LINE SMOOTH",
"37 38 OFFCURVE",
"43 10 OFFCURVE",
"42 0 CURVE",
"475 0 LINE"
);
},
{
closed = 1;
nodes = (
"449 35 LINE",
"456 0 LINE",
"499 0 LINE",
"499 129 LINE SMOOTH",
"499 157 OFFCURVE",
"470 153 OFFCURVE",
"460 152 CURVE"
);
},
{
closed = 1;
nodes = (
"69 677 LINE",
"41 677 OFFCURVE",
"45 648 OFFCURVE",
"46 638 CURVE",
"120 632 LINE",
"178 634 LINE",
"228 637 LINE SMOOTH",
"261 639 OFFCURVE",
"255 667 OFFCURVE",
"256 677 CURVE"
);
}
);
width = 519;
}
);
unicode = 004C;
},
{
glyphname = M;
layers = (
{
layerId = "013606A7-00D0-4ED4-9959-28651EF45347";
paths = (
{
closed = 1;
nodes = (
"607 685 LINE",
"430 229 LINE",
"478 230 LINE",
"277 685 LINE",
"106 685 LINE SMOOTH",
"56 685 OFFCURVE",
"60 630 OFFCURVE",
"61 620 CURVE",
"130 614 LINE",
"94 69 LINE",
"54 67 LINE SMOOTH",
"5 64 OFFCURVE",
"11 10 OFFCURVE",
"10 0 CURVE",
"214 0 LINE SMOOTH",
"264 0 OFFCURVE",
"260 55 OFFCURVE",
"259 65 CURVE",
"178 71 LINE",
"211 592 LINE",
"184 587 LINE",
"400 103 LINE",
"420 99 OFFCURVE",
"444 102 OFFCURVE",
"464 108 CURVE",
"660 595 LINE",
"640 599 LINE",
"679 69 LINE",
"651 67 LINE SMOOTH",
"602 64 OFFCURVE",
"608 10 OFFCURVE",
"607 0 CURVE",
"834 0 LINE SMOOTH",
"884 0 OFFCURVE",
"880 55 OFFCURVE",
"879 65 CURVE",
"806 71 LINE",
"765 614 LINE",
"835 620 LINE",
"836 630 OFFCURVE",
"840 685 OFFCURVE",
"790 685 CURVE SMOOTH"
);
}
);
width = 890;
},
{
layerId = "E147A15F-B728-486F-B295-953D9C6EFD33";
paths = (
{
closed = 1;
nodes = (
"598 677 LINE",
"395 186 LINE",
"415 186 LINE",
"195 677 LINE",
"89 677 LINE SMOOTH",
"61 677 OFFCURVE",
"65 648 OFFCURVE",
"66 638 CURVE",
"138 632 LINE",
"89 43 LINE",
"43 40 LINE SMOOTH",
"10 38 OFFCURVE",
"16 10 OFFCURVE",
"15 0 CURVE",
"190 0 LINE SMOOTH",
"218 0 OFFCURVE",
"214 29 OFFCURVE",
"213 39 CURVE",
"142 45 LINE",
"184 585 LINE",
"171 583 LINE",
"379 125 LINE",
"389 123 OFFCURVE",
"408 125 OFFCURVE",
"418 127 CURVE",
"621 605 LINE",
"606 605 LINE",
"646 43 LINE",
"600 40 LINE SMOOTH",
"567 38 OFFCURVE",
"573 10 OFFCURVE",
"572 0 CURVE",
"747 0 LINE SMOOTH",
"775 0 OFFCURVE",
"771 29 OFFCURVE",
"770 39 CURVE",
"706 47 LINE",
"660 632 LINE",
"730 638 LINE",
"731 648 OFFCURVE",
"735 677 OFFCURVE",
"707 677 CURVE SMOOTH"
);
}
);
width = 786;
}
);
unicode = 004D;
},
{
glyphname = N;
layers = (
{
anchors = (
{
name = bottom;
position = "{353, 0}";
},
{
name = top;
position = "{353, 685}";
}
);
layerId = "013606A7-00D0-4ED4-9959-28651EF45347";
paths = (
{
closed = 1;
nodes = (
"503 685 LINE SMOOTH",
"453 685 OFFCURVE",
"457 630 OFFCURVE",
"458 620 CURVE",
"529 614 LINE",
"529 174 LINE",
"554 183 LINE",
"217 685 LINE",
"86 685 LINE SMOOTH",
"36 685 OFFCURVE",
"40 630 OFFCURVE",
"41 620 CURVE",
"113 614 LINE",
"113 69 LINE",
"84 67 LINE SMOOTH",
"35 64 OFFCURVE",
"41 10 OFFCURVE",
"40 0 CURVE",
"215 0 LINE SMOOTH",
"265 0 OFFCURVE",
"261 55 OFFCURVE",
"260 65 CURVE",
"188 71 LINE",
"188 561 LINE",
"157 552 LINE",
"527 -1 LINE",
"557 -1 OFFCURVE",
"585 4 OFFCURVE",
"604 13 CURVE",
"604 616 LINE",
"633 618 LINE SMOOTH",
"682 621 OFFCURVE",
"676 675 OFFCURVE",
"677 685 CURVE"
);
}
);
width = 694;
},
{
anchors = (
{
name = bottom;
position = "{354, 0}";
},
{
name = top;
position = "{336, 675}";
}
);
layerId = "E147A15F-B728-486F-B295-953D9C6EFD33";
paths = (
{
closed = 1;
nodes = (
"478 675 LINE",
"450 675 OFFCURVE",
"454 646 OFFCURVE",
"455 636 CURVE",
"529 630 LINE",
"529 89 LINE",
"543 93 LINE",
"169 675 LINE",
"70 675 LINE SMOOTH",
"42 675 OFFCURVE",
"46 646 OFFCURVE",
"47 636 CURVE",
"121 630 LINE",
"121 43 LINE",
"70 40 LINE SMOOTH",
"37 38 OFFCURVE",
"43 10 OFFCURVE",
"42 0 CURVE",
"221 0 LINE SMOOTH",
"249 0 OFFCURVE",
"245 29 OFFCURVE",
"244 39 CURVE",
"170 45 LINE",
"170 583 LINE",
"159 579 LINE",
"532 0 LINE",
"549 0 OFFCURVE",
"560 3 OFFCURVE",
"577 11 CURVE",
"577 632 LINE",
"629 635 LINE SMOOTH",
"662 637 OFFCURVE",
"656 665 OFFCURVE",
"657 675 CURVE"
);
}
);
width = 682;
}
);
unicode = 004E;
},
{
glyphname = O;
layers = (
{
anchors = (
{
name = top;
position = "{352, 685}";
}
);
layerId = "013606A7-00D0-4ED4-9959-28651EF45347";
paths = (
{
closed = 1;
nodes = (
"156 700 OFFCURVE",
"35 564 OFFCURVE",
"35 335 CURVE SMOOTH",
"35 115 OFFCURVE",
"143 -15 OFFCURVE",
"327 -15 CURVE SMOOTH",
"533 -15 OFFCURVE",
"654 121 OFFCURVE",
"654 350 CURVE SMOOTH",
"654 570 OFFCURVE",
"545 700 OFFCURVE",
"360 700 CURVE SMOOTH"
);
},
{
closed = 1;
nodes = (
"462 620 OFFCURVE",
"524 523 OFFCURVE",
"524 338 CURVE SMOOTH",
"524 161 OFFCURVE",
"461 67 OFFCURVE",
"340 65 CURVE",
"225 67 OFFCURVE",
"165 164 OFFCURVE",
"165 347 CURVE SMOOTH",
"165 526 OFFCURVE",
"226 620 OFFCURVE",
"344 620 CURVE SMOOTH"
);
}
);
width = 689;
},
{
anchors = (
{
name = top;
position = "{330, 675}";
}
);
layerId = "E147A15F-B728-486F-B295-953D9C6EFD33";
paths = (
{
closed = 1;
nodes = (
"138 690 OFFCURVE",
"35 531 OFFCURVE",
"40 310 CURVE SMOOTH",
"45 110 OFFCURVE",
"140 -15 OFFCURVE",
"298 -15 CURVE SMOOTH",
"496 -15 OFFCURVE",
"592 143 OFFCURVE",
"589 358 CURVE SMOOTH",
"585 642 OFFCURVE",
"424 690 OFFCURVE",
"326 690 CURVE SMOOTH"
);
},
{
closed = 1;
nodes = (
"471 645 OFFCURVE",
"531 507 OFFCURVE",
"531 335 CURVE SMOOTH",
"531 162 OFFCURVE",
"465 32 OFFCURVE",
"314 31 CURVE SMOOTH",
"158 30 OFFCURVE",
"99 168 OFFCURVE",
"99 333 CURVE SMOOTH",
"99 513 OFFCURVE",
"165 643 OFFCURVE",
"315 644 CURVE SMOOTH"
);
}
);
width = 629;
}
);
unicode = 004F;
},
{
glyphname = P;
layers = (
{
layerId = "013606A7-00D0-4ED4-9959-28651EF45347";
paths = (
{
closed = 1;
nodes = (
"79 685 LINE SMOOTH",
"51 685 OFFCURVE",
"39 652 OFFCURVE",
"40 622 CURVE",
"113 616 LINE",
"113 69 LINE",
"84 67 LINE SMOOTH",
"35 64 OFFCURVE",
"41 10 OFFCURVE",
"40 0 CURVE",
"278 0 LINE SMOOTH",
"328 0 OFFCURVE",
"324 55 OFFCURVE",
"323 65 CURVE",
"238 71 LINE",
"238 622 LINE",
"304 624 LINE SMOOTH",
"390 627 OFFCURVE",
"441 575 OFFCURVE",
"441 483 CURVE SMOOTH",
"441 379 OFFCURVE",
"377 317 OFFCURVE",
"270 317 CURVE SMOOTH",
"257 317 OFFCURVE",
"236 317 OFFCURVE",
"223 317 CURVE",
"224 255 LINE",
"239 255 OFFCURVE",
"266 255 OFFCURVE",
"283 255 CURVE SMOOTH",
"465 255 OFFCURVE",
"571 342 OFFCURVE",
"571 490 CURVE SMOOTH",
"571 613 OFFCURVE",
"476 685 OFFCURVE",
"313 685 CURVE SMOOTH"
);
}
);
width = 591;
},
{
layerId = "E147A15F-B728-486F-B295-953D9C6EFD33";
paths = (
{
closed = 1;
nodes = (
"70 677 LINE",
"42 677 OFFCURVE",
"46 648 OFFCURVE",
"47 638 CURVE",
"120 632 LINE",
"120 43 LINE",
"70 40 LINE SMOOTH",
"37 38 OFFCURVE",
"43 10 OFFCURVE",
"42 0 CURVE",
"229 0 LINE SMOOTH",
"257 0 OFFCURVE",
"253 29 OFFCURVE",
"252 39 CURVE",
"178 45 LINE",
"178 634 LINE",
"229 637 LINE SMOOTH",
"389 647 OFFCURVE",
"458 592 OFFCURVE",
"458 477 CURVE SMOOTH",
"458 369 OFFCURVE",
"391 319 OFFCURVE",
"242 319 CURVE SMOOTH",
"219 319 OFFCURVE",
"194 320 OFFCURVE",
"167 323 CURVE",
"168 281 LINE",
"195 278 OFFCURVE",
"224 277 OFFCURVE",
"250 277 CURVE SMOOTH",
"398 277 OFFCURVE",
"520 327 OFFCURVE",
"520 490 CURVE SMOOTH",
"520 591 OFFCURVE",
"448 677 OFFCURVE",
"274 677 CURVE SMOOTH"
);
}
);
width = 540;
}
);
unicode = 0050;
},
{
glyphname = Q;
layers = (
{
components = (
{
name = O;
alignment = -1;
}
);
layerId = "013606A7-00D0-4ED4-9959-28651EF45347";
paths = (
{
closed = 1;
nodes = (
"239 0 LINE",
"319 -47 OFFCURVE",
"475 -141 OFFCURVE",
"562 -141 CURVE SMOOTH",
"613 -141 OFFCURVE",
"651 -110 OFFCURVE",
"651 -74 CURVE SMOOTH",
"651 -53 OFFCURVE",
"648 -44 OFFCURVE",
"643 -38 CURVE",
"626 -49 OFFCURVE",
"602 -54 OFFCURVE",
"592 -54 CURVE SMOOTH",
"538 -54 OFFCURVE",
"386 -14 OFFCURVE",
"293 36 CURVE"
);
}
);
width = 689;
},
{
components = (
{
name = O;
alignment = -1;
}
);
layerId = "E147A15F-B728-486F-B295-953D9C6EFD33";
paths = (
{
closed = 1;
nodes = (
"265 -5 LINE",
"345 -52 OFFCURVE",
"450 -141 OFFCURVE",
"547 -141 CURVE SMOOTH",
"581 -141 OFFCURVE",
"606 -123 OFFCURVE",
"606 -89 CURVE SMOOTH",
"606 -81 OFFCURVE",
"603 -72 OFFCURVE",
"598 -66 CURVE",
"581 -77 OFFCURVE",
"564 -82 OFFCURVE",
"548 -82 CURVE SMOOTH",
"500 -82 OFFCURVE",
"416 -42 OFFCURVE",
"323 8 CURVE"
);
}
);
width = 646;
}
);
unicode = 0051;
},
{
glyphname = R;
layers = (
{
anchors = (
{
name = bottom;
position = "{336, 0}";
},
{
name = top;
position = "{301, 685}";
}
);
layerId = "013606A7-00D0-4ED4-9959-28651EF45347";
paths = (
{
closed = 1;
nodes = (
"79 685 LINE SMOOTH",
"51 685 OFFCURVE",
"39 652 OFFCURVE",
"40 622 CURVE",
"114 616 LINE",
"240 622 LINE",
"300 624 LINE SMOOTH",
"383 627 OFFCURVE",
"427 580 OFFCURVE",
"427 500 CURVE SMOOTH",
"427 412 OFFCURVE",
"375 362 OFFCURVE",
"260 362 CURVE SMOOTH",
"244 362 OFFCURVE",
"222 363 OFFCURVE",
"204 365 CURVE",
"188 303 LINE",
"219 300 OFFCURVE",
"251 300 OFFCURVE",
"279 300 CURVE SMOOTH",
"463 300 OFFCURVE",
"557 383 OFFCURVE",
"557 507 CURVE SMOOTH",
"557 624 OFFCURVE",
"475 685 OFFCURVE",
"309 685 CURVE SMOOTH"
);
},
{
closed = 1;
nodes = (
"235 71 LINE",
"113 69 LINE",
"84 67 LINE SMOOTH",
"35 64 OFFCURVE",
"41 10 OFFCURVE",
"40 0 CURVE",
"277 0 LINE SMOOTH",
"327 0 OFFCURVE",
"323 55 OFFCURVE",
"322 65 CURVE"
);
},
{
closed = 1;
nodes = (
"238 647 LINE",
"113 647 LINE",
"113 0 LINE",
"238 0 LINE"
);
},
{
closed = 1;
nodes = (
"268 332 LINE",
"305 205 OFFCURVE",
"425 -15 OFFCURVE",
"532 -15 CURVE SMOOTH",
"586 -15 OFFCURVE",
"624 24 OFFCURVE",
"630 73 CURVE",
"543 73 OFFCURVE",
"445 174 OFFCURVE",
"367 342 CURVE"
);
}
);
width = 629;
},
{
anchors = (
{
name = bottom;
position = "{270, 0}";
},
{
name = top;
position = "{262, 675}";
}
);
layerId = "E147A15F-B728-486F-B295-953D9C6EFD33";
paths = (
{
closed = 1;
nodes = (
"70 677 LINE",
"41 677 OFFCURVE",
"47 652 OFFCURVE",
"47 638 CURVE",
"121 632 LINE",
"180 634 LINE",
"241 637 LINE SMOOTH",
"338 642 OFFCURVE",
"436 635 OFFCURVE",
"436 500 CURVE SMOOTH",
"436 413 OFFCURVE",
"371 359 OFFCURVE",
"247 359 CURVE SMOOTH",
"224 359 OFFCURVE",
"189 361 OFFCURVE",
"162 363 CURVE",
"159 322 LINE",
"188 319 OFFCURVE",
"226 317 OFFCURVE",
"254 317 CURVE SMOOTH",
"376 317 OFFCURVE",
"497 376 OFFCURVE",
"497 514 CURVE SMOOTH",
"497 600 OFFCURVE",
"453 677 OFFCURVE",
"286 677 CURVE SMOOTH"
);
},
{
closed = 1;
nodes = (
"179 45 LINE",
"120 43 LINE",
"70 40 LINE SMOOTH",
"37 38 OFFCURVE",
"42 10 OFFCURVE",
"42 0 CURVE",
"230 0 LINE SMOOTH",
"255 0 OFFCURVE",
"253 26 OFFCURVE",
"253 39 CURVE"
);
},
{
closed = 1;
nodes = (
"179 647 LINE",
"120 647 LINE",
"120 0 LINE",
"179 0 LINE"
);
},
{
closed = 1;
nodes = (
"252 332 LINE",
"301 186 OFFCURVE",
"423 -15 OFFCURVE",
"509 -15 CURVE SMOOTH",
"532 -15 OFFCURVE",
"549 5 OFFCURVE",
"549 37 CURVE",
"491 37 OFFCURVE",
"390 139 OFFCURVE",
"301 332 CURVE"
);
}
);
width = 563;
}
);
unicode = 0052;
},
{
glyphname = S;
layers = (
{
anchors = (
{
name = bottom;
position = "{270, 0}";
},
{
name = top;
position = "{283, 685}";
}
);
layerId = "013606A7-00D0-4ED4-9959-28651EF45347";
paths = (
{
closed = 1;
nodes = (
"175 700 OFFCURVE",
"55 641 OFFCURVE",
"55 506 CURVE SMOOTH",
"55 386 OFFCURVE",
"149 347 OFFCURVE",
"249 304 CURVE SMOOTH",
"337 266 OFFCURVE",
"400 235 OFFCURVE",
"400 168 CURVE SMOOTH",
"400 108 OFFCURVE",
"348 61 OFFCURVE",
"258 61 CURVE SMOOTH",
"170 61 OFFCURVE",
"131 105 OFFCURVE",
"131 202 CURVE",
"56 202 OFFCURVE",
"25 163 OFFCURVE",
"25 115 CURVE SMOOTH",
"25 22 OFFCURVE",
"139 -15 OFFCURVE",
"241 -15 CURVE SMOOTH",
"405 -15 OFFCURVE",
"504 79 OFFCURVE",
"504 212 CURVE SMOOTH",
"504 316 OFFCURVE",
"444 357 OFFCURVE",
"319 412 CURVE SMOOTH",
"232 451 OFFCURVE",
"159 474 OFFCURVE",
"159 540 CURVE SMOOTH",
"159 592 OFFCURVE",
"204 624 OFFCURVE",
"269 624 CURVE SMOOTH",
"346 624 OFFCURVE",
"380 579 OFFCURVE",
"380 497 CURVE",
"435 489 OFFCURVE",
"473 521 OFFCURVE",
"473 578 CURVE SMOOTH",
"473 669 OFFCURVE",
"375 700 OFFCURVE",
"291 700 CURVE SMOOTH"
);
}
);
width = 533;
},
{
anchors = (
{
name = bottom;
position = "{224, 0}";
},
{
name = top;
position = "{250, 675}";
}
);
layerId = "E147A15F-B728-486F-B295-953D9C6EFD33";
paths = (
{
closed = 1;
nodes = (
"138 687 OFFCURVE",
"51 621 OFFCURVE",
"51 519 CURVE SMOOTH",
"51 419 OFFCURVE",
"145 373 OFFCURVE",
"251 327 CURVE SMOOTH",
"336 290 OFFCURVE",
"401 268 OFFCURVE",
"401 180 CURVE SMOOTH",
"401 90 OFFCURVE",
"334 35 OFFCURVE",
"236 35 CURVE SMOOTH",
"153 35 OFFCURVE",
"90 74 OFFCURVE",
"70 151 CURVE",
"42 151 OFFCURVE",
"25 128 OFFCURVE",
"25 99 CURVE SMOOTH",
"25 30 OFFCURVE",
"124 -15 OFFCURVE",
"221 -15 CURVE SMOOTH",
"368 -15 OFFCURVE",
"461 90 OFFCURVE",
"461 201 CURVE SMOOTH",
"461 301 OFFCURVE",
"385 336 OFFCURVE",
"277 381 CURVE SMOOTH",
"200 413 OFFCURVE",
"111 450 OFFCURVE",
"111 534 CURVE SMOOTH",
"111 605 OFFCURVE",
"173 640 OFFCURVE",
"249 640 CURVE SMOOTH",
"336 640 OFFCURVE",
"374 595 OFFCURVE",
"374 528 CURVE",
"398 528 OFFCURVE",
"429 541 OFFCURVE",
"429 585 CURVE SMOOTH",
"429 669 OFFCURVE",
"313 692 OFFCURVE",
"251 690 CURVE SMOOTH"
);
}
);
width = 486;
}
);
unicode = 0053;
},
{
glyphname = T;
layers = (
{
anchors = (
{
name = bottom;
position = "{324, 0}";
},
{
name = top;
position = "{324, 685}";
}
);
layerId = "013606A7-00D0-4ED4-9959-28651EF45347";
paths = (
{
closed = 1;
nodes = (
"364 72 LINE",
"271 70 LINE",
"216 67 LINE SMOOTH",
"167 64 OFFCURVE",
"173 10 OFFCURVE",
"172 0 CURVE",
"417 0 LINE SMOOTH",
"467 0 OFFCURVE",
"463 55 OFFCURVE",
"462 65 CURVE"
);
},
{
closed = 1;
nodes = (
"94 610 LINE",
"542 610 LINE",
"552 500 LINE",
"574 500 OFFCURVE",
"616 499 OFFCURVE",
"616 544 CURVE SMOOTH",
"616 685 LINE",
"20 685 LINE",
"20 544 LINE SMOOTH",
"20 499 OFFCURVE",
"62 500 OFFCURVE",
"84 500 CURVE"
);
},
{
closed = 1;
nodes = (
"255 53 LINE",
"380 55 LINE",
"380 626 LINE",
"255 626 LINE"
);
}
);
width = 636;
},
{
anchors = (
{
name = bottom;
position = "{290, 0}";
},
{
name = top;
position = "{301, 675}";
}
);
layerId = "E147A15F-B728-486F-B295-953D9C6EFD33";
paths = (
{
closed = 1;
nodes = (
"315 46 LINE",
"285 44 LINE",
"220 40 LINE SMOOTH",
"187 38 OFFCURVE",
"193 10 OFFCURVE",
"192 0 CURVE",
"379 0 LINE SMOOTH",
"407 0 OFFCURVE",
"403 29 OFFCURVE",
"402 39 CURVE"
);
},
{
closed = 1;
nodes = (
"65 630 LINE",
"529 630 LINE",
"535 537 LINE",
"545 536 OFFCURVE",
"574 532 OFFCURVE",
"574 560 CURVE SMOOTH",
"574 675 LINE",
"20 675 LINE",
"20 560 LINE SMOOTH",
"20 532 OFFCURVE",
"49 536 OFFCURVE",
"59 537 CURVE"
);
},
{
closed = 1;
nodes = (
"270 27 LINE",
"328 29 LINE",
"328 646 LINE",
"270 646 LINE"
);
}
);
width = 594;
}
);
unicode = 0054;
},
{
glyphname = U;
layers = (
{
anchors = (
{
name = ogonek;
position = "{620, 10}";
},
{
name = top;
position = "{340, 685}";
}
);
layerId = "013606A7-00D0-4ED4-9959-28651EF45347";
paths = (
{
closed = 1;
nodes = (
"479 685 LINE SMOOTH",
"429 685 OFFCURVE",
"433 630 OFFCURVE",
"434 620 CURVE",
"505 614 LINE",
"506 263 LINE SMOOTH",
"506 121 OFFCURVE",
"446 65 OFFCURVE",
"348 65 CURVE SMOOTH",
"241 65 OFFCURVE",
"208 133 OFFCURVE",
"208 275 CURVE SMOOTH",
"208 616 LINE",
"237 618 LINE SMOOTH",
"286 621 OFFCURVE",
"280 675 OFFCURVE",
"281 685 CURVE",
"56 685 LINE SMOOTH",
"6 685 OFFCURVE",
"10 630 OFFCURVE",
"11 620 CURVE",
"83 614 LINE",
"83 291 LINE SMOOTH",
"83 55 OFFCURVE",
"183 -15 OFFCURVE",
"330 -15 CURVE SMOOTH",
"499 -15 OFFCURVE",
"586 77 OFFCURVE",
"586 290 CURVE SMOOTH",
"586 616 LINE",
"615 618 LINE SMOOTH",
"664 621 OFFCURVE",
"658 675 OFFCURVE",
"659 685 CURVE"
);
}
);
width = 669;
},
{
anchors = (
{
name = ogonek;
position = "{364, -8}";
},
{
name = top;
position = "{322, 675}";
}
);
layerId = "E147A15F-B728-486F-B295-953D9C6EFD33";
paths = (
{
closed = 1;
nodes = (
"442 675 LINE",
"414 675 OFFCURVE",
"418 646 OFFCURVE",
"419 636 CURVE",
"492 630 LINE",
"492 236 LINE SMOOTH",
"492 94 OFFCURVE",
"424 30 OFFCURVE",
"314 30 CURVE SMOOTH",
"222 30 OFFCURVE",
"156 86 OFFCURVE",
"156 237 CURVE SMOOTH",
"157 632 LINE",
"207 635 LINE SMOOTH",
"240 637 OFFCURVE",
"234 665 OFFCURVE",
"235 675 CURVE",
"49 675 LINE SMOOTH",
"21 675 OFFCURVE",
"25 646 OFFCURVE",
"26 636 CURVE",
"99 630 LINE",
"99 228 LINE SMOOTH",
"99 95 OFFCURVE",
"145 -15 OFFCURVE",
"307 -15 CURVE SMOOTH",
"475 -15 OFFCURVE",
"539 95 OFFCURVE",
"539 244 CURVE SMOOTH",
"539 632 LINE",
"587 635 LINE SMOOTH",
"620 637 OFFCURVE",
"614 665 OFFCURVE",
"615 675 CURVE"
);
}
);
width = 640;
}
);
unicode = 0055;
},
{
glyphname = V;
layers = (
{
layerId = "013606A7-00D0-4ED4-9959-28651EF45347";
paths = (
{
closed = 1;
nodes = (
"43 680 LINE",
"265 0 LINE",
"366 0 LINE",
"598 679 LINE",
"509 673 LINE",
"301 33 LINE",
"353 110 LINE",
"183 680 LINE"
);
},
{
closed = 1;
nodes = (
"494 614 LINE",
"575 616 LINE",
"601 618 LINE SMOOTH",
"650 622 OFFCURVE",
"644 675 OFFCURVE",
"645 685 CURVE",
"456 685 LINE SMOOTH",
"407 685 OFFCURVE",
"410 630 OFFCURVE",
"411 620 CURVE"
);
},
{
closed = 1;
nodes = (
"65 614 LINE",
"200 616 LINE",
"232 618 LINE SMOOTH",
"280 621 OFFCURVE",
"275 675 OFFCURVE",
"276 685 CURVE",
"46 685 LINE SMOOTH",
"-4 685 OFFCURVE",
"0 630 OFFCURVE",
"1 620 CURVE"
);
}
);
width = 646;
},
{
layerId = "E147A15F-B728-486F-B295-953D9C6EFD33";
paths = (
{
closed = 1;
nodes = (
"54 646 LINE",
"277 0 LINE",
"319 0 LINE",
"559 649 LINE",
"506 643 LINE",
"284 24 LINE",
"319 41 LINE",
"119 648 LINE"
);
},
{
closed = 1;
nodes = (
"501 630 LINE",
"552 632 LINE",
"572 635 LINE SMOOTH",
"605 640 OFFCURVE",
"599 665 OFFCURVE",
"600 675 CURVE",
"454 675 LINE SMOOTH",
"426 675 OFFCURVE",
"430 646 OFFCURVE",
"431 636 CURVE"
);
},
{
closed = 1;
nodes = (
"60 630 LINE",
"125 632 LINE",
"175 635 LINE SMOOTH",
"208 637 OFFCURVE",
"202 665 OFFCURVE",
"203 675 CURVE",
"29 675 LINE SMOOTH",
"1 675 OFFCURVE",
"5 646 OFFCURVE",
"6 636 CURVE"
);
}
);
width = 605;
}
);
unicode = 0056;
},
{
glyphname = W;
layers = (
{
anchors = (
{
name = top;
position = "{518, 685}";
}
);
layerId = "013606A7-00D0-4ED4-9959-28651EF45347";
paths = (
{
closed = 1;
nodes = (
"799 685 LINE SMOOTH",
"749 685 OFFCURVE",
"753 630 OFFCURVE",
"754 620 CURVE",
"824 614 LINE",
"673 95 LINE",
"702 95 LINE",
"552 616 LINE",
"469 616 LINE",
"300 92 LINE",
"331 91 LINE",
"197 616 LINE",
"225 618 LINE SMOOTH",
"273 622 OFFCURVE",
"268 675 OFFCURVE",
"269 685 CURVE",
"45 685 LINE SMOOTH",
"-4 685 OFFCURVE",
"0 630 OFFCURVE",
"1 620 CURVE",
"59 614 LINE",
"241 0 LINE",
"351 0 LINE",
"505 460 LINE",
"465 461 LINE",
"614 0 LINE",
"720 0 LINE",
"912 616 LINE",
"930 618 LINE SMOOTH",
"979 623 OFFCURVE",
"969 675 OFFCURVE",
"970 685 CURVE"
);
}
);
width = 971;
},
{
anchors = (
{
name = top;
position = "{481, 675}";
}
);
layerId = "E147A15F-B728-486F-B295-953D9C6EFD33";
paths = (
{
closed = 1;
nodes = (
"780 675 LINE",
"752 675 OFFCURVE",
"756 646 OFFCURVE",
"757 636 CURVE",
"831 630 LINE",
"655 71 LINE",
"667 71 LINE",
"505 616 LINE",
"453 616 LINE",
"268 70 LINE",
"283 70 LINE",
"125 632 LINE",
"172 635 LINE SMOOTH",
"205 637 OFFCURVE",
"199 665 OFFCURVE",
"200 675 CURVE",
"29 675 LINE SMOOTH",
"1 675 OFFCURVE",
"5 646 OFFCURVE",
"6 636 CURVE",
"59 630 LINE",
"248 0 LINE",
"291 0 LINE",
"480 536 LINE",
"463 536 LINE",
"632 0 LINE",
"679 0 LINE",
"887 633 LINE",
"905 635 LINE SMOOTH",
"938 638 OFFCURVE",
"932 665 OFFCURVE",
"933 675 CURVE"
);
}
);
width = 938;
}
);
unicode = 0057;
},
{
glyphname = X;
layers = (
{
layerId = "013606A7-00D0-4ED4-9959-28651EF45347";
paths = (
{
closed = 1;
nodes = (
"300 357 LINE",
"75 34 LINE",
"174 30 LINE",
"363 328 LINE"
);
},
{
closed = 1;
nodes = (
"205 655 LINE",
"60 648 LINE",
"477 33 LINE",
"618 47 LINE"
);
},
{
closed = 1;
nodes = (
"511 637 LINE",
"313 335 LINE",
"377 306 LINE",
"610 633 LINE"
);
},
{
closed = 1;
nodes = (
"239 0 LINE SMOOTH",
"289 0 OFFCURVE",
"285 55 OFFCURVE",
"284 65 CURVE",
"201 71 LINE",
"99 69 LINE",
"63 67 LINE SMOOTH",
"14 64 OFFCURVE",
"20 10 OFFCURVE",
"19 0 CURVE"
);
},
{
closed = 1;
nodes = (
"497 614 LINE",
"598 616 LINE",
"634 618 LINE SMOOTH",
"683 621 OFFCURVE",
"677 675 OFFCURVE",
"678 685 CURVE",
"459 685 LINE SMOOTH",
"409 685 OFFCURVE",
"413 630 OFFCURVE",
"414 620 CURVE"
);
},
{
closed = 1;
nodes = (
"601 71 LINE",
"451 69 LINE",
"419 67 LINE SMOOTH",
"371 64 OFFCURVE",
"376 10 OFFCURVE",
"375 0 CURVE",
"631 0 LINE SMOOTH",
"682 0 OFFCURVE",
"677 55 OFFCURVE",
"676 65 CURVE"
);
},
{
closed = 1;
nodes = (
"86 614 LINE",
"233 616 LINE",
"265 618 LINE SMOOTH",
"313 621 OFFCURVE",
"308 675 OFFCURVE",
"309 685 CURVE",
"56 685 LINE SMOOTH",
"6 685 OFFCURVE",
"10 630 OFFCURVE",
"11 620 CURVE"
);
}
);
width = 689;
},
{
layerId = "E147A15F-B728-486F-B295-953D9C6EFD33";
paths = (
{
closed = 1;
nodes = (
"301 378 LINE",
"60 26 LINE",
"117 20 LINE",
"332 349 LINE"
);
},
{
closed = 1;
nodes = (
"127 655 LINE",
"59 648 LINE",
"476 33 LINE",
"555 24 LINE"
);
},
{
closed = 1;
nodes = (
"462 637 LINE",
"281 335 LINE",
"312 306 LINE",
"529 649 LINE"
);
},
{
closed = 1;
nodes = (
"168 0 LINE",
"196 0 OFFCURVE",
"192 29 OFFCURVE",
"191 39 CURVE",
"134 45 LINE",
"72 42 LINE",
"38 40 LINE SMOOTH",
"5 38 OFFCURVE",
"11 10 OFFCURVE",
"10 0 CURVE"
);
},
{
closed = 1;
nodes = (
"465 632 LINE",
"527 635 LINE",
"546 637 LINE SMOOTH",
"579 640 OFFCURVE",
"573 667 OFFCURVE",
"574 677 CURVE",
"425 677 LINE SMOOTH",
"397 677 OFFCURVE",
"401 648 OFFCURVE",
"402 638 CURVE"
);
},
{
closed = 1;
nodes = (
"541 45 LINE",
"469 43 LINE",
"439 40 LINE SMOOTH",
"406 37 OFFCURVE",
"412 10 OFFCURVE",
"411 0 CURVE",
"572 0 LINE SMOOTH",
"600 0 OFFCURVE",
"596 29 OFFCURVE",
"595 39 CURVE"
);
},
{
closed = 1;
nodes = (
"70 632 LINE",
"141 634 LINE",
"175 637 LINE SMOOTH",
"208 640 OFFCURVE",
"202 667 OFFCURVE",
"203 677 CURVE",
"39 677 LINE SMOOTH",
"11 677 OFFCURVE",
"15 648 OFFCURVE",
"16 638 CURVE"
);
}
);
width = 606;
}
);
unicode = 0058;
},
{
glyphname = Y;
layers = (
{
anchors = (
{
name = top;
position = "{334, 685}";
}
);
layerId = "013606A7-00D0-4ED4-9959-28651EF45347";
paths = (
{
closed = 1;
nodes = (
"380 328 LINE",
"255 331 LINE",
"255 0 LINE",
"380 0 LINE"
);
},
{
closed = 1;
nodes = (
"381 71 LINE",
"255 69 LINE",
"226 67 LINE SMOOTH",
"177 64 OFFCURVE",
"183 10 OFFCURVE",
"182 0 CURVE",
"407 0 LINE SMOOTH",
"457 0 OFFCURVE",
"453 55 OFFCURVE",
"452 65 CURVE"
);
},
{
closed = 1;
nodes = (
"36 665 LINE",
"269 260 LINE",
"364 260 LINE",
"601 679 LINE",
"509 673 LINE",
"301 293 LINE",
"366 334 LINE",
"179 673 LINE"
);
},
{
closed = 1;
nodes = (
"482 614 LINE",
"564 616 LINE",
"590 618 LINE SMOOTH",
"639 622 OFFCURVE",
"633 675 OFFCURVE",
"634 685 CURVE",
"444 685 LINE SMOOTH",
"394 685 OFFCURVE",
"398 630 OFFCURVE",
"399 620 CURVE"
);
},
{
closed = 1;
nodes = (
"66 614 LINE",
"212 616 LINE",
"244 618 LINE SMOOTH",
"292 621 OFFCURVE",
"287 675 OFFCURVE",
"288 685 CURVE",
"46 685 LINE SMOOTH",
"-4 685 OFFCURVE",
"0 630 OFFCURVE",
"1 620 CURVE"
);
}
);
width = 635;
},
{
anchors = (
{
name = top;
position = "{299, 675}";
}
);
layerId = "E147A15F-B728-486F-B295-953D9C6EFD33";
paths = (
{
closed = 1;
nodes = (
"324 305 LINE",
"264 305 LINE",
"264 0 LINE",
"324 0 LINE"
);
},
{
closed = 1;
nodes = (
"324 45 LINE",
"264 43 LINE",
"214 40 LINE SMOOTH",
"181 38 OFFCURVE",
"187 10 OFFCURVE",
"186 0 CURVE",
"375 0 LINE SMOOTH",
"403 0 OFFCURVE",
"399 29 OFFCURVE",
"398 39 CURVE"
);
},
{
closed = 1;
nodes = (
"51 648 LINE",
"272 258 LINE",
"316 258 LINE",
"536 651 LINE",
"480 645 LINE",
"285 282 LINE",
"314 299 LINE",
"117 650 LINE"
);
},
{
closed = 1;
nodes = (
"474 632 LINE",
"527 634 LINE",
"547 637 LINE SMOOTH",
"580 642 OFFCURVE",
"574 667 OFFCURVE",
"575 677 CURVE",
"427 677 LINE SMOOTH",
"399 677 OFFCURVE",
"403 648 OFFCURVE",
"404 638 CURVE"
);
},
{
closed = 1;
nodes = (
"60 632 LINE",
"126 634 LINE",
"174 637 LINE SMOOTH",
"207 639 OFFCURVE",
"201 667 OFFCURVE",
"202 677 CURVE",
"29 677 LINE SMOOTH",
"1 677 OFFCURVE",
"5 648 OFFCURVE",
"6 638 CURVE"
);
}
);
width = 580;
}
);
unicode = 0059;
},
{
glyphname = Z;
layers = (
{
anchors = (
{
name = top;
position = "{309, 685}";
}
);
layerId = "013606A7-00D0-4ED4-9959-28651EF45347";
paths = (
{
closed = 1;
nodes = (
"65 685 LINE",
"68 599 LINE",
"495 614 LINE",
"429 664 LINE",
"14 53 LINE",
"17 32 OFFCURVE",
"25 17 OFFCURVE",
"33 0 CURVE",
"556 0 LINE",
"517 90 LINE",
"59 66 LINE",
"156 34 LINE",
"557 636 LINE",
"557 659 OFFCURVE",
"543 676 OFFCURVE",
"530 685 CURVE"
);
},
{
closed = 1;
nodes = (
"556 0 LINE",
"556 224 LINE",
"518 231 OFFCURVE",
"488 224 OFFCURVE",
"481 171 CURVE SMOOTH",
"463 43 LINE"
);
},
{
closed = 1;
nodes = (
"65 464 LINE",
"100 457 OFFCURVE",
"135 464 OFFCURVE",
"142 519 CURVE SMOOTH",
"155 642 LINE",
"65 685 LINE"
);
}
);
width = 590;
},
{
anchors = (
{
name = top;
position = "{286, 675}";
}
);
layerId = "E147A15F-B728-486F-B295-953D9C6EFD33";
paths = (
{
closed = 1;
nodes = (
"67 685 LINE",
"70 628 LINE",
"436 639 LINE",
"426 664 LINE",
"23 21 LINE",
"26 14 OFFCURVE",
"28 7 OFFCURVE",
"33 0 CURVE",
"490 0 LINE",
"465 55 LINE",
"51 43 LINE",
"99 38 LINE",
"491 664 LINE",
"488 671 OFFCURVE",
"485 678 OFFCURVE",
"481 685 CURVE"
);
},
{
closed = 1;
nodes = (
"490 0 LINE",
"490 184 LINE",
"475 187 OFFCURVE",
"454 182 OFFCURVE",
"450 153 CURVE SMOOTH",
"436 43 LINE"
);
},
{
closed = 1;
nodes = (
"67 507 LINE",
"81 504 OFFCURVE",
"102 509 OFFCURVE",
"106 538 CURVE SMOOTH",
"121 642 LINE",
"67 685 LINE"
);
}
);
width = 518;
}
);
unicode = 005A;
},
{
glyphname = bracketleft;
layers = (
{
layerId = "013606A7-00D0-4ED4-9959-28651EF45347";
paths = (
{
closed = 1;
nodes = (
"176 669 LINE",
"253 669 LINE",
"253 734 LINE",
"80 734 LINE",
"80 -155 LINE",
"253 -155 LINE",
"253 -90 LINE",
"176 -90 LINE"
);
}
);
width = 283;
},
{
layerId = "E147A15F-B728-486F-B295-953D9C6EFD33";
paths = (
{
closed = 1;
nodes = (
"114 645 LINE",
"198 645 LINE",
"198 685 LINE",
"60 685 LINE",
"60 -180 LINE",
"198 -180 LINE",
"198 -140 LINE",
"114 -140 LINE"
);
}
);
width = 208;
}
);
unicode = 005B;
},
{
glyphname = asciicircum;
layers = (
{
layerId = "013606A7-00D0-4ED4-9959-28651EF45347";
paths = (
{
closed = 1;
nodes = (
"293 653 LINE",
"235 653 LINE",
"60 204 LINE",
"166 204 LINE",
"281 506 LINE",
"242 506 LINE",
"352 204 LINE",
"458 204 LINE"
);
}
);
width = 518;
},
{
layerId = "E147A15F-B728-486F-B295-953D9C6EFD33";
paths = (
{
closed = 1;
nodes = (
"263 653 LINE",
"225 653 LINE",
"50 204 LINE",
"106 204 LINE",
"263 615 LINE",
"225 615 LINE",
"374 204 LINE",
"428 204 LINE"
);
}
);
width = 478;
}
);
unicode = 005E;
},
{
glyphname = underscore;
layers = (
{
layerId = "013606A7-00D0-4ED4-9959-28651EF45347";
paths = (
{
closed = 1;
nodes = (
"-30 -70 LINE",
"-30 -145 LINE",
"430 -145 LINE",
"430 -70 LINE"
);
}
);
width = 400;
},
{
layerId = "E147A15F-B728-486F-B295-953D9C6EFD33";
paths = (
{
closed = 1;
nodes = (
"-40 -89 LINE",
"-40 -139 LINE",
"420 -139 LINE",
"420 -89 LINE"
);
}
);
width = 380;
}
);
unicode = 005F;
},
{
glyphname = acute;
layers = (
{
anchors = (
{
name = _top;
position = "{240, 505}";
}
);
layerId = "013606A7-00D0-4ED4-9959-28651EF45347";
paths = (
{
closed = 1;
nodes = (
"407 662 LINE",
"397 683 OFFCURVE",
"359 723 OFFCURVE",
"325 730 CURVE",
"158 593 LINE",
"164 579 OFFCURVE",
"176 564 OFFCURVE",
"200 552 CURVE"
);
}
);
width = 600;
},
{
anchors = (
{
name = _top;
position = "{265, 485}";
}
);
layerId = "E147A15F-B728-486F-B295-953D9C6EFD33";
paths = (
{
closed = 1;
nodes = (
"408 635 LINE",
"397 657 OFFCURVE",
"373 678 OFFCURVE",
"350 679 CURVE",
"186 555 LINE",
"192 545 OFFCURVE",
"200 535 OFFCURVE",
"212 529 CURVE"
);
}
);
width = 600;
}
);
unicode = 00B4;
},
{
glyphname = a;
layers = (
{
anchors = (
{
name = ogonek;
position = "{428, -21}";
},
{
name = top;
position = "{248, 505}";
}
);
layerId = "013606A7-00D0-4ED4-9959-28651EF45347";
paths = (
{
closed = 1;
nodes = (
"133 520 OFFCURVE",
"61 473 OFFCURVE",
"61 410 CURVE SMOOTH",
"61 363 OFFCURVE",
"103 342 OFFCURVE",
"154 347 CURVE",
"154 408 OFFCURVE",
"194 440 OFFCURVE",
"233 440 CURVE SMOOTH",
"292 440 OFFCURVE",
"324 409 OFFCURVE",
"324 313 CURVE SMOOTH",
"324 83 LINE SMOOTH",
"324 32 OFFCURVE",
"347 -15 OFFCURVE",
"428 -15 CURVE SMOOTH",
"496 -15 OFFCURVE",
"511 17 OFFCURVE",
"511 45 CURVE",
"446 53 LINE",
"446 320 LINE SMOOTH",
"446 462 OFFCURVE",
"365 520 OFFCURVE",
"240 520 CURVE SMOOTH"
);
},
{
closed = 1;
nodes = (
"85 275 OFFCURVE",
"30 205 OFFCURVE",
"30 124 CURVE SMOOTH",
"30 37 OFFCURVE",
"95 -15 OFFCURVE",
"186 -15 CURVE SMOOTH",
"272 -15 OFFCURVE",
"337 27 OFFCURVE",
"387 95 CURVE",
"382 144 LINE",
"337 100 OFFCURVE",
"296 66 OFFCURVE",
"229 66 CURVE SMOOTH",
"182 66 OFFCURVE",
"157 91 OFFCURVE",
"157 132 CURVE SMOOTH",
"157 186 OFFCURVE",
"201 207 OFFCURVE",
"247 207 CURVE SMOOTH",
"308 207 OFFCURVE",
"371 184 OFFCURVE",
"410 133 CURVE",
"404 243 LINE",
"366 265 OFFCURVE",
"305 275 OFFCURVE",
"242 275 CURVE SMOOTH"
);
}
);
width = 521;
},
{
anchors = (
{
name = ogonek;
position = "{421, -10}";
},
{
name = top;
position = "{229, 485}";
}
);
layerId = "E147A15F-B728-486F-B295-953D9C6EFD33";
paths = (
{
closed = 1;
nodes = (
"140 500 OFFCURVE",
"79 457 OFFCURVE",
"79 403 CURVE SMOOTH",
"79 365 OFFCURVE",
"102 355 OFFCURVE",
"125 357 CURVE",
"129 391 OFFCURVE",
"143 456 OFFCURVE",
"237 456 CURVE SMOOTH",
"318 456 OFFCURVE",
"355 396 OFFCURVE",
"355 331 CURVE SMOOTH",
"355 75 LINE SMOOTH",
"355 23 OFFCURVE",
"369 -16 OFFCURVE",
"422 -16 CURVE SMOOTH",
"446 -16 OFFCURVE",
"477 -8 OFFCURVE",
"477 27 CURVE",
"410 35 LINE",
"410 334 LINE SMOOTH",
"410 487 OFFCURVE",
"280 500 OFFCURVE",
"231 500 CURVE SMOOTH"
);
},
{
closed = 1;
nodes = (
"87 258 OFFCURVE",
"50 179 OFFCURVE",
"50 118 CURVE SMOOTH",
"50 34 OFFCURVE",
"106 -15 OFFCURVE",
"199 -15 CURVE SMOOTH",
"282 -15 OFFCURVE",
"347 33 OFFCURVE",
"370 69 CURVE",
"365 108 LINE",
"330 64 OFFCURVE",
"272 33 OFFCURVE",
"214 33 CURVE SMOOTH",
"152 33 OFFCURVE",
"114 68 OFFCURVE",
"114 128 CURVE SMOOTH",
"114 175 OFFCURVE",
"147 215 OFFCURVE",
"234 215 CURVE SMOOTH",
"318 215 OFFCURVE",
"369 180 OFFCURVE",
"379 165 CURVE",
"379 233 LINE",
"348 247 OFFCURVE",
"298 258 OFFCURVE",
"240 258 CURVE SMOOTH"
);
}
);
width = 497;
}
);
unicode = 0061;
},
{
glyphname = b;
layers = (
{
layerId = "013606A7-00D0-4ED4-9959-28651EF45347";
paths = (
{
closed = 1;
nodes = (
"255 520 OFFCURVE",
"207 471 OFFCURVE",
"155 416 CURVE",
"166 345 LINE",
"221 404 OFFCURVE",
"256 433 OFFCURVE",
"308 433 CURVE SMOOTH",
"387 433 OFFCURVE",
"425 365 OFFCURVE",
"425 253 CURVE SMOOTH",
"425 163 OFFCURVE",
"406 66 OFFCURVE",
"312 66 CURVE SMOOTH",
"254 66 OFFCURVE",
"205 104 OFFCURVE",
"187 129 CURVE",
"160 29 LINE",
"202 2 OFFCURVE",
"238 -15 OFFCURVE",
"304 -15 CURVE SMOOTH",
"474 -15 OFFCURVE",
"554 112 OFFCURVE",
"552 276 CURVE SMOOTH",
"549 460 OFFCURVE",
"445 520 OFFCURVE",
"349 520 CURVE SMOOTH"
);
},
{
closed = 1;
nodes = (
"209 715 LINE",
"11 693 LINE",
"10 680 OFFCURVE",
"10 635 OFFCURVE",
"48 631 CURVE SMOOTH",
"87 627 LINE",
"87 40 LINE",
"209 2 LINE"
);
}
);
width = 587;
},
{
layerId = "E147A15F-B728-486F-B295-953D9C6EFD33";
paths = (
{
closed = 1;
nodes = (
"217 500 OFFCURVE",
"154 434 OFFCURVE",
"121 393 CURVE",
"128 366 LINE",
"186 413 OFFCURVE",
"224 448 OFFCURVE",
"290 448 CURVE SMOOTH",
"402 448 OFFCURVE",
"443 349 OFFCURVE",
"443 244 CURVE SMOOTH",
"443 133 OFFCURVE",
"398 32 OFFCURVE",
"286 32 CURVE SMOOTH",
"207 32 OFFCURVE",
"152 76 OFFCURVE",
"142 90 CURVE",
"116 29 LINE",
"164 4 OFFCURVE",
"205 -15 OFFCURVE",
"268 -15 CURVE SMOOTH",
"418 -15 OFFCURVE",
"507 92 OFFCURVE",
"503 261 CURVE SMOOTH",
"499 422 OFFCURVE",
"412 500 OFFCURVE",
"311 500 CURVE SMOOTH"
);
},
{
closed = 1;
nodes = (
"147 694 LINE",
"16 676 LINE",
"16 663 OFFCURVE",
"15 640 OFFCURVE",
"36 638 CURVE SMOOTH",
"92 632 LINE",
"92 36 LINE",
"147 14 LINE"
);
}
);
width = 543;
}
);
unicode = 0062;
},
{
glyphname = c;
layers = (
{
anchors = (
{
name = bottom;
position = "{231, 0}";
},
{
name = top;
position = "{273, 505}";
}
);
layerId = "013606A7-00D0-4ED4-9959-28651EF45347";
paths = (
{
closed = 1;
nodes = (
"135 520 OFFCURVE",
"35 414 OFFCURVE",
"35 241 CURVE SMOOTH",
"35 83 OFFCURVE",
"120 -15 OFFCURVE",
"262 -15 CURVE SMOOTH",
"370 -15 OFFCURVE",
"455 46 OFFCURVE",
"455 85 CURVE SMOOTH",
"455 96 OFFCURVE",
"447 120 OFFCURVE",
"433 129 CURVE",
"398 98 OFFCURVE",
"357 75 OFFCURVE",
"305 75 CURVE SMOOTH",
"195 75 OFFCURVE",
"162 158 OFFCURVE",
"162 261 CURVE SMOOTH",
"162 372 OFFCURVE",
"200 438 OFFCURVE",
"270 438 CURVE SMOOTH",
"335 438 OFFCURVE",
"359 380 OFFCURVE",
"360 331 CURVE",
"394 327 OFFCURVE",
"447 345 OFFCURVE",
"447 407 CURVE SMOOTH",
"447 478 OFFCURVE",
"378 520 OFFCURVE",
"284 520 CURVE SMOOTH"
);
}
);
width = 472;
},
{
anchors = (
{
name = bottom;
position = "{231, 0}";
},
{
name = top;
position = "{259, 485}";
}
);
layerId = "E147A15F-B728-486F-B295-953D9C6EFD33";
paths = (
{
closed = 1;
nodes = (
"118 500 OFFCURVE",
"38 374 OFFCURVE",
"40 219 CURVE SMOOTH",
"42 87 OFFCURVE",
"106 -15 OFFCURVE",
"233 -15 CURVE SMOOTH",
"316 -15 OFFCURVE",
"408 28 OFFCURVE",
"408 68 CURVE SMOOTH",
"408 76 OFFCURVE",
"405 82 OFFCURVE",
"398 87 CURVE",
"351 50 OFFCURVE",
"306 34 OFFCURVE",
"258 34 CURVE SMOOTH",
"133 34 OFFCURVE",
"100 142 OFFCURVE",
"100 237 CURVE SMOOTH",
"100 350 OFFCURVE",
"149 453 OFFCURVE",
"256 453 CURVE SMOOTH",
"329 453 OFFCURVE",
"356 404 OFFCURVE",
"357 363 CURVE",
"384 363 OFFCURVE",
"405 373 OFFCURVE",
"405 409 CURVE SMOOTH",
"405 462 OFFCURVE",
"356 500 OFFCURVE",
"272 500 CURVE SMOOTH"
);
}
);
width = 447;
}
);
unicode = 0063;
},
{
glyphname = d;
layers = (
{
layerId = "013606A7-00D0-4ED4-9959-28651EF45347";
paths = (
{
closed = 1;
nodes = (
"500 715 LINE",
"302 693 LINE",
"301 680 OFFCURVE",
"301 635 OFFCURVE",
"339 631 CURVE SMOOTH",
"378 627 LINE",
"378 64 LINE SMOOTH",
"378 23 OFFCURVE",
"405 -16 OFFCURVE",
"482 -16 CURVE SMOOTH",
"552 -16 OFFCURVE",
"567 16 OFFCURVE",
"567 48 CURVE",
"500 54 LINE"
);
},
{
closed = 1;
nodes = (
"427 476 LINE",
"385 503 OFFCURVE",
"349 520 OFFCURVE",
"283 520 CURVE SMOOTH",
"113 520 OFFCURVE",
"33 393 OFFCURVE",
"35 229 CURVE SMOOTH",
"38 45 OFFCURVE",
"142 -15 OFFCURVE",
"238 -15 CURVE SMOOTH",
"332 -15 OFFCURVE",
"380 34 OFFCURVE",
"432 89 CURVE",
"421 160 LINE",
"366 101 OFFCURVE",
"331 72 OFFCURVE",
"279 72 CURVE SMOOTH",
"200 72 OFFCURVE",
"162 140 OFFCURVE",
"162 252 CURVE SMOOTH",
"162 342 OFFCURVE",
"181 439 OFFCURVE",
"275 439 CURVE SMOOTH",
"333 439 OFFCURVE",
"382 401 OFFCURVE",
"400 376 CURVE"
);
}
);
width = 577;
},
{
layerId = "E147A15F-B728-486F-B295-953D9C6EFD33";
paths = (
{
closed = 1;
nodes = (
"452 694 LINE",
"321 676 LINE",
"321 663 OFFCURVE",
"320 640 OFFCURVE",
"341 638 CURVE SMOOTH",
"397 632 LINE",
"397 76 LINE SMOOTH",
"397 26 OFFCURVE",
"412 -15 OFFCURVE",
"461 -15 CURVE SMOOTH",
"493 -15 OFFCURVE",
"514 0 OFFCURVE",
"515 28 CURVE",
"452 36 LINE"
);
},
{
closed = 1;
nodes = (
"428 456 LINE",
"380 481 OFFCURVE",
"339 500 OFFCURVE",
"276 500 CURVE SMOOTH",
"126 500 OFFCURVE",
"36 394 OFFCURVE",
"40 225 CURVE SMOOTH",
"44 64 OFFCURVE",
"132 -15 OFFCURVE",
"233 -15 CURVE SMOOTH",
"327 -15 OFFCURVE",
"390 52 OFFCURVE",
"423 93 CURVE",
"416 120 LINE",
"358 73 OFFCURVE",
"320 37 OFFCURVE",
"254 37 CURVE SMOOTH",
"142 37 OFFCURVE",
"100 137 OFFCURVE",
"100 242 CURVE SMOOTH",
"100 353 OFFCURVE",
"146 453 OFFCURVE",
"258 453 CURVE SMOOTH",
"337 453 OFFCURVE",
"392 409 OFFCURVE",
"402 395 CURVE"
);
}
);
width = 535;
}
);
unicode = 0064;
},
{
glyphname = e;
layers = (
{
anchors = (
{
name = ogonek;
position = "{356, 3}";
},
{
name = top;
position = "{277, 505}";
}
);
layerId = "013606A7-00D0-4ED4-9959-28651EF45347";
paths = (
{
closed = 1;
nodes = (
"130 520 OFFCURVE",
"35 421 OFFCURVE",
"35 230 CURVE SMOOTH",
"35 72 OFFCURVE",
"118 -15 OFFCURVE",
"262 -15 CURVE SMOOTH",
"381 -15 OFFCURVE",
"456 45 OFFCURVE",
"456 85 CURVE SMOOTH",
"456 99 OFFCURVE",
"447 121 OFFCURVE",
"436 129 CURVE",
"413 111 OFFCURVE",
"368 74 OFFCURVE",
"295 74 CURVE SMOOTH",
"191 74 OFFCURVE",
"162 132 OFFCURVE",
"162 234 CURVE SMOOTH",
"162 377 OFFCURVE",
"198 440 OFFCURVE",
"266 440 CURVE SMOOTH",
"325 440 OFFCURVE",
"357 394 OFFCURVE",
"348 254 CURVE",
"403 314 LINE",
"104 314 LINE",
"98 245 LINE",
"466 245 LINE",
"466 302 LINE",
"468 425 OFFCURVE",
"410 520 OFFCURVE",
"277 520 CURVE SMOOTH"
);
}
);
width = 497;
},
{
anchors = (
{
name = ogonek;
position = "{356, 3}";
},
{
name = top;
position = "{277, 505}";
}
);
layerId = "E147A15F-B728-486F-B295-953D9C6EFD33";
paths = (
{
closed = 1;
nodes = (
"150 500 OFFCURVE",
"40 407 OFFCURVE",
"40 223 CURVE SMOOTH",
"40 61 OFFCURVE",
"126 -15 OFFCURVE",
"238 -15 CURVE SMOOTH",
"328 -15 OFFCURVE",
"410 34 OFFCURVE",
"410 67 CURVE SMOOTH",
"410 74 OFFCURVE",
"407 82 OFFCURVE",
"400 87 CURVE",
"355 51 OFFCURVE",
"312 34 OFFCURVE",
"261 34 CURVE SMOOTH",
"142 34 OFFCURVE",
"102 130 OFFCURVE",
"102 232 CURVE SMOOTH",
"102 361 OFFCURVE",
"165 458 OFFCURVE",
"252 458 CURVE SMOOTH",
"331 458 OFFCURVE",
"366 377 OFFCURVE",
"358 287 CURVE",
"385 307 LINE",
"74 307 LINE",
"77 268 LINE",
"421 268 LINE",
"421 314 LINE SMOOTH",
"421 397 OFFCURVE",
"384 500 OFFCURVE",
"264 500 CURVE SMOOTH"
);
}
);
width = 452;
}
);
unicode = 0065;
},
{
glyphname = f;
layers = (
{
layerId = "013606A7-00D0-4ED4-9959-28651EF45347";
paths = (
{
closed = 1;
nodes = (
"180 728 OFFCURVE",
"104 642 OFFCURVE",
"104 532 CURVE SMOOTH",
"103 0 LINE",
"225 0 LINE",
"225 536 LINE SMOOTH",
"225 634 OFFCURVE",
"250 660 OFFCURVE",
"280 660 CURVE SMOOTH",
"307 660 OFFCURVE",
"329 643 OFFCURVE",
"329 596 CURVE",
"371 596 OFFCURVE",
"408 614 OFFCURVE",
"408 662 CURVE SMOOTH",
"408 712 OFFCURVE",
"363 731 OFFCURVE",
"296 730 CURVE SMOOTH"
);
},
{
closed = 1;
nodes = (
"226 71 LINE",
"103 69 LINE",
"74 67 LINE SMOOTH",
"25 64 OFFCURVE",
"31 10 OFFCURVE",
"30 0 CURVE",
"282 0 LINE SMOOTH",
"332 0 OFFCURVE",
"328 55 OFFCURVE",
"327 65 CURVE"
);
},
{
closed = 1;
nodes = (
"81 505 LINE SMOOTH",
"39 505 OFFCURVE",
"32 467 OFFCURVE",
"32 435 CURVE",
"307 435 LINE SMOOTH",
"358 435 OFFCURVE",
"355 492 OFFCURVE",
"354 505 CURVE"
);
}
);
width = 394;
},
{
layerId = "E147A15F-B728-486F-B295-953D9C6EFD33";
paths = (
{
closed = 1;
nodes = (
"168 709 OFFCURVE",
"122 644 OFFCURVE",
"122 525 CURVE SMOOTH",
"122 0 LINE",
"177 0 LINE",
"177 553 LINE SMOOTH",
"177 634 OFFCURVE",
"197 669 OFFCURVE",
"242 669 CURVE SMOOTH",
"268 669 OFFCURVE",
"291 651 OFFCURVE",
"293 619 CURVE",
"316 619 OFFCURVE",
"332 634 OFFCURVE",
"332 658 CURVE SMOOTH",
"332 694 OFFCURVE",
"294 709 OFFCURVE",
"257 709 CURVE SMOOTH"
);
},
{
closed = 1;
nodes = (
"173 41 LINE",
"122 39 LINE",
"77 36 LINE SMOOTH",
"44 34 OFFCURVE",
"50 10 OFFCURVE",
"49 0 CURVE",
"251 0 LINE SMOOTH",
"279 0 OFFCURVE",
"274 20 OFFCURVE",
"274 35 CURVE"
);
},
{
closed = 1;
nodes = (
"74 485 LINE",
"45 485 OFFCURVE",
"51 459 OFFCURVE",
"51 445 CURVE",
"274 445 LINE SMOOTH",
"297 445 OFFCURVE",
"299 472 OFFCURVE",
"298 485 CURVE"
);
}
);
width = 302;
}
);
unicode = 0066;
},
{
glyphname = g;
layers = (
{
anchors = (
{
name = top;
position = "{231, 505}";
}
);
layerId = "013606A7-00D0-4ED4-9959-28651EF45347";
paths = (
{
closed = 1;
nodes = (
"425 466 OFFCURVE",
"331 520 OFFCURVE",
"232 520 CURVE SMOOTH",
"109 520 OFFCURVE",
"35 436 OFFCURVE",
"35 328 CURVE SMOOTH",
"35 219 OFFCURVE",
"110 146 OFFCURVE",
"222 146 CURVE SMOOTH",
"335 146 OFFCURVE",
"412 221 OFFCURVE",
"418 335 CURVE SMOOTH"
);
},
{
closed = 1;
nodes = (
"179 219 OFFCURVE",
"149 252 OFFCURVE",
"149 330 CURVE SMOOTH",
"149 400 OFFCURVE",
"174 444 OFFCURVE",
"225 444 CURVE SMOOTH",
"275 444 OFFCURVE",
"302 402 OFFCURVE",
"302 332 CURVE SMOOTH",
"302 259 OFFCURVE",
"272 219 OFFCURVE",
"224 219 CURVE SMOOTH"
);
},
{
closed = 1;
nodes = (
"136 201 LINE",
"94 160 OFFCURVE",
"62 113 OFFCURVE",
"62 65 CURVE SMOOTH",
"62 -14 OFFCURVE",
"138 -17 OFFCURVE",
"234 -21 CURVE SMOOTH",
"327 -25 OFFCURVE",
"386 -28 OFFCURVE",
"386 -62 CURVE SMOOTH",
"386 -108 OFFCURVE",
"323 -144 OFFCURVE",
"235 -144 CURVE SMOOTH",
"148 -144 OFFCURVE",
"108 -113 OFFCURVE",
"108 -71 CURVE SMOOTH",
"108 -18 OFFCURVE",
"172 28 OFFCURVE",
"224 64 CURVE",
"186 80 LINE",
"120 60 OFFCURVE",
"19 -7 OFFCURVE",
"19 -98 CURVE SMOOTH",
"19 -172 OFFCURVE",
"85 -233 OFFCURVE",
"218 -233 CURVE SMOOTH",
"363 -233 OFFCURVE",
"471 -155 OFFCURVE",
"471 -31 CURVE SMOOTH",
"471 62 OFFCURVE",
"403 90 OFFCURVE",
"275 95 CURVE SMOOTH",
"187 98 OFFCURVE",
"158 100 OFFCURVE",
"158 115 CURVE SMOOTH",
"158 125 OFFCURVE",
"171 158 OFFCURVE",
"195 184 CURVE"
);
},
{
closed = 1;
nodes = (
"329 494 LINE",
"351 446 LINE",
"358 448 OFFCURVE",
"448 439 OFFCURVE",
"470 451 CURVE",
"486 463 OFFCURVE",
"481 518 OFFCURVE",
"470 532 CURVE"
);
}
);
width = 483;
},
{
anchors = (
{
name = top;
position = "{230, 485}";
}
);
layerId = "E147A15F-B728-486F-B295-953D9C6EFD33";
paths = (
{
closed = 1;
nodes = (
"383 455 OFFCURVE",
"298 500 OFFCURVE",
"219 500 CURVE SMOOTH",
"102 500 OFFCURVE",
"34 403 OFFCURVE",
"42 301 CURVE SMOOTH",
"49 216 OFFCURVE",
"107 155 OFFCURVE",
"207 155 CURVE SMOOTH",
"324 155 OFFCURVE",
"379 238 OFFCURVE",
"381 334 CURVE SMOOTH"
);
},
{
closed = 1;
nodes = (
"135 193 OFFCURVE",
"98 264 OFFCURVE",
"98 328 CURVE SMOOTH",
"98 397 OFFCURVE",
"141 458 OFFCURVE",
"212 460 CURVE SMOOTH",
"290 463 OFFCURVE",
"325 393 OFFCURVE",
"325 330 CURVE SMOOTH",
"325 263 OFFCURVE",
"285 195 OFFCURVE",
"211 194 CURVE SMOOTH"
);
},
{
closed = 1;
nodes = (
"151 196 LINE",
"112 160 OFFCURVE",
"75 127 OFFCURVE",
"75 90 CURVE SMOOTH",
"75 43 OFFCURVE",
"132 41 OFFCURVE",
"210 39 CURVE SMOOTH",
"322 36 OFFCURVE",
"403 28 OFFCURVE",
"403 -47 CURVE SMOOTH",
"403 -110 OFFCURVE",
"346 -172 OFFCURVE",
"226 -172 CURVE SMOOTH",
"139 -172 OFFCURVE",
"69 -140 OFFCURVE",
"69 -74 CURVE SMOOTH",
"69 -20 OFFCURVE",
"115 47 OFFCURVE",
"175 63 CURVE",
"171 81 LINE",
"97 62 OFFCURVE",
"18 -8 OFFCURVE",
"18 -90 CURVE SMOOTH",
"18 -167 OFFCURVE",
"89 -224 OFFCURVE",
"213 -224 CURVE SMOOTH",
"360 -224 OFFCURVE",
"446 -144 OFFCURVE",
"446 -32 CURVE SMOOTH",
"446 66 OFFCURVE",
"380 91 OFFCURVE",
"215 94 CURVE SMOOTH",
"181 95 OFFCURVE",
"136 94 OFFCURVE",
"132 109 CURVE SMOOTH",
"129 120 OFFCURVE",
"145 143 OFFCURVE",
"184 181 CURVE"
);
},
{
closed = 1;
nodes = (
"291 463 LINE",
"313 445 LINE",
"320 447 OFFCURVE",
"415 438 OFFCURVE",
"437 450 CURVE",
"453 462 OFFCURVE",
"448 487 OFFCURVE",
"437 501 CURVE"
);
}
);
width = 458;
}
);
unicode = 0067;
},
{
glyphname = h;
layers = (
{
anchors = (
{
name = top;
position = "{327, 505}";
}
);
layerId = "013606A7-00D0-4ED4-9959-28651EF45347";
paths = (
{
closed = 1;
nodes = (
"305 520 OFFCURVE",
"261 487 OFFCURVE",
"222 453 CURVE",
"229 374 LINE",
"263 403 OFFCURVE",
"292 420 OFFCURVE",
"340 420 CURVE SMOOTH",
"402 420 OFFCURVE",
"437 397 OFFCURVE",
"437 315 CURVE SMOOTH",
"437 0 LINE",
"559 0 LINE",
"559 310 LINE SMOOTH",
"559 463 OFFCURVE",
"466 520 OFFCURVE",
"375 520 CURVE SMOOTH"
);
},
{
closed = 1;
nodes = (
"229 71 LINE",
"107 69 LINE",
"76 67 LINE SMOOTH",
"27 64 OFFCURVE",
"33 10 OFFCURVE",
"32 0 CURVE",
"255 0 LINE SMOOTH",
"305 0 OFFCURVE",
"301 55 OFFCURVE",
"300 65 CURVE"
);
},
{
closed = 1;
nodes = (
"229 714 LINE",
"31 692 LINE",
"30 679 OFFCURVE",
"30 634 OFFCURVE",
"68 630 CURVE SMOOTH",
"107 626 LINE",
"107 0 LINE",
"229 0 LINE"
);
},
{
closed = 1;
nodes = (
"559 71 LINE",
"437 69 LINE",
"408 67 LINE SMOOTH",
"359 64 OFFCURVE",
"365 10 OFFCURVE",
"364 0 CURVE",
"585 0 LINE SMOOTH",
"635 0 OFFCURVE",
"631 55 OFFCURVE",
"630 65 CURVE"
);
}
);
width = 649;
},
{
anchors = (
{
name = top;
position = "{313, 485}";
}
);
layerId = "E147A15F-B728-486F-B295-953D9C6EFD33";
paths = (
{
closed = 1;
nodes = (
"229 500 OFFCURVE",
"181 429 OFFCURVE",
"146 388 CURVE",
"153 354 LINE",
"209 408 OFFCURVE",
"251 448 OFFCURVE",
"329 448 CURVE SMOOTH",
"406 448 OFFCURVE",
"453 395 OFFCURVE",
"453 291 CURVE SMOOTH",
"453 0 LINE",
"508 0 LINE",
"507 300 LINE SMOOTH",
"506 453 OFFCURVE",
"416 500 OFFCURVE",
"340 500 CURVE SMOOTH"
);
},
{
closed = 1;
nodes = (
"176 41 LINE",
"125 39 LINE",
"80 36 LINE SMOOTH",
"47 34 OFFCURVE",
"53 10 OFFCURVE",
"52 0 CURVE",
"234 0 LINE SMOOTH",
"262 0 OFFCURVE",
"258 25 OFFCURVE",
"257 35 CURVE"
);
},
{
closed = 1;
nodes = (
"180 694 LINE",
"49 676 LINE",
"49 663 OFFCURVE",
"48 640 OFFCURVE",
"69 638 CURVE SMOOTH",
"125 632 LINE",
"125 0 LINE",
"180 0 LINE"
);
},
{
closed = 1;
nodes = (
"507 41 LINE",
"454 39 LINE",
"409 36 LINE SMOOTH",
"376 34 OFFCURVE",
"382 10 OFFCURVE",
"381 0 CURVE",
"562 0 LINE SMOOTH",
"590 0 OFFCURVE",
"586 25 OFFCURVE",
"585 35 CURVE"
);
}
);
width = 611;
}
);
unicode = 0068;
},
{
glyphname = i;
layers = (
{
anchors = (
{
name = ogonek;
position = "{293, 10}";
},
{
name = top;
position = "{161, 558}";
}
);
layerId = "013606A7-00D0-4ED4-9959-28651EF45347";
paths = (
{
closed = 1;
nodes = (
"202 565 OFFCURVE",
"234 597 OFFCURVE",
"234 639 CURVE SMOOTH",
"234 680 OFFCURVE",
"202 713 OFFCURVE",
"160 713 CURVE SMOOTH",
"119 713 OFFCURVE",
"86 680 OFFCURVE",
"86 639 CURVE SMOOTH",
"86 597 OFFCURVE",
"119 565 OFFCURVE",
"160 565 CURVE SMOOTH"
);
},
{
closed = 1;
nodes = (
"229 520 LINE",
"31 498 LINE",
"30 485 OFFCURVE",
"30 440 OFFCURVE",
"68 436 CURVE SMOOTH",
"107 432 LINE",
"107 0 LINE",
"229 0 LINE"
);
},
{
closed = 1;
nodes = (
"229 71 LINE",
"107 69 LINE",
"76 67 LINE SMOOTH",
"27 64 OFFCURVE",
"33 10 OFFCURVE",
"32 0 CURVE",
"255 0 LINE SMOOTH",
"305 0 OFFCURVE",
"301 55 OFFCURVE",
"300 65 CURVE"
);
}
);
width = 319;
},
{
anchors = (
{
name = ogonek;
position = "{293, 10}";
},
{
name = top;
position = "{161, 558}";
}
);
layerId = "E147A15F-B728-486F-B295-953D9C6EFD33";
paths = (
{
closed = 1;
nodes = (
"170 586 OFFCURVE",
"187 603 OFFCURVE",
"187 629 CURVE SMOOTH",
"187 655 OFFCURVE",
"170 672 OFFCURVE",
"144 672 CURVE SMOOTH",
"118 672 OFFCURVE",
"101 655 OFFCURVE",
"101 629 CURVE SMOOTH",
"101 603 OFFCURVE",
"118 586 OFFCURVE",
"144 586 CURVE SMOOTH"
);
},
{
closed = 1;
nodes = (
"180 500 LINE",
"49 485 LINE",
"49 472 OFFCURVE",
"48 450 OFFCURVE",
"69 448 CURVE SMOOTH",
"125 443 LINE",
"125 0 LINE",
"180 0 LINE"
);
},
{
closed = 1;
nodes = (
"176 41 LINE",
"125 39 LINE",
"80 36 LINE SMOOTH",
"47 34 OFFCURVE",
"53 10 OFFCURVE",
"52 0 CURVE",
"234 0 LINE SMOOTH",
"262 0 OFFCURVE",
"258 25 OFFCURVE",
"257 35 CURVE"
);
}
);
width = 283;
}
);
unicode = 0069;
},
{
glyphname = j;
layers = (
{
anchors = (
{
name = top;
position = "{140, 505}";
}
);
layerId = "013606A7-00D0-4ED4-9959-28651EF45347";
paths = (
{
closed = 1;
nodes = (
"212 520 LINE",
"13 499 LINE",
"13 486 OFFCURVE",
"13 440 OFFCURVE",
"47 437 CURVE SMOOTH",
"90 433 LINE",
"90 -22 LINE SMOOTH",
"90 -143 OFFCURVE",
"64 -154 OFFCURVE",
"31 -154 CURVE SMOOTH",
"3 -154 OFFCURVE",
"-8 -127 OFFCURVE",
"-8 -99 CURVE",
"-47 -99 OFFCURVE",
"-82 -118 OFFCURVE",
"-82 -160 CURVE SMOOTH",
"-82 -225 OFFCURVE",
"-14 -233 OFFCURVE",
"3 -233 CURVE SMOOTH",
"119 -234 OFFCURVE",
"212 -148 OFFCURVE",
"212 75 CURVE SMOOTH"
);
},
{
closed = 1;
nodes = (
"103 714 OFFCURVE",
"70 681 OFFCURVE",
"70 640 CURVE SMOOTH",
"70 598 OFFCURVE",
"103 566 OFFCURVE",
"144 566 CURVE SMOOTH",
"186 566 OFFCURVE",
"218 598 OFFCURVE",
"218 640 CURVE SMOOTH",
"218 681 OFFCURVE",
"186 714 OFFCURVE",
"144 714 CURVE SMOOTH"
);
}
);
width = 292;
},
{
anchors = (
{
name = top;
position = "{140, 505}";
}
);
layerId = "E147A15F-B728-486F-B295-953D9C6EFD33";
paths = (
{
closed = 1;
nodes = (
"155 500 LINE",
"24 485 LINE",
"24 472 OFFCURVE",
"23 451 OFFCURVE",
"44 449 CURVE SMOOTH",
"100 443 LINE",
"100 -45 LINE SMOOTH",
"100 -145 OFFCURVE",
"71 -177 OFFCURVE",
"28 -177 CURVE SMOOTH",
"-5 -177 OFFCURVE",
"-19 -162 OFFCURVE",
"-21 -135 CURVE",
"-46 -133 OFFCURVE",
"-60 -148 OFFCURVE",
"-60 -173 CURVE SMOOTH",
"-60 -207 OFFCURVE",
"-23 -224 OFFCURVE",
"14 -224 CURVE SMOOTH",
"122 -224 OFFCURVE",
"155 -117 OFFCURVE",
"155 -9 CURVE SMOOTH"
);
},
{
closed = 1;
nodes = (
"94 672 OFFCURVE",
"77 655 OFFCURVE",
"77 629 CURVE SMOOTH",
"77 603 OFFCURVE",
"94 586 OFFCURVE",
"120 586 CURVE SMOOTH",
"146 586 OFFCURVE",
"163 603 OFFCURVE",
"163 629 CURVE SMOOTH",
"163 655 OFFCURVE",
"146 672 OFFCURVE",
"120 672 CURVE SMOOTH"
);
}
);
width = 237;
}
);
unicode = 006A;
},
{
glyphname = k;
layers = (
{
anchors = (
{
name = bottom;
position = "{299, 0}";
}
);
layerId = "013606A7-00D0-4ED4-9959-28651EF45347";
paths = (
{
closed = 1;
nodes = (
"229 715 LINE",
"31 693 LINE",
"30 680 OFFCURVE",
"30 635 OFFCURVE",
"68 631 CURVE SMOOTH",
"107 627 LINE",
"107 69 LINE",
"77 67 LINE SMOOTH",
"28 64 OFFCURVE",
"34 10 OFFCURVE",
"33 0 CURVE",
"256 0 LINE SMOOTH",
"306 0 OFFCURVE",
"302 55 OFFCURVE",
"301 65 CURVE",
"229 71 LINE",
"229 164 LINE",
"273 213 LINE",
"423 0 LINE",
"530 0 LINE SMOOTH",
"580 0 OFFCURVE",
"581 53 OFFCURVE",
"580 65 CURVE",
"513 71 LINE",
"349 299 LINE",
"471 437 LINE",
"493 438 LINE SMOOTH",
"542 441 OFFCURVE",
"536 495 OFFCURVE",
"537 505 CURVE",
"358 505 LINE SMOOTH",
"308 505 OFFCURVE",
"312 450 OFFCURVE",
"313 440 CURVE",
"370 434 LINE",
"229 267 LINE"
);
}
);
width = 586;
},
{
anchors = (
{
name = bottom;
position = "{281, 0}";
}
);
layerId = "E147A15F-B728-486F-B295-953D9C6EFD33";
paths = (
{
closed = 1;
nodes = (
"180 694 LINE",
"49 676 LINE",
"49 663 OFFCURVE",
"48 640 OFFCURVE",
"69 638 CURVE SMOOTH",
"125 632 LINE",
"125 39 LINE",
"80 36 LINE SMOOTH",
"47 34 OFFCURVE",
"53 10 OFFCURVE",
"52 0 CURVE",
"234 0 LINE SMOOTH",
"262 0 OFFCURVE",
"258 25 OFFCURVE",
"257 35 CURVE",
"180 41 LINE",
"180 170 LINE",
"249 246 LINE",
"430 0 LINE",
"506 0 LINE SMOOTH",
"534 0 OFFCURVE",
"530 25 OFFCURVE",
"529 35 CURVE",
"462 40 LINE",
"284 284 LINE",
"433 446 LINE",
"464 449 LINE SMOOTH",
"497 452 OFFCURVE",
"491 475 OFFCURVE",
"492 485 CURVE",
"340 485 LINE SMOOTH",
"312 485 OFFCURVE",
"316 460 OFFCURVE",
"317 450 CURVE",
"377 444 LINE",
"180 225 LINE"
);
}
);
width = 524;
}
);
unicode = 006B;
},
{
glyphname = l;
layers = (
{
anchors = (
{
name = bottom;
position = "{172, 0}";
},
{
name = top;
position = "{162, 505}";
}
);
layerId = "013606A7-00D0-4ED4-9959-28651EF45347";
paths = (
{
closed = 1;
nodes = (
"229 715 LINE",
"31 693 LINE",
"30 680 OFFCURVE",
"30 635 OFFCURVE",
"68 631 CURVE SMOOTH",
"107 627 LINE",
"107 0 LINE",
"229 0 LINE"
);
},
{
closed = 1;
nodes = (
"229 71 LINE",
"107 69 LINE",
"76 67 LINE SMOOTH",
"27 64 OFFCURVE",
"33 10 OFFCURVE",
"32 0 CURVE",
"255 0 LINE SMOOTH",
"305 0 OFFCURVE",
"301 55 OFFCURVE",
"300 65 CURVE"
);
}
);
width = 319;
},
{
anchors = (
{
name = bottom;
position = "{148, 0}";
},
{
name = top;
position = "{164, 485}";
}
);
layerId = "E147A15F-B728-486F-B295-953D9C6EFD33";
paths = (
{
closed = 1;
nodes = (
"180 693 LINE",
"49 675 LINE",
"49 662 OFFCURVE",
"48 641 OFFCURVE",
"69 639 CURVE SMOOTH",
"125 633 LINE",
"125 0 LINE",
"180 0 LINE"
);
},
{
closed = 1;
nodes = (
"180 41 LINE",
"125 39 LINE",
"78 36 LINE SMOOTH",
"45 34 OFFCURVE",
"51 10 OFFCURVE",
"50 0 CURVE",
"228 0 LINE SMOOTH",
"256 0 OFFCURVE",
"252 25 OFFCURVE",
"251 35 CURVE"
);
}
);
width = 277;
}
);
unicode = 006C;
},
{
glyphname = m;
layers = (
{
layerId = "013606A7-00D0-4ED4-9959-28651EF45347";
paths = (
{
closed = 1;
nodes = (
"872 71 LINE",
"872 310 LINE SMOOTH",
"872 463 OFFCURVE",
"779 520 OFFCURVE",
"688 520 CURVE SMOOTH",
"618 520 OFFCURVE",
"562 482 OFFCURVE",
"519 441 CURVE",
"484 497 OFFCURVE",
"426 520 OFFCURVE",
"375 520 CURVE SMOOTH",
"298 520 OFFCURVE",
"261 487 OFFCURVE",
"222 453 CURVE",
"219 453 LINE",
"212 514 LINE",
"31 492 LINE",
"30 479 OFFCURVE",
"30 434 OFFCURVE",
"68 430 CURVE SMOOTH",
"107 426 LINE",
"107 69 LINE",
"76 67 LINE SMOOTH",
"27 64 OFFCURVE",
"33 10 OFFCURVE",
"32 0 CURVE",
"255 0 LINE SMOOTH",
"305 0 OFFCURVE",
"301 55 OFFCURVE",
"300 65 CURVE",
"229 71 LINE",
"229 374 LINE",
"263 403 OFFCURVE",
"292 420 OFFCURVE",
"336 420 CURVE SMOOTH",
"392 420 OFFCURVE",
"429 396 OFFCURVE",
"429 315 CURVE SMOOTH",
"429 69 LINE",
"398 67 LINE SMOOTH",
"349 64 OFFCURVE",
"355 10 OFFCURVE",
"354 0 CURVE",
"577 0 LINE SMOOTH",
"627 0 OFFCURVE",
"623 55 OFFCURVE",
"622 65 CURVE",
"551 71 LINE",
"551 310 LINE SMOOTH",
"551 337 OFFCURVE",
"549 352 OFFCURVE",
"544 374 CURVE",
"575 401 OFFCURVE",
"609 420 OFFCURVE",
"653 420 CURVE SMOOTH",
"715 420 OFFCURVE",
"750 396 OFFCURVE",
"750 315 CURVE SMOOTH",
"750 69 LINE",
"721 67 LINE SMOOTH",
"672 64 OFFCURVE",
"678 10 OFFCURVE",
"677 0 CURVE",
"898 0 LINE SMOOTH",
"948 0 OFFCURVE",
"944 55 OFFCURVE",
"943 65 CURVE"
);
}
);
width = 962;
},
{
layerId = "E147A15F-B728-486F-B295-953D9C6EFD33";
paths = (
{
closed = 1;
nodes = (
"819 41 LINE",
"819 299 LINE SMOOTH",
"819 452 OFFCURVE",
"727 500 OFFCURVE",
"651 500 CURVE SMOOTH",
"562 500 OFFCURVE",
"514 448 OFFCURVE",
"480 405 CURVE",
"448 476 OFFCURVE",
"384 500 OFFCURVE",
"330 500 CURVE SMOOTH",
"257 500 OFFCURVE",
"213 464 OFFCURVE",
"180 428 CURVE",
"177 428 LINE",
"164 500 LINE",
"49 484 LINE",
"49 471 OFFCURVE",
"48 446 OFFCURVE",
"79 446 CURVE SMOOTH",
"125 446 LINE",
"125 39 LINE",
"80 36 LINE SMOOTH",
"47 34 OFFCURVE",
"53 10 OFFCURVE",
"52 0 CURVE",
"234 0 LINE SMOOTH",
"262 0 OFFCURVE",
"258 25 OFFCURVE",
"257 35 CURVE",
"180 41 LINE",
"180 379 LINE",
"220 417 OFFCURVE",
"259 447 OFFCURVE",
"319 447 CURVE SMOOTH",
"396 447 OFFCURVE",
"446 394 OFFCURVE",
"446 290 CURVE SMOOTH",
"446 39 LINE",
"402 36 LINE SMOOTH",
"369 34 OFFCURVE",
"375 10 OFFCURVE",
"374 0 CURVE",
"555 0 LINE SMOOTH",
"583 0 OFFCURVE",
"579 25 OFFCURVE",
"578 35 CURVE",
"501 41 LINE",
"501 299 LINE SMOOTH",
"501 326 OFFCURVE",
"499 350 OFFCURVE",
"492 371 CURVE",
"536 413 OFFCURVE",
"576 447 OFFCURVE",
"640 447 CURVE SMOOTH",
"717 447 OFFCURVE",
"764 394 OFFCURVE",
"764 290 CURVE SMOOTH",
"764 39 LINE",
"720 36 LINE SMOOTH",
"687 34 OFFCURVE",
"693 10 OFFCURVE",
"692 0 CURVE",
"873 0 LINE SMOOTH",
"901 0 OFFCURVE",
"897 25 OFFCURVE",
"896 35 CURVE"
);
}
);
width = 922;
}
);
unicode = 006D;
},
{
glyphname = n;
layers = (
{
anchors = (
{
name = bottom;
position = "{327, 0}";
},
{
name = top;
position = "{344, 505}";
}
);
layerId = "013606A7-00D0-4ED4-9959-28651EF45347";
paths = (
{
closed = 1;
nodes = (
"559 71 LINE",
"559 310 LINE SMOOTH",
"559 463 OFFCURVE",
"466 520 OFFCURVE",
"375 520 CURVE SMOOTH",
"305 520 OFFCURVE",
"261 487 OFFCURVE",
"222 453 CURVE",
"219 453 LINE",
"212 514 LINE",
"31 492 LINE",
"30 479 OFFCURVE",
"30 434 OFFCURVE",
"68 430 CURVE SMOOTH",
"107 426 LINE",
"107 69 LINE",
"76 67 LINE SMOOTH",
"27 64 OFFCURVE",
"33 10 OFFCURVE",
"32 0 CURVE",
"255 0 LINE SMOOTH",
"305 0 OFFCURVE",
"301 55 OFFCURVE",
"300 65 CURVE",
"229 71 LINE",
"229 374 LINE",
"263 403 OFFCURVE",
"292 420 OFFCURVE",
"348 420 CURVE SMOOTH",
"402 420 OFFCURVE",
"437 396 OFFCURVE",
"437 315 CURVE SMOOTH",
"437 69 LINE",
"408 67 LINE SMOOTH",
"359 64 OFFCURVE",
"365 10 OFFCURVE",
"364 0 CURVE",
"585 0 LINE SMOOTH",
"635 0 OFFCURVE",
"631 55 OFFCURVE",
"630 65 CURVE"
);
}
);
width = 649;
},
{
anchors = (
{
name = bottom;
position = "{310, 0}";
},
{
name = top;
position = "{310, 485}";
}
);
layerId = "E147A15F-B728-486F-B295-953D9C6EFD33";
paths = (
{
closed = 1;
nodes = (
"508 41 LINE",
"508 312 LINE SMOOTH",
"508 452 OFFCURVE",
"427 500 OFFCURVE",
"352 500 CURVE SMOOTH",
"277 500 OFFCURVE",
"219 456 OFFCURVE",
"181 420 CURVE",
"178 420 LINE",
"164 500 LINE",
"49 484 LINE",
"49 471 OFFCURVE",
"48 451 OFFCURVE",
"69 449 CURVE SMOOTH",
"125 443 LINE",
"125 39 LINE",
"78 36 LINE SMOOTH",
"45 34 OFFCURVE",
"51 10 OFFCURVE",
"50 0 CURVE",
"228 0 LINE SMOOTH",
"256 0 OFFCURVE",
"252 25 OFFCURVE",
"251 35 CURVE",
"180 41 LINE",
"180 378 LINE",
"235 425 OFFCURVE",
"278 450 OFFCURVE",
"337 450 CURVE SMOOTH",
"418 450 OFFCURVE",
"453 392 OFFCURVE",
"453 301 CURVE SMOOTH",
"453 39 LINE",
"406 36 LINE SMOOTH",
"373 34 OFFCURVE",
"379 10 OFFCURVE",
"378 0 CURVE",
"555 0 LINE SMOOTH",
"583 0 OFFCURVE",
"579 25 OFFCURVE",
"578 35 CURVE"
);
}
);
width = 604;
}
);
unicode = 006E;
},
{
glyphname = o;
layers = (
{
anchors = (
{
name = top;
position = "{275, 505}";
}
);
layerId = "013606A7-00D0-4ED4-9959-28651EF45347";
paths = (
{
closed = 1;
nodes = (
"121 520 OFFCURVE",
"35 415 OFFCURVE",
"35 238 CURVE SMOOTH",
"35 78 OFFCURVE",
"112 -15 OFFCURVE",
"259 -15 CURVE SMOOTH",
"420 -15 OFFCURVE",
"507 85 OFFCURVE",
"507 255 CURVE SMOOTH",
"507 418 OFFCURVE",
"425 520 OFFCURVE",
"282 520 CURVE SMOOTH"
);
},
{
closed = 1;
nodes = (
"341 443 OFFCURVE",
"380 367 OFFCURVE",
"380 243 CURVE SMOOTH",
"380 130 OFFCURVE",
"341 61 OFFCURVE",
"271 61 CURVE SMOOTH",
"201 61 OFFCURVE",
"162 130 OFFCURVE",
"162 251 CURVE SMOOTH",
"162 367 OFFCURVE",
"201 443 OFFCURVE",
"271 443 CURVE SMOOTH"
);
}
);
width = 542;
},
{
anchors = (
{
name = top;
position = "{252, 485}";
}
);
layerId = "E147A15F-B728-486F-B295-953D9C6EFD33";
paths = (
{
closed = 1;
nodes = (
"126 500 OFFCURVE",
"38 393 OFFCURVE",
"40 225 CURVE SMOOTH",
"42 74 OFFCURVE",
"114 -15 OFFCURVE",
"241 -15 CURVE SMOOTH",
"381 -15 OFFCURVE",
"461 100 OFFCURVE",
"459 261 CURVE SMOOTH",
"457 465 OFFCURVE",
"333 500 OFFCURVE",
"256 500 CURVE SMOOTH"
);
},
{
closed = 1;
nodes = (
"358 456 OFFCURVE",
"399 347 OFFCURVE",
"399 243 CURVE SMOOTH",
"399 122 OFFCURVE",
"347 31 OFFCURVE",
"249 30 CURVE SMOOTH",
"145 29 OFFCURVE",
"100 128 OFFCURVE",
"100 241 CURVE SMOOTH",
"100 358 OFFCURVE",
"151 454 OFFCURVE",
"250 455 CURVE SMOOTH"
);
}
);
width = 499;
}
);
unicode = 006F;
},
{
glyphname = p;
layers = (
{
layerId = "013606A7-00D0-4ED4-9959-28651EF45347";
paths = (
{
closed = 1;
nodes = (
"255 520 OFFCURVE",
"207 471 OFFCURVE",
"155 416 CURVE",
"166 345 LINE",
"221 404 OFFCURVE",
"256 433 OFFCURVE",
"308 433 CURVE SMOOTH",
"387 433 OFFCURVE",
"425 365 OFFCURVE",
"425 253 CURVE SMOOTH",
"425 163 OFFCURVE",
"406 66 OFFCURVE",
"312 66 CURVE SMOOTH",
"254 66 OFFCURVE",
"205 104 OFFCURVE",
"187 129 CURVE",
"160 29 LINE",
"202 2 OFFCURVE",
"238 -15 OFFCURVE",
"304 -15 CURVE SMOOTH",
"474 -15 OFFCURVE",
"554 112 OFFCURVE",
"552 276 CURVE SMOOTH",
"549 460 OFFCURVE",
"445 520 OFFCURVE",
"349 520 CURVE SMOOTH"
);
},
{
closed = 1;
nodes = (
"210 -147 LINE",
"87 -149 LINE",
"56 -151 LINE SMOOTH",
"7 -154 OFFCURVE",
"13 -208 OFFCURVE",
"12 -218 CURVE",
"235 -218 LINE SMOOTH",
"285 -218 OFFCURVE",
"281 -163 OFFCURVE",
"280 -153 CURVE"
);
},
{
closed = 1;
nodes = (
"193 514 LINE",
"13 491 LINE",
"13 478 OFFCURVE",
"12 435 OFFCURVE",
"44 431 CURVE SMOOTH",
"87 426 LINE",
"87 -218 LINE",
"209 -218 LINE",
"209 419 LINE"
);
}
);
width = 587;
},
{
layerId = "E147A15F-B728-486F-B295-953D9C6EFD33";
paths = (
{
closed = 1;
nodes = (
"221 500 OFFCURVE",
"149 433 OFFCURVE",
"116 393 CURVE",
"123 366 LINE",
"181 413 OFFCURVE",
"219 448 OFFCURVE",
"285 448 CURVE SMOOTH",
"397 448 OFFCURVE",
"438 349 OFFCURVE",
"438 243 CURVE SMOOTH",
"438 132 OFFCURVE",
"393 32 OFFCURVE",
"281 32 CURVE SMOOTH",
"202 32 OFFCURVE",
"147 75 OFFCURVE",
"137 89 CURVE",
"111 29 LINE",
"159 4 OFFCURVE",
"200 -15 OFFCURVE",
"263 -15 CURVE SMOOTH",
"413 -15 OFFCURVE",
"502 91 OFFCURVE",
"498 260 CURVE SMOOTH",
"494 422 OFFCURVE",
"407 500 OFFCURVE",
"306 500 CURVE SMOOTH"
);
},
{
closed = 1;
nodes = (
"138 -172 LINE",
"87 -174 LINE",
"42 -177 LINE SMOOTH",
"9 -179 OFFCURVE",
"15 -203 OFFCURVE",
"14 -213 CURVE",
"196 -213 LINE SMOOTH",
"224 -213 OFFCURVE",
"220 -188 OFFCURVE",
"219 -178 CURVE"
);
},
{
closed = 1;
nodes = (
"126 495 LINE",
"11 480 LINE",
"11 467 OFFCURVE",
"10 448 OFFCURVE",
"31 446 CURVE SMOOTH",
"87 440 LINE",
"87 -213 LINE",
"142 -213 LINE",
"142 420 LINE"
);
}
);
width = 538;
}
);
unicode = 0070;
},
{
glyphname = q;
layers = (
{
layerId = "013606A7-00D0-4ED4-9959-28651EF45347";
paths = (
{
closed = 1;
nodes = (
"113 520 OFFCURVE",
"33 393 OFFCURVE",
"35 229 CURVE SMOOTH",
"38 45 OFFCURVE",
"142 -15 OFFCURVE",
"238 -15 CURVE SMOOTH",
"332 -15 OFFCURVE",
"380 34 OFFCURVE",
"432 89 CURVE",
"421 160 LINE",
"366 101 OFFCURVE",
"331 72 OFFCURVE",
"279 72 CURVE SMOOTH",
"200 72 OFFCURVE",
"162 140 OFFCURVE",
"162 252 CURVE SMOOTH",
"162 342 OFFCURVE",
"181 439 OFFCURVE",
"275 439 CURVE SMOOTH",
"333 439 OFFCURVE",
"382 401 OFFCURVE",
"400 376 CURVE",
"427 476 LINE",
"385 503 OFFCURVE",
"349 520 OFFCURVE",
"283 520 CURVE SMOOTH"
);
},
{
closed = 1;
nodes = (
"501 -147 LINE",
"378 -149 LINE",
"347 -151 LINE SMOOTH",
"298 -154 OFFCURVE",
"304 -208 OFFCURVE",
"303 -218 CURVE",
"519 -218 LINE SMOOTH",
"569 -218 OFFCURVE",
"565 -163 OFFCURVE",
"564 -153 CURVE"
);
},
{
closed = 1;
nodes = (
"500 505 LINE",
"378 481 LINE",
"378 -218 LINE",
"500 -218 LINE"
);
}
);
width = 561;
},
{
layerId = "E147A15F-B728-486F-B295-953D9C6EFD33";
paths = (
{
closed = 1;
nodes = (
"123 500 OFFCURVE",
"37 392 OFFCURVE",
"40 224 CURVE SMOOTH",
"43 65 OFFCURVE",
"135 -15 OFFCURVE",
"232 -15 CURVE SMOOTH",
"333 -15 OFFCURVE",
"393 42 OFFCURVE",
"426 83 CURVE",
"419 113 LINE",
"361 69 OFFCURVE",
"325 39 OFFCURVE",
"256 39 CURVE SMOOTH",
"143 39 OFFCURVE",
"100 136 OFFCURVE",
"100 243 CURVE SMOOTH",
"100 354 OFFCURVE",
"147 453 OFFCURVE",
"255 453 CURVE SMOOTH",
"337 453 OFFCURVE",
"390 411 OFFCURVE",
"400 397 CURVE",
"427 456 LINE",
"379 481 OFFCURVE",
"339 500 OFFCURVE",
"272 500 CURVE SMOOTH"
);
},
{
closed = 1;
nodes = (
"446 -172 LINE",
"395 -174 LINE",
"350 -177 LINE SMOOTH",
"317 -179 OFFCURVE",
"323 -203 OFFCURVE",
"322 -213 CURVE",
"504 -213 LINE SMOOTH",
"532 -213 OFFCURVE",
"528 -188 OFFCURVE",
"527 -178 CURVE"
);
},
{
closed = 1;
nodes = (
"450 485 LINE",
"395 485 LINE",
"395 -213 LINE",
"450 -213 LINE"
);
}
);
width = 513;
}
);
unicode = 0071;
},
{
glyphname = r;
layers = (
{
anchors = (
{
name = bottom;
position = "{188, 0}";
},
{
name = top;
position = "{246, 505}";
}
);
layerId = "013606A7-00D0-4ED4-9959-28651EF45347";
paths = (
{
closed = 1;
nodes = (
"321 520 OFFCURVE",
"253 472 OFFCURVE",
"223 432 CURVE",
"220 432 LINE",
"211 515 LINE",
"30 492 LINE",
"30 479 OFFCURVE",
"29 435 OFFCURVE",
"61 432 CURVE SMOOTH",
"105 427 LINE",
"105 69 LINE",
"76 67 LINE SMOOTH",
"27 64 OFFCURVE",
"33 10 OFFCURVE",
"32 0 CURVE",
"263 0 LINE SMOOTH",
"313 0 OFFCURVE",
"309 55 OFFCURVE",
"308 65 CURVE",
"227 71 LINE",
"227 354 LINE",
"250 391 OFFCURVE",
"283 419 OFFCURVE",
"317 419 CURVE SMOOTH",
"337 419 OFFCURVE",
"355 415 OFFCURVE",
"355 344 CURVE",
"379 341 OFFCURVE",
"398 341 OFFCURVE",
"412 352 CURVE SMOOTH",
"428 366 OFFCURVE",
"445 395 OFFCURVE",
"445 436 CURVE SMOOTH",
"445 496 OFFCURVE",
"407 520 OFFCURVE",
"371 520 CURVE SMOOTH"
);
}
);
width = 447;
},
{
anchors = (
{
name = bottom;
position = "{157, 0}";
},
{
name = top;
position = "{220, 485}";
}
);
layerId = "E147A15F-B728-486F-B295-953D9C6EFD33";
paths = (
{
closed = 1;
nodes = (
"289 500 OFFCURVE",
"221 460 OFFCURVE",
"181 421 CURVE",
"178 421 LINE",
"172 496 LINE",
"49 480 LINE",
"49 467 OFFCURVE",
"48 447 OFFCURVE",
"69 445 CURVE SMOOTH",
"125 439 LINE",
"125 39 LINE",
"80 36 LINE SMOOTH",
"47 34 OFFCURVE",
"53 10 OFFCURVE",
"52 0 CURVE",
"244 0 LINE SMOOTH",
"272 0 OFFCURVE",
"268 25 OFFCURVE",
"267 35 CURVE",
"180 41 LINE",
"180 377 LINE",
"226 419 OFFCURVE",
"268 446 OFFCURVE",
"303 446 CURVE SMOOTH",
"336 446 OFFCURVE",
"341 410 OFFCURVE",
"341 375 CURVE",
"357 374 OFFCURVE",
"369 376 OFFCURVE",
"378 384 CURVE",
"386 394 OFFCURVE",
"390 430 OFFCURVE",
"390 451 CURVE SMOOTH",
"390 489 OFFCURVE",
"360 500 OFFCURVE",
"334 500 CURVE SMOOTH"
);
}
);
width = 395;
}
);
unicode = 0072;
},
{
glyphname = s;
layers = (
{
anchors = (
{
name = bottom;
position = "{230, 0}";
},
{
name = top;
position = "{226, 505}";
}
);
layerId = "013606A7-00D0-4ED4-9959-28651EF45347";
paths = (
{
closed = 1;
nodes = (
"136 520 OFFCURVE",
"39 470 OFFCURVE",
"39 368 CURVE SMOOTH",
"39 274 OFFCURVE",
"122 233 OFFCURVE",
"200 202 CURVE SMOOTH",
"261 178 OFFCURVE",
"308 161 OFFCURVE",
"308 116 CURVE SMOOTH",
"308 75 OFFCURVE",
"268 61 OFFCURVE",
"225 61 CURVE SMOOTH",
"153 61 OFFCURVE",
"117 101 OFFCURVE",
"109 163 CURVE",
"67 163 OFFCURVE",
"25 139 OFFCURVE",
"25 89 CURVE SMOOTH",
"25 14 OFFCURVE",
"118 -15 OFFCURVE",
"200 -15 CURVE SMOOTH",
"330 -15 OFFCURVE",
"409 59 OFFCURVE",
"409 155 CURVE SMOOTH",
"409 248 OFFCURVE",
"335 282 OFFCURVE",
"254 315 CURVE SMOOTH",
"185 343 OFFCURVE",
"136 364 OFFCURVE",
"136 399 CURVE SMOOTH",
"136 425 OFFCURVE",
"164 446 OFFCURVE",
"204 446 CURVE SMOOTH",
"258 446 OFFCURVE",
"303 407 OFFCURVE",
"303 358 CURVE",
"349 351 OFFCURVE",
"383 379 OFFCURVE",
"383 427 CURVE SMOOTH",
"383 500 OFFCURVE",
"300 520 OFFCURVE",
"236 520 CURVE SMOOTH"
);
}
);
width = 434;
},
{
anchors = (
{
name = bottom;
position = "{193, 0}";
},
{
name = top;
position = "{193, 485}";
}
);
layerId = "E147A15F-B728-486F-B295-953D9C6EFD33";
paths = (
{
closed = 1;
nodes = (
"126 501 OFFCURVE",
"43 451 OFFCURVE",
"41 363 CURVE SMOOTH",
"40 276 OFFCURVE",
"126 247 OFFCURVE",
"206 218 CURVE SMOOTH",
"275 192 OFFCURVE",
"309 173 OFFCURVE",
"308 122 CURVE SMOOTH",
"307 62 OFFCURVE",
"251 29 OFFCURVE",
"188 30 CURVE SMOOTH",
"123 31 OFFCURVE",
"77 68 OFFCURVE",
"65 119 CURVE",
"42 120 OFFCURVE",
"24 103 OFFCURVE",
"23 76 CURVE SMOOTH",
"22 19 OFFCURVE",
"100 -13 OFFCURVE",
"174 -15 CURVE SMOOTH",
"295 -17 OFFCURVE",
"360 66 OFFCURVE",
"361 143 CURVE SMOOTH",
"363 219 OFFCURVE",
"304 243 OFFCURVE",
"223 275 CURVE SMOOTH",
"143 305 OFFCURVE",
"92 326 OFFCURVE",
"93 376 CURVE SMOOTH",
"94 424 OFFCURVE",
"141 456 OFFCURVE",
"202 455 CURVE SMOOTH",
"264 454 OFFCURVE",
"288 420 OFFCURVE",
"287 377 CURVE",
"304 376 OFFCURVE",
"338 384 OFFCURVE",
"339 421 CURVE SMOOTH",
"340 475 OFFCURVE",
"269 499 OFFCURVE",
"212 500 CURVE SMOOTH"
);
}
);
width = 384;
}
);
unicode = 0073;
},
{
glyphname = t;
layers = (
{
anchors = (
{
name = bottom;
position = "{212, 0}";
}
);
layerId = "013606A7-00D0-4ED4-9959-28651EF45347";
paths = (
{
closed = 1;
nodes = (
"86 633 LINE",
"86 164 LINE SMOOTH",
"86 74 OFFCURVE",
"104 -15 OFFCURVE",
"231 -15 CURVE SMOOTH",
"303 -15 OFFCURVE",
"399 25 OFFCURVE",
"399 80 CURVE SMOOTH",
"399 102 OFFCURVE",
"383 121 OFFCURVE",
"378 121 CURVE",
"341 90 OFFCURVE",
"312 77 OFFCURVE",
"260 77 CURVE SMOOTH",
"230 77 OFFCURVE",
"208 102 OFFCURVE",
"208 158 CURVE SMOOTH",
"208 646 LINE"
);
},
{
closed = 1;
nodes = (
"52 505 LINE SMOOTH",
"10 505 OFFCURVE",
"3 467 OFFCURVE",
"3 435 CURVE",
"339 435 LINE SMOOTH",
"390 435 OFFCURVE",
"389 492 OFFCURVE",
"388 505 CURVE"
);
}
);
width = 410;
},
{
anchors = (
{
name = bottom;
position = "{217, 0}";
}
);
layerId = "E147A15F-B728-486F-B295-953D9C6EFD33";
paths = (
{
closed = 1;
nodes = (
"96 601 LINE",
"96 134 LINE SMOOTH",
"96 42 OFFCURVE",
"122 -16 OFFCURVE",
"214 -16 CURVE SMOOTH",
"266 -16 OFFCURVE",
"350 19 OFFCURVE",
"350 55 CURVE SMOOTH",
"350 64 OFFCURVE",
"344 74 OFFCURVE",
"333 78 CURVE",
"279 36 OFFCURVE",
"254 34 OFFCURVE",
"215 34 CURVE SMOOTH",
"159 34 OFFCURVE",
"151 73 OFFCURVE",
"151 146 CURVE SMOOTH",
"151 620 LINE"
);
},
{
closed = 1;
nodes = (
"49 485 LINE",
"21 485 OFFCURVE",
"25 455 OFFCURVE",
"26 445 CURVE",
"334 445 LINE",
"338 458 OFFCURVE",
"341 472 OFFCURVE",
"340 485 CURVE"
);
}
);
width = 365;
}
);
unicode = 0074;
},
{
glyphname = u;
layers = (
{
anchors = (
{
name = ogonek;
position = "{490, -26}";
},
{
name = top;
position = "{291, 505}";
}
);
layerId = "013606A7-00D0-4ED4-9959-28651EF45347";
paths = (
{
closed = 1;
nodes = (
"520 67 LINE",
"520 505 LINE",
"364 505 LINE SMOOTH",
"315 505 OFFCURVE",
"321 444 OFFCURVE",
"320 434 CURVE",
"398 434 LINE",
"398 110 LINE",
"369 88 OFFCURVE",
"342 76 OFFCURVE",
"302 76 CURVE SMOOTH",
"240 76 OFFCURVE",
"205 105 OFFCURVE",
"205 190 CURVE SMOOTH",
"205 505 LINE",
"54 505 LINE SMOOTH",
"5 505 OFFCURVE",
"11 444 OFFCURVE",
"10 434 CURVE",
"83 434 LINE",
"83 195 LINE SMOOTH",
"83 42 OFFCURVE",
"176 -15 OFFCURVE",
"268 -15 CURVE SMOOTH",
"333 -15 OFFCURVE",
"376 14 OFFCURVE",
"413 46 CURVE",
"434 -10 LINE",
"576 4 LINE",
"576 17 OFFCURVE",
"577 66 OFFCURVE",
"542 67 CURVE"
);
}
);
width = 601;
},
{
anchors = (
{
name = ogonek;
position = "{514, 10}";
},
{
name = top;
position = "{283, 485}";
}
);
layerId = "E147A15F-B728-486F-B295-953D9C6EFD33";
paths = (
{
closed = 1;
nodes = (
"467 54 LINE",
"467 485 LINE",
"358 485 LINE SMOOTH",
"330 485 OFFCURVE",
"334 460 OFFCURVE",
"335 450 CURVE",
"412 444 LINE",
"412 97 LINE",
"372 62 OFFCURVE",
"333 37 OFFCURVE",
"273 37 CURVE SMOOTH",
"196 37 OFFCURVE",
"149 91 OFFCURVE",
"149 195 CURVE SMOOTH",
"149 485 LINE",
"41 485 LINE SMOOTH",
"13 485 OFFCURVE",
"17 460 OFFCURVE",
"18 450 CURVE",
"94 444 LINE",
"94 186 LINE SMOOTH",
"94 33 OFFCURVE",
"186 -15 OFFCURVE",
"262 -15 CURVE SMOOTH",
"338 -15 OFFCURVE",
"384 19 OFFCURVE",
"417 53 CURVE",
"428 1 LINE",
"543 10 LINE",
"543 23 OFFCURVE",
"544 46 OFFCURVE",
"523 48 CURVE SMOOTH"
);
}
);
width = 564;
}
);
unicode = 0075;
},
{
glyphname = v;
layers = (
{
layerId = "013606A7-00D0-4ED4-9959-28651EF45347";
paths = (
{
closed = 1;
nodes = (
"155 502 LINE",
"32 470 LINE",
"224 0 LINE",
"291 0 LINE",
"497 499 LINE",
"399 493 LINE",
"219 33 LINE",
"307 110 LINE"
);
},
{
closed = 1;
nodes = (
"43 505 LINE SMOOTH",
"8 505 OFFCURVE",
"-1 469 OFFCURVE",
"0 440 CURVE",
"46 434 LINE",
"180 436 LINE",
"197 438 LINE SMOOTH",
"245 444 OFFCURVE",
"240 495 OFFCURVE",
"241 505 CURVE"
);
},
{
closed = 1;
nodes = (
"378 505 LINE SMOOTH",
"328 505 OFFCURVE",
"332 450 OFFCURVE",
"333 440 CURVE",
"385 434 LINE",
"470 436 LINE",
"486 438 LINE",
"508 440 OFFCURVE",
"522 457 OFFCURVE",
"522 505 CURVE"
);
}
);
width = 522;
},
{
layerId = "E147A15F-B728-486F-B295-953D9C6EFD33";
paths = (
{
closed = 1;
nodes = (
"92 482 LINE",
"28 480 LINE",
"207 0 LINE",
"249 0 LINE",
"441 479 LINE",
"384 473 LINE",
"215 18 LINE",
"247 33 LINE"
);
},
{
closed = 1;
nodes = (
"26 485 LINE",
"6 485 OFFCURVE",
"4 460 OFFCURVE",
"5 450 CURVE",
"43 444 LINE",
"104 446 LINE",
"148 449 LINE SMOOTH",
"181 451 OFFCURVE",
"175 475 OFFCURVE",
"176 485 CURVE"
);
},
{
closed = 1;
nodes = (
"336 485 LINE",
"308 485 OFFCURVE",
"312 460 OFFCURVE",
"313 450 CURVE",
"374 444 LINE",
"416 448 LINE",
"433 449 LINE SMOOTH",
"463 451 OFFCURVE",
"463 475 OFFCURVE",
"461 485 CURVE"
);
}
);
width = 466;
}
);
unicode = 0076;
},
{
glyphname = w;
layers = (
{
anchors = (
{
name = top;
position = "{383, 505}";
}
);
layerId = "013606A7-00D0-4ED4-9959-28651EF45347";
paths = (
{
closed = 1;
nodes = (
"161 502 LINE",
"30 483 LINE",
"187 0 LINE",
"254 0 LINE",
"377 326 LINE",
"333 327 LINE",
"443 0 LINE",
"510 0 LINE",
"704 499 LINE",
"602 493 LINE",
"466 100 LINE",
"533 100 LINE",
"424 457 LINE",
"343 456 LINE",
"220 101 LINE",
"273 113 LINE"
);
},
{
closed = 1;
nodes = (
"43 505 LINE SMOOTH",
"8 505 OFFCURVE",
"-1 469 OFFCURVE",
"0 440 CURVE",
"46 434 LINE",
"180 436 LINE",
"197 438 LINE SMOOTH",
"245 444 OFFCURVE",
"240 495 OFFCURVE",
"241 505 CURVE"
);
},
{
closed = 1;
nodes = (
"587 505 LINE SMOOTH",
"537 505 OFFCURVE",
"541 450 OFFCURVE",
"542 440 CURVE",
"594 434 LINE",
"679 436 LINE",
"695 438 LINE",
"717 440 OFFCURVE",
"731 457 OFFCURVE",
"731 505 CURVE"
);
}
);
width = 731;
},
{
anchors = (
{
name = top;
position = "{365, 485}";
}
);
layerId = "E147A15F-B728-486F-B295-953D9C6EFD33";
paths = (
{
closed = 1;
nodes = (
"94 482 LINE",
"31 480 LINE",
"193 0 LINE",
"228 0 LINE",
"366 368 LINE",
"332 369 LINE",
"461 0 LINE",
"496 0 LINE",
"672 479 LINE",
"615 473 LINE",
"471 33 LINE",
"500 33 LINE",
"369 444 LINE",
"348 444 LINE",
"203 33 LINE",
"229 33 LINE"
);
},
{
closed = 1;
nodes = (
"26 485 LINE",
"6 485 OFFCURVE",
"4 460 OFFCURVE",
"5 450 CURVE",
"43 444 LINE",
"104 446 LINE",
"148 449 LINE SMOOTH",
"181 451 OFFCURVE",
"175 475 OFFCURVE",
"176 485 CURVE"
);
},
{
closed = 1;
nodes = (
"567 485 LINE",
"539 485 OFFCURVE",
"543 460 OFFCURVE",
"544 450 CURVE",
"605 444 LINE",
"652 448 LINE",
"664 449 LINE SMOOTH",
"694 451 OFFCURVE",
"694 475 OFFCURVE",
"692 485 CURVE"
);
}
);
width = 697;
}
);
unicode = 0077;
},
{
glyphname = x;
layers = (
{
layerId = "013606A7-00D0-4ED4-9959-28651EF45347";
paths = (
{
closed = 1;
nodes = (
"171 482 LINE",
"29 476 LINE",
"359 18 LINE",
"497 30 LINE"
);
},
{
closed = 1;
nodes = (
"162 71 LINE",
"75 69 LINE",
"51 67 LINE SMOOTH",
"2 63 OFFCURVE",
"8 10 OFFCURVE",
"7 0 CURVE",
"169 0 LINE SMOOTH",
"219 0 OFFCURVE",
"215 55 OFFCURVE",
"214 65 CURVE"
);
},
{
closed = 1;
nodes = (
"213 269 LINE",
"48 31 LINE",
"134 28 LINE",
"273 245 LINE"
);
},
{
closed = 1;
nodes = (
"467 71 LINE",
"320 69 LINE",
"308 67 LINE SMOOTH",
"260 59 OFFCURVE",
"265 10 OFFCURVE",
"264 0 CURVE",
"474 0 LINE SMOOTH",
"524 0 OFFCURVE",
"520 55 OFFCURVE",
"519 65 CURVE"
);
},
{
closed = 1;
nodes = (
"51 505 LINE SMOOTH",
"4 505 OFFCURVE",
"5 450 OFFCURVE",
"6 440 CURVE",
"61 434 LINE",
"205 436 LINE",
"213 438 LINE SMOOTH",
"261 450 OFFCURVE",
"256 495 OFFCURVE",
"257 505 CURVE"
);
},
{
closed = 1;
nodes = (
"391 479 LINE",
"248 252 LINE",
"309 228 LINE",
"476 476 LINE"
);
},
{
closed = 1;
nodes = (
"364 505 LINE SMOOTH",
"314 505 OFFCURVE",
"318 450 OFFCURVE",
"319 440 CURVE",
"361 434 LINE",
"448 436 LINE",
"470 438 LINE SMOOTH",
"519 442 OFFCURVE",
"513 495 OFFCURVE",
"514 505 CURVE"
);
}
);
width = 525;
},
{
layerId = "E147A15F-B728-486F-B295-953D9C6EFD33";
paths = (
{
closed = 1;
nodes = (
"110 472 LINE",
"51 466 LINE",
"376 18 LINE",
"431 30 LINE"
);
},
{
closed = 1;
nodes = (
"127 41 LINE",
"75 39 LINE",
"38 36 LINE SMOOTH",
"4 33 OFFCURVE",
"11 10 OFFCURVE",
"10 0 CURVE",
"165 0 LINE SMOOTH",
"193 0 OFFCURVE",
"189 25 OFFCURVE",
"188 35 CURVE"
);
},
{
closed = 1;
nodes = (
"234 269 LINE",
"70 31 LINE",
"119 28 LINE",
"259 245 LINE"
);
},
{
closed = 1;
nodes = (
"422 41 LINE",
"361 39 LINE",
"326 36 LINE SMOOTH",
"293 33 OFFCURVE",
"299 10 OFFCURVE",
"298 0 CURVE",
"446 0 LINE SMOOTH",
"474 0 OFFCURVE",
"470 25 OFFCURVE",
"469 35 CURVE"
);
},
{
closed = 1;
nodes = (
"41 485 LINE",
"13 485 OFFCURVE",
"17 460 OFFCURVE",
"18 450 CURVE",
"66 444 LINE",
"128 446 LINE",
"163 449 LINE SMOOTH",
"196 452 OFFCURVE",
"190 475 OFFCURVE",
"191 485 CURVE"
);
},
{
closed = 1;
nodes = (
"373 469 LINE",
"233 252 LINE",
"258 228 LINE",
"422 466 LINE"
);
},
{
closed = 1;
nodes = (
"325 485 LINE",
"297 485 OFFCURVE",
"301 460 OFFCURVE",
"302 450 CURVE",
"357 444 LINE",
"410 448 LINE",
"434 449 LINE SMOOTH",
"468 450 OFFCURVE",
"461 475 OFFCURVE",
"462 485 CURVE"
);
}
);
width = 475;
}
);
unicode = 0078;
},
{
glyphname = y;
layers = (
{
anchors = (
{
name = top;
position = "{298, 505}";
}
);
layerId = "013606A7-00D0-4ED4-9959-28651EF45347";
paths = (
{
closed = 1;
nodes = (
"171 502 LINE",
"31 500 LINE",
"252 11 LINE",
"313 11 LINE",
"513 499 LINE",
"417 493 LINE",
"244 42 LINE",
"324 126 LINE"
);
},
{
closed = 1;
nodes = (
"241 52 LINE",
"224 -9 OFFCURVE",
"169 -148 OFFCURVE",
"124 -148 CURVE SMOOTH",
"96 -148 OFFCURVE",
"97 -114 OFFCURVE",
"101 -95 CURVE",
"96 -93 OFFCURVE",
"83 -93 OFFCURVE",
"79 -93 CURVE SMOOTH",
"42 -93 OFFCURVE",
"16 -122 OFFCURVE",
"16 -157 CURVE SMOOTH",
"16 -202 OFFCURVE",
"51 -233 OFFCURVE",
"110 -233 CURVE SMOOTH",
"220 -233 OFFCURVE",
"268 -93 OFFCURVE",
"323 34 CURVE"
);
},
{
closed = 1;
nodes = (
"46 505 LINE SMOOTH",
"-4 505 OFFCURVE",
"0 450 OFFCURVE",
"1 440 CURVE",
"56 434 LINE",
"197 436 LINE",
"209 438 LINE SMOOTH",
"257 446 OFFCURVE",
"252 495 OFFCURVE",
"253 505 CURVE"
);
},
{
closed = 1;
nodes = (
"393 505 LINE SMOOTH",
"343 505 OFFCURVE",
"347 450 OFFCURVE",
"348 440 CURVE",
"400 434 LINE",
"481 436 LINE",
"492 438 LINE SMOOTH",
"541 447 OFFCURVE",
"535 495 OFFCURVE",
"536 505 CURVE"
);
}
);
width = 536;
},
{
anchors = (
{
name = top;
position = "{243, 485}";
}
);
layerId = "E147A15F-B728-486F-B295-953D9C6EFD33";
paths = (
{
closed = 1;
nodes = (
"102 482 LINE",
"39 480 LINE",
"229 12 LINE",
"264 12 LINE",
"452 479 LINE",
"399 473 LINE",
"232 38 LINE",
"268 45 LINE"
);
},
{
closed = 1;
nodes = (
"228 23 LINE",
"205 -33 OFFCURVE",
"147 -163 OFFCURVE",
"108 -163 CURVE SMOOTH",
"82 -163 OFFCURVE",
"80 -145 OFFCURVE",
"84 -127 CURVE",
"79 -125 OFFCURVE",
"75 -125 OFFCURVE",
"71 -125 CURVE SMOOTH",
"49 -125 OFFCURVE",
"35 -142 OFFCURVE",
"35 -167 CURVE SMOOTH",
"35 -190 OFFCURVE",
"54 -215 OFFCURVE",
"97 -215 CURVE SMOOTH",
"178 -215 OFFCURVE",
"233 -65 OFFCURVE",
"268 23 CURVE"
);
},
{
closed = 1;
nodes = (
"29 485 LINE",
"1 485 OFFCURVE",
"5 460 OFFCURVE",
"6 450 CURVE",
"54 444 LINE",
"115 446 LINE",
"159 449 LINE SMOOTH",
"192 451 OFFCURVE",
"186 475 OFFCURVE",
"187 485 CURVE"
);
},
{
closed = 1;
nodes = (
"351 485 LINE",
"323 485 OFFCURVE",
"327 460 OFFCURVE",
"328 450 CURVE",
"389 444 LINE",
"415 446 LINE",
"452 449 LINE SMOOTH",
"486 452 OFFCURVE",
"479 475 OFFCURVE",
"480 485 CURVE"
);
}
);
width = 484;
}
);
unicode = 0079;
},
{
glyphname = z;
layers = (
{
anchors = (
{
name = top;
position = "{236, 505}";
}
);
layerId = "013606A7-00D0-4ED4-9959-28651EF45347";
paths = (
{
closed = 1;
nodes = (
"47 505 LINE",
"47 343 LINE",
"77 336 OFFCURVE",
"116 343 OFFCURVE",
"121 382 CURVE SMOOTH",
"128 435 LINE",
"281 441 LINE",
"15 55 LINE",
"15 37 OFFCURVE",
"25 13 OFFCURVE",
"32 0 CURVE",
"432 0 LINE",
"432 164 LINE",
"402 171 OFFCURVE",
"363 164 OFFCURVE",
"358 125 CURVE",
"349 73 LINE",
"168 67 LINE",
"428 446 LINE",
"428 461 OFFCURVE",
"415 495 OFFCURVE",
"404 505 CURVE"
);
}
);
width = 447;
},
{
anchors = (
{
name = top;
position = "{211, 485}";
}
);
layerId = "E147A15F-B728-486F-B295-953D9C6EFD33";
paths = (
{
closed = 1;
nodes = (
"52 485 LINE",
"52 360 LINE",
"59 353 OFFCURVE",
"90 360 OFFCURVE",
"92 388 CURVE SMOOTH",
"95 445 LINE",
"305 450 LINE",
"15 22 LINE",
"17 13 OFFCURVE",
"20 6 OFFCURVE",
"24 0 CURVE",
"373 0 LINE",
"373 129 LINE",
"366 136 OFFCURVE",
"336 129 OFFCURVE",
"334 101 CURVE SMOOTH",
"329 43 LINE",
"85 39 LINE",
"372 463 LINE",
"369 473 OFFCURVE",
"366 479 OFFCURVE",
"362 485 CURVE"
);
}
);
width = 388;
}
);
unicode = 007A;
},
{
glyphname = braceleft;
layers = (
{
layerId = "013606A7-00D0-4ED4-9959-28651EF45347";
paths = (
{
closed = 1;
nodes = (
"163 734 OFFCURVE",
"101 681 OFFCURVE",
"101 602 CURVE SMOOTH",
"101 535 OFFCURVE",
"117 466 OFFCURVE",
"117 391 CURVE SMOOTH",
"117 366 OFFCURVE",
"108 338 OFFCURVE",
"94 322 CURVE SMOOTH",
"87 313 OFFCURVE",
"69 302 OFFCURVE",
"50 294 CURVE",
"50 256 LINE",
"69 248 OFFCURVE",
"87 237 OFFCURVE",
"94 228 CURVE SMOOTH",
"108 212 OFFCURVE",
"117 185 OFFCURVE",
"117 162 CURVE SMOOTH",
"117 81 OFFCURVE",
"101 13 OFFCURVE",
"101 -52 CURVE SMOOTH",
"101 -131 OFFCURVE",
"159 -184 OFFCURVE",
"246 -184 CURVE SMOOTH",
"283 -184 OFFCURVE",
"325 -179 OFFCURVE",
"350 -171 CURVE",
"348 -116 LINE",
"341 -117 OFFCURVE",
"329 -118 OFFCURVE",
"318 -118 CURVE SMOOTH",
"248 -118 OFFCURVE",
"202 -90 OFFCURVE",
"202 -47 CURVE SMOOTH",
"202 3 OFFCURVE",
"219 86 OFFCURVE",
"219 147 CURVE SMOOTH",
"219 210 OFFCURVE",
"197 259 OFFCURVE",
"165 270 CURVE",
"165 280 LINE",
"197 291 OFFCURVE",
"219 340 OFFCURVE",
"219 403 CURVE SMOOTH",
"219 494 OFFCURVE",
"202 547 OFFCURVE",
"202 597 CURVE SMOOTH",
"202 640 OFFCURVE",
"248 668 OFFCURVE",
"318 668 CURVE SMOOTH",
"329 668 OFFCURVE",
"341 667 OFFCURVE",
"348 666 CURVE",
"350 721 LINE",
"337 729 OFFCURVE",
"299 734 OFFCURVE",
"255 734 CURVE SMOOTH"
);
}
);
width = 370;
},
{
layerId = "E147A15F-B728-486F-B295-953D9C6EFD33";
paths = (
{
closed = 1;
nodes = (
"155 701 OFFCURVE",
"101 651 OFFCURVE",
"101 569 CURVE SMOOTH",
"101 492 OFFCURVE",
"117 445 OFFCURVE",
"117 369 CURVE SMOOTH",
"117 325 OFFCURVE",
"110 312 OFFCURVE",
"94 293 CURVE",
"87 284 OFFCURVE",
"84 278 OFFCURVE",
"50 265 CURVE",
"50 241 LINE",
"81 228 OFFCURVE",
"84 226 OFFCURVE",
"94 213 CURVE",
"110 194 OFFCURVE",
"117 183 OFFCURVE",
"117 140 CURVE SMOOTH",
"117 59 OFFCURVE",
"101 11 OFFCURVE",
"101 -64 CURVE SMOOTH",
"101 -146 OFFCURVE",
"155 -196 OFFCURVE",
"221 -196 CURVE SMOOTH",
"251 -196 OFFCURVE",
"281 -192 OFFCURVE",
"296 -183 CURVE",
"289 -154 LINE",
"278 -155 OFFCURVE",
"268 -156 OFFCURVE",
"259 -156 CURVE SMOOTH",
"193 -156 OFFCURVE",
"157 -132 OFFCURVE",
"157 -59 CURVE SMOOTH",
"157 -9 OFFCURVE",
"174 64 OFFCURVE",
"174 125 CURVE SMOOTH",
"174 209 OFFCURVE",
"150 241 OFFCURVE",
"123 250 CURVE",
"123 256 LINE",
"150 265 OFFCURVE",
"174 297 OFFCURVE",
"174 381 CURVE SMOOTH",
"174 442 OFFCURVE",
"157 514 OFFCURVE",
"157 564 CURVE SMOOTH",
"157 637 OFFCURVE",
"193 661 OFFCURVE",
"259 661 CURVE SMOOTH",
"268 661 OFFCURVE",
"278 660 OFFCURVE",
"289 659 CURVE",
"296 688 LINE",
"281 697 OFFCURVE",
"251 701 OFFCURVE",
"221 701 CURVE SMOOTH"
);
}
);
width = 306;
}
);
unicode = 007B;
},
{
glyphname = bar;
layers = (
{
layerId = "013606A7-00D0-4ED4-9959-28651EF45347";
paths = (
{
closed = 1;
nodes = (
"100 -193 LINE",
"196 -193 LINE",
"196 734 LINE",
"100 734 LINE"
);
}
);
width = 296;
},
{
layerId = "E147A15F-B728-486F-B295-953D9C6EFD33";
paths = (
{
closed = 1;
nodes = (
"100 -196 LINE",
"154 -196 LINE",
"154 701 LINE",
"100 701 LINE"
);
}
);
width = 254;
}
);
unicode = 007C;
},
{
glyphname = asciitilde;
layers = (
{
layerId = "013606A7-00D0-4ED4-9959-28651EF45347";
paths = (
{
closed = 1;
nodes = (
"139 230 LINE",
"149 256 OFFCURVE",
"174 274 OFFCURVE",
"203 274 CURVE SMOOTH",
"251 274 OFFCURVE",
"288 222 OFFCURVE",
"371 222 CURVE SMOOTH",
"448 222 OFFCURVE",
"487 266 OFFCURVE",
"500 353 CURVE",
"463 362 LINE",
"455 333 OFFCURVE",
"428 311 OFFCURVE",
"388 311 CURVE SMOOTH",
"324 311 OFFCURVE",
"295 370 OFFCURVE",
"223 370 CURVE SMOOTH",
"156 370 OFFCURVE",
"112 316 OFFCURVE",
"100 242 CURVE"
);
}
);
width = 600;
},
{
layerId = "E147A15F-B728-486F-B295-953D9C6EFD33";
paths = (
{
closed = 1;
nodes = (
"129 244 LINE",
"139 267 OFFCURVE",
"160 291 OFFCURVE",
"187 290 CURVE",
"240 286 OFFCURVE",
"261 234 OFFCURVE",
"323 230 CURVE SMOOTH",
"385 226 OFFCURVE",
"421 268 OFFCURVE",
"434 317 CURVE",
"405 328 LINE",
"396 300 OFFCURVE",
"372 279 OFFCURVE",
"340 281 CURVE SMOOTH",
"287 285 OFFCURVE",
"267 338 OFFCURVE",
"208 342 CURVE SMOOTH",
"167 345 OFFCURVE",
"120 319 OFFCURVE",
"100 258 CURVE"
);
}
);
width = 534;
}
);
unicode = 007E;
},
{
glyphname = cent;
layers = (
{
layerId = "013606A7-00D0-4ED4-9959-28651EF45347";
paths = (
{
closed = 1;
nodes = (
"141 520 OFFCURVE",
"50 418 OFFCURVE",
"50 230 CURVE SMOOTH",
"50 88 OFFCURVE",
"132 -16 OFFCURVE",
"272 -16 CURVE SMOOTH",
"382 -16 OFFCURVE",
"472 39 OFFCURVE",
"472 83 CURVE SMOOTH",
"472 90 OFFCURVE",
"464 115 OFFCURVE",
"450 124 CURVE",
"415 93 OFFCURVE",
"373 74 OFFCURVE",
"317 74 CURVE SMOOTH",
"209 74 OFFCURVE",
"177 156 OFFCURVE",
"177 270 CURVE SMOOTH",
"177 369 OFFCURVE",
"215 438 OFFCURVE",
"285 438 CURVE SMOOTH",
"350 438 OFFCURVE",
"374 380 OFFCURVE",
"375 331 CURVE",
"408 327 OFFCURVE",
"462 344 OFFCURVE",
"462 408 CURVE SMOOTH",
"462 478 OFFCURVE",
"395 520 OFFCURVE",
"295 520 CURVE SMOOTH"
);
},
{
closed = 1;
nodes = (
"320 25 LINE",
"256 22 LINE",
"244 -116 LINE",
"261 -127 OFFCURVE",
"315 -126 OFFCURVE",
"334 -116 CURVE"
);
},
{
closed = 1;
nodes = (
"334 610 LINE",
"315 620 OFFCURVE",
"261 621 OFFCURVE",
"244 610 CURVE",
"254 494 LINE",
"323 500 LINE"
);
}
);
width = 522;
},
{
layerId = "E147A15F-B728-486F-B295-953D9C6EFD33";
paths = (
{
closed = 1;
nodes = (
"128 500 OFFCURVE",
"47 374 OFFCURVE",
"50 219 CURVE SMOOTH",
"52 86 OFFCURVE",
"116 -16 OFFCURVE",
"243 -16 CURVE SMOOTH",
"326 -16 OFFCURVE",
"418 27 OFFCURVE",
"418 67 CURVE SMOOTH",
"418 75 OFFCURVE",
"415 81 OFFCURVE",
"408 86 CURVE",
"361 49 OFFCURVE",
"316 33 OFFCURVE",
"268 33 CURVE SMOOTH",
"143 33 OFFCURVE",
"110 141 OFFCURVE",
"110 237 CURVE SMOOTH",
"110 355 OFFCURVE",
"159 458 OFFCURVE",
"266 458 CURVE SMOOTH",
"339 458 OFFCURVE",
"366 409 OFFCURVE",
"367 363 CURVE",
"394 363 OFFCURVE",
"415 373 OFFCURVE",
"415 409 CURVE SMOOTH",
"415 462 OFFCURVE",
"366 500 OFFCURVE",
"282 500 CURVE SMOOTH"
);
},
{
closed = 1;
nodes = (
"287 10 LINE",
"241 5 LINE",
"233 -102 LINE",
"250 -108 OFFCURVE",
"274 -108 OFFCURVE",
"293 -102 CURVE"
);
},
{
closed = 1;
nodes = (
"293 592 LINE",
"274 598 OFFCURVE",
"250 597 OFFCURVE",
"233 592 CURVE",
"242 473 LINE",
"286 473 LINE"
);
}
);
width = 468;
}
);
unicode = 00A2;
},
{
glyphname = sterling;
layers = (
{
layerId = "013606A7-00D0-4ED4-9959-28651EF45347";
paths = (
{
closed = 1;
nodes = (
"180 630 OFFCURVE",
"150 488 OFFCURVE",
"146 389 CURVE SMOOTH",
"142 301 OFFCURVE",
"145 164 OFFCURVE",
"114 107 CURVE SMOOTH",
"100 82 OFFCURVE",
"79 66 OFFCURVE",
"46 57 CURVE",
"44 33 OFFCURVE",
"46 14 OFFCURVE",
"52 0 CURVE",
"442 0 LINE SMOOTH",
"492 0 OFFCURVE",
"502 34 OFFCURVE",
"500 78 CURVE",
"199 78 LINE",
"215 89 OFFCURVE",
"225 113 OFFCURVE",
"233 145 CURVE SMOOTH",
"249 214 OFFCURVE",
"251 318 OFFCURVE",
"254 389 CURVE SMOOTH",
"259 485 OFFCURVE",
"279 560 OFFCURVE",
"338 560 CURVE SMOOTH",
"378 560 OFFCURVE",
"406 533 OFFCURVE",
"406 464 CURVE",
"455 460 OFFCURVE",
"490 483 OFFCURVE",
"490 531 CURVE SMOOTH",
"490 597 OFFCURVE",
"428 630 OFFCURVE",
"350 630 CURVE SMOOTH"
);
},
{
closed = 1;
nodes = (
"405 329 LINE",
"60 329 LINE",
"60 262 LINE",
"405 262 LINE"
);
}
);
width = 545;
},
{
layerId = "E147A15F-B728-486F-B295-953D9C6EFD33";
paths = (
{
closed = 1;
nodes = (
"238 615 OFFCURVE",
"173 552 OFFCURVE",
"161 389 CURVE SMOOTH",
"159 366 OFFCURVE",
"138 160 OFFCURVE",
"130 119 CURVE SMOOTH",
"117 54 OFFCURVE",
"92 40 OFFCURVE",
"50 28 CURVE",
"50 20 OFFCURVE",
"52 6 OFFCURVE",
"56 0 CURVE",
"417 0 LINE SMOOTH",
"445 0 OFFCURVE",
"450 20 OFFCURVE",
"448 40 CURVE",
"143 40 LINE",
"158 54 OFFCURVE",
"171 77 OFFCURVE",
"178 118 CURVE SMOOTH",
"187 168 OFFCURVE",
"206 358 OFFCURVE",
"209 389 CURVE SMOOTH",
"220 524 OFFCURVE",
"272 571 OFFCURVE",
"327 571 CURVE SMOOTH",
"381 571 OFFCURVE",
"395 539 OFFCURVE",
"395 496 CURVE",
"412 496 OFFCURVE",
"446 501 OFFCURVE",
"446 544 CURVE SMOOTH",
"446 597 OFFCURVE",
"388 615 OFFCURVE",
"342 615 CURVE SMOOTH"
);
},
{
closed = 1;
nodes = (
"380 318 LINE",
"58 318 LINE",
"58 273 LINE",
"380 273 LINE"
);
}
);
width = 498;
}
);
unicode = 00A3;
},
{
glyphname = currency;
layers = (
{
layerId = "013606A7-00D0-4ED4-9959-28651EF45347";
paths = (
{
closed = 1;
nodes = (
"491 330 OFFCURVE",
"480 369 OFFCURVE",
"460 400 CURVE",
"557 479 LINE",
"542 498 OFFCURVE",
"503 538 OFFCURVE",
"486 547 CURVE",
"405 452 LINE",
"376 470 OFFCURVE",
"339 479 OFFCURVE",
"299 479 CURVE SMOOTH",
"260 479 OFFCURVE",
"225 470 OFFCURVE",
"195 454 CURVE",
"116 547 LINE",
"99 538 OFFCURVE",
"60 498 OFFCURVE",
"45 479 CURVE",
"140 403 LINE",
"117 371 OFFCURVE",
"105 331 OFFCURVE",
"105 285 CURVE SMOOTH",
"105 239 OFFCURVE",
"117 198 OFFCURVE",
"140 168 CURVE",
"45 91 LINE",
"60 72 OFFCURVE",
"99 32 OFFCURVE",
"116 22 CURVE",
"197 117 LINE",
"226 101 OFFCURVE",
"261 93 OFFCURVE",
"300 93 CURVE SMOOTH",
"339 93 OFFCURVE",
"375 101 OFFCURVE",
"404 119 CURVE",
"486 22 LINE",
"503 32 OFFCURVE",
"542 72 OFFCURVE",
"557 91 CURVE",
"460 170 LINE",
"480 201 OFFCURVE",
"491 240 OFFCURVE",
"491 285 CURVE SMOOTH"
);
},
{
closed = 1;
nodes = (
"238 183 OFFCURVE",
"199 225 OFFCURVE",
"199 285 CURVE SMOOTH",
"199 347 OFFCURVE",
"238 388 OFFCURVE",
"298 388 CURVE SMOOTH",
"356 388 OFFCURVE",
"398 347 OFFCURVE",
"398 285 CURVE SMOOTH",
"398 225 OFFCURVE",
"356 183 OFFCURVE",
"298 183 CURVE SMOOTH"
);
}
);
width = 602;
},
{
layerId = "E147A15F-B728-486F-B295-953D9C6EFD33";
paths = (
{
closed = 1;
nodes = (
"486 329 OFFCURVE",
"471 372 OFFCURVE",
"444 405 CURVE",
"528 479 LINE",
"514 498 OFFCURVE",
"505 507 OFFCURVE",
"488 517 CURVE",
"413 434 LINE",
"381 457 OFFCURVE",
"341 470 OFFCURVE",
"294 470 CURVE SMOOTH",
"244 470 OFFCURVE",
"201 455 OFFCURVE",
"169 430 CURVE",
"90 517 LINE",
"73 507 OFFCURVE",
"64 498 OFFCURVE",
"50 479 CURVE",
"140 399 LINE",
"116 367 OFFCURVE",
"103 326 OFFCURVE",
"103 278 CURVE SMOOTH",
"103 232 OFFCURVE",
"115 192 OFFCURVE",
"137 161 CURVE",
"50 83 LINE",
"64 64 OFFCURVE",
"73 55 OFFCURVE",
"90 45 CURVE",
"166 129 LINE",
"199 102 OFFCURVE",
"242 87 OFFCURVE",
"293 87 CURVE SMOOTH",
"342 87 OFFCURVE",
"384 100 OFFCURVE",
"416 125 CURVE",
"488 45 LINE",
"505 55 OFFCURVE",
"514 64 OFFCURVE",
"528 83 CURVE",
"447 155 LINE",
"472 187 OFFCURVE",
"486 229 OFFCURVE",
"486 278 CURVE SMOOTH"
);
},
{
closed = 1;
nodes = (
"213 135 OFFCURVE",
"157 193 OFFCURVE",
"157 278 CURVE SMOOTH",
"157 363 OFFCURVE",
"213 422 OFFCURVE",
"296 422 CURVE SMOOTH",
"378 422 OFFCURVE",
"432 363 OFFCURVE",
"432 278 CURVE SMOOTH",
"432 193 OFFCURVE",
"378 135 OFFCURVE",
"296 135 CURVE SMOOTH"
);
}
);
width = 578;
}
);
unicode = 00A4;
},
{
glyphname = yen;
layers = (
{
layerId = "013606A7-00D0-4ED4-9959-28651EF45347";
paths = (
{
closed = 1;
nodes = (
"397 328 LINE",
"276 331 LINE",
"276 0 LINE",
"397 0 LINE"
);
},
{
closed = 1;
nodes = (
"398 71 LINE",
"276 69 LINE",
"247 67 LINE SMOOTH",
"198 64 OFFCURVE",
"204 10 OFFCURVE",
"203 0 CURVE",
"424 0 LINE SMOOTH",
"474 0 OFFCURVE",
"470 55 OFFCURVE",
"469 65 CURVE"
);
},
{
closed = 1;
nodes = (
"48 600 LINE",
"287 260 LINE",
"382 260 LINE",
"608 614 LINE",
"506 608 LINE",
"314 293 LINE",
"364 334 LINE",
"187 608 LINE"
);
},
{
closed = 1;
nodes = (
"479 549 LINE",
"571 551 LINE",
"607 553 LINE SMOOTH",
"656 556 OFFCURVE",
"650 610 OFFCURVE",
"651 620 CURVE",
"441 620 LINE SMOOTH",
"391 620 OFFCURVE",
"395 565 OFFCURVE",
"396 555 CURVE"
);
},
{
closed = 1;
nodes = (
"91 549 LINE",
"210 551 LINE",
"247 553 LINE SMOOTH",
"295 556 OFFCURVE",
"290 610 OFFCURVE",
"291 620 CURVE",
"61 620 LINE SMOOTH",
"11 620 OFFCURVE",
"15 565 OFFCURVE",
"16 555 CURVE"
);
},
{
closed = 1;
nodes = (
"506 329 LINE",
"161 329 LINE",
"161 262 LINE",
"506 262 LINE"
);
},
{
closed = 1;
nodes = (
"506 211 LINE",
"161 211 LINE",
"161 144 LINE",
"506 144 LINE"
);
}
);
width = 665;
},
{
layerId = "E147A15F-B728-486F-B295-953D9C6EFD33";
paths = (
{
closed = 1;
nodes = (
"315 305 LINE",
"259 305 LINE",
"259 0 LINE",
"315 0 LINE"
);
},
{
closed = 1;
nodes = (
"315 45 LINE",
"259 43 LINE",
"209 40 LINE SMOOTH",
"176 38 OFFCURVE",
"182 10 OFFCURVE",
"181 0 CURVE",
"366 0 LINE SMOOTH",
"394 0 OFFCURVE",
"390 29 OFFCURVE",
"389 39 CURVE"
);
},
{
closed = 1;
nodes = (
"56 582 LINE",
"277 258 LINE",
"300 258 LINE",
"500 585 LINE",
"442 579 LINE",
"267 282 LINE",
"310 299 LINE",
"130 584 LINE"
);
},
{
closed = 1;
nodes = (
"436 566 LINE",
"491 568 LINE",
"511 571 LINE SMOOTH",
"544 576 OFFCURVE",
"538 601 OFFCURVE",
"539 611 CURVE",
"389 611 LINE SMOOTH",
"361 611 OFFCURVE",
"365 582 OFFCURVE",
"366 572 CURVE"
);
},
{
closed = 1;
nodes = (
"65 566 LINE",
"132 568 LINE",
"180 571 LINE SMOOTH",
"213 573 OFFCURVE",
"207 601 OFFCURVE",
"208 611 CURVE",
"34 611 LINE SMOOTH",
"6 611 OFFCURVE",
"10 582 OFFCURVE",
"11 572 CURVE"
);
},
{
closed = 1;
nodes = (
"440 317 LINE",
"118 317 LINE",
"118 272 LINE",
"440 272 LINE"
);
},
{
closed = 1;
nodes = (
"440 221 LINE",
"118 221 LINE",
"118 176 LINE",
"440 176 LINE"
);
}
);
width = 549;
}
);
unicode = 00A5;
},
{
glyphname = brokenbar;
layers = (
{
layerId = "013606A7-00D0-4ED4-9959-28651EF45347";
paths = (
{
closed = 1;
nodes = (
"196 182 LINE",
"100 182 LINE",
"100 -193 LINE",
"196 -193 LINE"
);
},
{
closed = 1;
nodes = (
"100 359 LINE",
"196 359 LINE",
"196 734 LINE",
"100 734 LINE"
);
}
);
width = 296;
},
{
layerId = "E147A15F-B728-486F-B295-953D9C6EFD33";
paths = (
{
closed = 1;
nodes = (
"154 170 LINE",
"100 170 LINE",
"100 -196 LINE",
"154 -196 LINE"
);
},
{
closed = 1;
nodes = (
"100 335 LINE",
"154 335 LINE",
"154 701 LINE",
"100 701 LINE"
);
}
);
width = 254;
}
);
unicode = 00A6;
},
{
glyphname = section;
layers = (
{
layerId = "013606A7-00D0-4ED4-9959-28651EF45347";
paths = (
{
closed = 1;
nodes = (
"173 384 LINE",
"119 354 OFFCURVE",
"80 302 OFFCURVE",
"80 225 CURVE SMOOTH",
"80 105 OFFCURVE",
"174 66 OFFCURVE",
"274 23 CURVE SMOOTH",
"362 -15 OFFCURVE",
"425 -46 OFFCURVE",
"425 -113 CURVE SMOOTH",
"425 -173 OFFCURVE",
"373 -220 OFFCURVE",
"283 -220 CURVE SMOOTH",
"195 -220 OFFCURVE",
"156 -176 OFFCURVE",
"156 -79 CURVE",
"81 -79 OFFCURVE",
"50 -118 OFFCURVE",
"50 -166 CURVE SMOOTH",
"50 -259 OFFCURVE",
"164 -296 OFFCURVE",
"266 -296 CURVE SMOOTH",
"430 -296 OFFCURVE",
"529 -202 OFFCURVE",
"529 -69 CURVE SMOOTH",
"529 35 OFFCURVE",
"469 76 OFFCURVE",
"344 131 CURVE SMOOTH",
"257 170 OFFCURVE",
"184 193 OFFCURVE",
"184 259 CURVE SMOOTH",
"184 291 OFFCURVE",
"201 316 OFFCURVE",
"230 330 CURVE"
);
},
{
closed = 1;
nodes = (
"392 8 LINE",
"479 43 OFFCURVE",
"529 118 OFFCURVE",
"529 212 CURVE SMOOTH",
"529 316 OFFCURVE",
"469 357 OFFCURVE",
"344 412 CURVE SMOOTH",
"257 451 OFFCURVE",
"184 474 OFFCURVE",
"184 540 CURVE SMOOTH",
"184 592 OFFCURVE",
"229 624 OFFCURVE",
"294 624 CURVE SMOOTH",
"371 624 OFFCURVE",
"405 579 OFFCURVE",
"405 497 CURVE",
"460 489 OFFCURVE",
"498 521 OFFCURVE",
"498 578 CURVE SMOOTH",
"498 669 OFFCURVE",
"400 700 OFFCURVE",
"316 700 CURVE SMOOTH",
"200 700 OFFCURVE",
"80 641 OFFCURVE",
"80 506 CURVE SMOOTH",
"80 386 OFFCURVE",
"174 347 OFFCURVE",
"274 304 CURVE SMOOTH",
"362 266 OFFCURVE",
"425 235 OFFCURVE",
"425 168 CURVE SMOOTH",
"425 126 OFFCURVE",
"399 90 OFFCURVE",
"353 73 CURVE"
);
}
);
width = 579;
},
{
layerId = "E147A15F-B728-486F-B295-953D9C6EFD33";
paths = (
{
closed = 1;
nodes = (
"140 410 LINE",
"96 380 OFFCURVE",
"66 335 OFFCURVE",
"66 278 CURVE SMOOTH",
"66 178 OFFCURVE",
"160 131 OFFCURVE",
"266 85 CURVE SMOOTH",
"354 47 OFFCURVE",
"416 25 OFFCURVE",
"416 -63 CURVE SMOOTH",
"416 -162 OFFCURVE",
"336 -205 OFFCURVE",
"250 -205 CURVE SMOOTH",
"168 -205 OFFCURVE",
"105 -166 OFFCURVE",
"85 -91 CURVE",
"57 -91 OFFCURVE",
"40 -114 OFFCURVE",
"40 -143 CURVE SMOOTH",
"40 -212 OFFCURVE",
"139 -257 OFFCURVE",
"236 -257 CURVE SMOOTH",
"383 -257 OFFCURVE",
"476 -152 OFFCURVE",
"476 -41 CURVE SMOOTH",
"476 62 OFFCURVE",
"396 98 OFFCURVE",
"292 141 CURVE SMOOTH",
"215 173 OFFCURVE",
"126 211 OFFCURVE",
"126 293 CURVE SMOOTH",
"126 332 OFFCURVE",
"146 361 OFFCURVE",
"178 378 CURVE"
);
},
{
closed = 1;
nodes = (
"390 34 LINE",
"445 75 OFFCURVE",
"476 137 OFFCURVE",
"476 201 CURVE SMOOTH",
"476 304 OFFCURVE",
"396 340 OFFCURVE",
"292 383 CURVE SMOOTH",
"215 415 OFFCURVE",
"126 453 OFFCURVE",
"126 535 CURVE SMOOTH",
"126 604 OFFCURVE",
"188 639 OFFCURVE",
"264 639 CURVE SMOOTH",
"351 639 OFFCURVE",
"389 594 OFFCURVE",
"389 529 CURVE",
"413 529 OFFCURVE",
"444 542 OFFCURVE",
"444 586 CURVE SMOOTH",
"444 670 OFFCURVE",
"328 693 OFFCURVE",
"266 691 CURVE SMOOTH",
"167 689 OFFCURVE",
"66 624 OFFCURVE",
"66 520 CURVE SMOOTH",
"66 420 OFFCURVE",
"160 373 OFFCURVE",
"266 327 CURVE SMOOTH",
"354 289 OFFCURVE",
"416 267 OFFCURVE",
"416 179 CURVE SMOOTH",
"416 128 OFFCURVE",
"395 92 OFFCURVE",
"362 69 CURVE"
);
}
);
width = 516;
}
);
unicode = 00A7;
},
{
glyphname = dieresis;
layers = (
{
anchors = (
{
name = _top;
position = "{260, 505}";
}
);
layerId = "013606A7-00D0-4ED4-9959-28651EF45347";
paths = (
{
closed = 1;
nodes = (
"199 574 OFFCURVE",
"230 605 OFFCURVE",
"230 644 CURVE SMOOTH",
"230 682 OFFCURVE",
"199 714 OFFCURVE",
"160 714 CURVE SMOOTH",
"121 714 OFFCURVE",
"89 682 OFFCURVE",
"89 644 CURVE SMOOTH",
"89 605 OFFCURVE",
"121 574 OFFCURVE",
"160 574 CURVE SMOOTH"
);
},
{
closed = 1;
nodes = (
"390 574 OFFCURVE",
"421 605 OFFCURVE",
"421 644 CURVE SMOOTH",
"421 682 OFFCURVE",
"390 714 OFFCURVE",
"350 714 CURVE SMOOTH",
"312 714 OFFCURVE",
"280 682 OFFCURVE",
"280 644 CURVE SMOOTH",
"280 605 OFFCURVE",
"312 574 OFFCURVE",
"350 574 CURVE SMOOTH"
);
}
);
width = 600;
},
{
anchors = (
{
name = _top;
position = "{255, 485}";
}
);
layerId = "E147A15F-B728-486F-B295-953D9C6EFD33";
paths = (
{
closed = 1;
nodes = (
"203 560 OFFCURVE",
"223 581 OFFCURVE",
"223 607 CURVE SMOOTH",
"223 632 OFFCURVE",
"203 654 OFFCURVE",
"177 654 CURVE SMOOTH",
"150 654 OFFCURVE",
"129 632 OFFCURVE",
"129 607 CURVE SMOOTH",
"129 581 OFFCURVE",
"150 560 OFFCURVE",
"177 560 CURVE SMOOTH"
);
},
{
closed = 1;
nodes = (
"361 560 OFFCURVE",
"381 581 OFFCURVE",
"381 607 CURVE SMOOTH",
"381 632 OFFCURVE",
"361 654 OFFCURVE",
"333 654 CURVE SMOOTH",
"308 654 OFFCURVE",
"287 632 OFFCURVE",
"287 607 CURVE SMOOTH",
"287 581 OFFCURVE",
"308 560 OFFCURVE",
"333 560 CURVE SMOOTH"
);
}
);
width = 600;
}
);
unicode = 00A8;
},
{
glyphname = copyright;
layers = (
{
layerId = "013606A7-00D0-4ED4-9959-28651EF45347";
paths = (
{
closed = 1;
nodes = (
"166 620 OFFCURVE",
"50 488 OFFCURVE",
"50 309 CURVE SMOOTH",
"50 120 OFFCURVE",
"172 2 OFFCURVE",
"359 2 CURVE SMOOTH",
"544 2 OFFCURVE",
"666 125 OFFCURVE",
"666 310 CURVE SMOOTH",
"666 500 OFFCURVE",
"538 620 OFFCURVE",
"359 620 CURVE SMOOTH"
);
},
{
closed = 1;
nodes = (
"488 540 OFFCURVE",
"578 455 OFFCURVE",
"578 310 CURVE SMOOTH",
"578 169 OFFCURVE",
"493 82 OFFCURVE",
"359 82 CURVE SMOOTH",
"223 82 OFFCURVE",
"139 169 OFFCURVE",
"139 309 CURVE SMOOTH",
"139 448 OFFCURVE",
"220 540 OFFCURVE",
"359 540 CURVE SMOOTH"
);
},
{
closed = 1;
nodes = (
"474 442 OFFCURVE",
"435 468 OFFCURVE",
"376 468 CURVE SMOOTH",
"287 468 OFFCURVE",
"230 410 OFFCURVE",
"230 301 CURVE SMOOTH",
"230 218 OFFCURVE",
"282 158 OFFCURVE",
"362 158 CURVE SMOOTH",
"427 158 OFFCURVE",
"479 190 OFFCURVE",
"479 215 CURVE SMOOTH",
"479 220 OFFCURVE",
"475 241 OFFCURVE",
"466 247 CURVE",
"446 229 OFFCURVE",
"422 217 OFFCURVE",
"390 217 CURVE SMOOTH",
"331 217 OFFCURVE",
"313 262 OFFCURVE",
"313 325 CURVE SMOOTH",
"313 377 OFFCURVE",
"335 411 OFFCURVE",
"370 411 CURVE SMOOTH",
"408 411 OFFCURVE",
"423 381 OFFCURVE",
"423 359 CURVE",
"442 356 OFFCURVE",
"474 366 OFFCURVE",
"474 402 CURVE SMOOTH"
);
}
);
width = 716;
},
{
layerId = "E147A15F-B728-486F-B295-953D9C6EFD33";
paths = (
{
closed = 1;
nodes = (
"159 580 OFFCURVE",
"50 473 OFFCURVE",
"50 311 CURVE SMOOTH",
"50 150 OFFCURVE",
"158 42 OFFCURVE",
"319 42 CURVE SMOOTH",
"482 42 OFFCURVE",
"588 150 OFFCURVE",
"588 310 CURVE SMOOTH",
"588 473 OFFCURVE",
"480 580 OFFCURVE",
"320 580 CURVE SMOOTH"
);
},
{
closed = 1;
nodes = (
"445 537 OFFCURVE",
"538 449 OFFCURVE",
"538 310 CURVE SMOOTH",
"538 175 OFFCURVE",
"449 85 OFFCURVE",
"320 85 CURVE SMOOTH",
"189 85 OFFCURVE",
"100 175 OFFCURVE",
"100 310 CURVE SMOOTH",
"100 441 OFFCURVE",
"185 537 OFFCURVE",
"320 537 CURVE SMOOTH"
);
},
{
closed = 1;
nodes = (
"415 440 OFFCURVE",
"388 462 OFFCURVE",
"339 462 CURVE SMOOTH",
"249 462 OFFCURVE",
"202 389 OFFCURVE",
"203 300 CURVE SMOOTH",
"204 223 OFFCURVE",
"245 164 OFFCURVE",
"328 164 CURVE SMOOTH",
"376 164 OFFCURVE",
"417 190 OFFCURVE",
"417 212 CURVE SMOOTH",
"417 220 OFFCURVE",
"415 223 OFFCURVE",
"411 226 CURVE",
"384 205 OFFCURVE",
"358 204 OFFCURVE",
"337 204 CURVE SMOOTH",
"265 204 OFFCURVE",
"250 258 OFFCURVE",
"250 310 CURVE SMOOTH",
"250 373 OFFCURVE",
"277 427 OFFCURVE",
"329 427 CURVE SMOOTH",
"366 427 OFFCURVE",
"383 406 OFFCURVE",
"383 382 CURVE",
"398 382 OFFCURVE",
"415 391 OFFCURVE",
"415 409 CURVE SMOOTH"
);
}
);
width = 638;
}
);
unicode = 00A9;
},
{
glyphname = ordfeminine;
layers = (
{
anchors = (
{
name = ogonek;
position = "{306, -16}";
},
{
name = top;
position = "{185, 324}";
}
);
layerId = "013606A7-00D0-4ED4-9959-28651EF45347";
paths = (
{
closed = 1;
nodes = (
"105 633 OFFCURVE",
"60 601 OFFCURVE",
"60 560 CURVE SMOOTH",
"60 528 OFFCURVE",
"88 512 OFFCURVE",
"124 516 CURVE",
"124 563 OFFCURVE",
"150 574 OFFCURVE",
"180 574 CURVE SMOOTH",
"211 574 OFFCURVE",
"234 555 OFFCURVE",
"234 492 CURVE SMOOTH",
"234 354 LINE SMOOTH",
"234 323 OFFCURVE",
"250 291 OFFCURVE",
"307 291 CURVE SMOOTH",
"354 291 OFFCURVE",
"362 317 OFFCURVE",
"362 333 CURVE",
"323 338 LINE",
"323 498 LINE SMOOTH",
"323 580 OFFCURVE",
"287 633 OFFCURVE",
"187 633 CURVE SMOOTH"
);
},
{
closed = 1;
nodes = (
"77 478 OFFCURVE",
"37 436 OFFCURVE",
"37 381 CURVE SMOOTH",
"37 324 OFFCURVE",
"80 291 OFFCURVE",
"144 291 CURVE SMOOTH",
"199 291 OFFCURVE",
"242 316 OFFCURVE",
"280 367 CURVE",
"276 403 LINE",
"250 381 OFFCURVE",
"219 353 OFFCURVE",
"177 353 CURVE SMOOTH",
"144 353 OFFCURVE",
"132 366 OFFCURVE",
"132 385 CURVE SMOOTH",
"132 418 OFFCURVE",
"162 426 OFFCURVE",
"190 426 CURVE SMOOTH",
"219 426 OFFCURVE",
"266 415 OFFCURVE",
"298 373 CURVE",
"293 456 LINE",
"265 472 OFFCURVE",
"221 478 OFFCURVE",
"182 478 CURVE SMOOTH"
);
}
);
width = 377;
},
{
anchors = (
{
name = ogonek;
position = "{250, 44}";
},
{
name = top;
position = "{145, 315}";
}
);
layerId = "E147A15F-B728-486F-B295-953D9C6EFD33";
paths = (
{
closed = 1;
nodes = (
"88 621 OFFCURVE",
"52 598 OFFCURVE",
"52 566 CURVE SMOOTH",
"52 543 OFFCURVE",
"70 535 OFFCURVE",
"88 537 CURVE",
"90 557 OFFCURVE",
"102 584 OFFCURVE",
"144 584 CURVE SMOOTH",
"182 584 OFFCURVE",
"198 559 OFFCURVE",
"198 522 CURVE SMOOTH",
"198 396 LINE SMOOTH",
"198 369 OFFCURVE",
"211 346 OFFCURVE",
"250 346 CURVE SMOOTH",
"275 346 OFFCURVE",
"288 361 OFFCURVE",
"288 378 CURVE",
"251 382 LINE",
"251 525 LINE SMOOTH",
"251 603 OFFCURVE",
"189 621 OFFCURVE",
"142 621 CURVE SMOOTH"
);
},
{
closed = 1;
nodes = (
"59 495 OFFCURVE",
"35 456 OFFCURVE",
"35 418 CURVE SMOOTH",
"35 373 OFFCURVE",
"68 346 OFFCURVE",
"120 346 CURVE SMOOTH",
"166 346 OFFCURVE",
"203 370 OFFCURVE",
"221 397 CURVE",
"219 423 LINE",
"197 399 OFFCURVE",
"167 384 OFFCURVE",
"145 384 CURVE SMOOTH",
"106 384 OFFCURVE",
"93 405 OFFCURVE",
"93 424 CURVE SMOOTH",
"93 446 OFFCURVE",
"112 463 OFFCURVE",
"147 463 CURVE SMOOTH",
"184 463 OFFCURVE",
"217 447 OFFCURVE",
"229 430 CURVE",
"228 481 LINE",
"209 490 OFFCURVE",
"178 495 OFFCURVE",
"147 495 CURVE SMOOTH"
);
}
);
width = 312;
}
);
unicode = 00AA;
},
{
glyphname = guillemotleft;
layers = (
{
layerId = "013606A7-00D0-4ED4-9959-28651EF45347";
paths = (
{
closed = 1;
nodes = (
"595 441 LINE",
"538 491 LINE",
"294 281 LINE",
"289 264 OFFCURVE",
"289 239 OFFCURVE",
"294 222 CURVE",
"538 12 LINE",
"601 62 LINE",
"435 247 LINE",
"435 256 LINE"
);
},
{
closed = 1;
nodes = (
"345 441 LINE",
"288 491 LINE",
"44 281 LINE",
"39 264 OFFCURVE",
"39 239 OFFCURVE",
"44 222 CURVE",
"288 12 LINE",
"351 62 LINE",
"185 247 LINE",
"185 256 LINE"
);
}
);
width = 621;
},
{
layerId = "E147A15F-B728-486F-B295-953D9C6EFD33";
paths = (
{
closed = 1;
nodes = (
"505 436 LINE",
"482 460 LINE",
"238 261 LINE",
"234 241 OFFCURVE",
"234 239 OFFCURVE",
"238 221 CURVE",
"482 21 LINE",
"506 45 LINE",
"304 238 LINE",
"304 243 LINE"
);
},
{
closed = 1;
nodes = (
"330 436 LINE",
"307 460 LINE",
"63 261 LINE",
"59 241 OFFCURVE",
"59 239 OFFCURVE",
"63 221 CURVE",
"307 21 LINE",
"331 45 LINE",
"129 238 LINE",
"129 243 LINE"
);
}
);
width = 539;
}
);
unicode = 00AB;
},
{
glyphname = logicalnot;
layers = (
{
layerId = "013606A7-00D0-4ED4-9959-28651EF45347";
paths = (
{
closed = 1;
nodes = (
"50 312 LINE",
"50 232 LINE",
"458 232 LINE",
"458 312 LINE"
);
},
{
closed = 1;
nodes = (
"458 311 LINE",
"378 311 LINE",
"377 111 LINE",
"457 111 LINE"
);
}
);
width = 508;
},
{
layerId = "E147A15F-B728-486F-B295-953D9C6EFD33";
paths = (
{
closed = 1;
nodes = (
"50 318 LINE",
"50 268 LINE",
"422 268 LINE",
"422 318 LINE"
);
},
{
closed = 1;
nodes = (
"422 318 LINE",
"370 318 LINE",
"370 161 LINE",
"422 161 LINE"
);
}
);
width = 472;
}
);
unicode = 00AC;
},
{
glyphname = registered;
layers = (
{
layerId = "013606A7-00D0-4ED4-9959-28651EF45347";
paths = (
{
closed = 1;
nodes = (
"161 726 OFFCURVE",
"50 620 OFFCURVE",
"50 458 CURVE SMOOTH",
"50 296 OFFCURVE",
"160 191 OFFCURVE",
"316 190 CURVE SMOOTH",
"471 191 OFFCURVE",
"581 293 OFFCURVE",
"581 457 CURVE SMOOTH",
"581 612 OFFCURVE",
"482 726 OFFCURVE",
"319 726 CURVE SMOOTH"
);
},
{
closed = 1;
nodes = (
"435 660 OFFCURVE",
"506 579 OFFCURVE",
"506 457 CURVE SMOOTH",
"506 330 OFFCURVE",
"428 256 OFFCURVE",
"316 256 CURVE SMOOTH",
"203 256 OFFCURVE",
"125 333 OFFCURVE",
"125 458 CURVE SMOOTH",
"125 583 OFFCURVE",
"203 660 OFFCURVE",
"317 660 CURVE SMOOTH"
);
},
{
closed = 1;
nodes = (
"226 596 LINE SMOOTH",
"215 596 OFFCURVE",
"209 574 OFFCURVE",
"209 561 CURVE",
"239 558 LINE",
"294 561 LINE",
"317 561 LINE SMOOTH",
"356 561 OFFCURVE",
"361 539 OFFCURVE",
"361 525 CURVE SMOOTH",
"361 497 OFFCURVE",
"341 483 OFFCURVE",
"296 483 CURVE SMOOTH",
"291 483 OFFCURVE",
"285 483 OFFCURVE",
"279 484 CURVE",
"270 450 LINE",
"283 449 OFFCURVE",
"294 449 OFFCURVE",
"305 449 CURVE SMOOTH",
"384 449 OFFCURVE",
"418 484 OFFCURVE",
"418 529 CURVE SMOOTH",
"418 576 OFFCURVE",
"380 596 OFFCURVE",
"317 596 CURVE SMOOTH"
);
},
{
closed = 1;
nodes = (
"292 377 LINE",
"238 376 LINE",
"229 376 LINE",
"208 374 OFFCURVE",
"210 344 OFFCURVE",
"210 340 CURVE",
"308 340 LINE SMOOTH",
"331 340 OFFCURVE",
"330 371 OFFCURVE",
"329 375 CURVE"
);
},
{
closed = 1;
nodes = (
"294 580 LINE",
"238 580 LINE",
"238 340 LINE",
"294 340 LINE"
);
},
{
closed = 1;
nodes = (
"297 464 LINE",
"311 419 OFFCURVE",
"356 335 OFFCURVE",
"408 335 CURVE SMOOTH",
"429 335 OFFCURVE",
"448 349 OFFCURVE",
"451 372 CURVE",
"414 372 OFFCURVE",
"376 410 OFFCURVE",
"346 469 CURVE"
);
}
);
width = 631;
},
{
layerId = "E147A15F-B728-486F-B295-953D9C6EFD33";
paths = (
{
closed = 1;
nodes = (
"160 695 OFFCURVE",
"70 604 OFFCURVE",
"70 470 CURVE SMOOTH",
"70 336 OFFCURVE",
"161 247 OFFCURVE",
"293 247 CURVE SMOOTH",
"424 247 OFFCURVE",
"515 334 OFFCURVE",
"515 471 CURVE SMOOTH",
"515 608 OFFCURVE",
"424 695 OFFCURVE",
"293 695 CURVE SMOOTH"
);
},
{
closed = 1;
nodes = (
"403 655 OFFCURVE",
"470 577 OFFCURVE",
"470 470 CURVE SMOOTH",
"470 357 OFFCURVE",
"399 286 OFFCURVE",
"293 286 CURVE SMOOTH",
"189 286 OFFCURVE",
"115 360 OFFCURVE",
"115 471 CURVE SMOOTH",
"115 582 OFFCURVE",
"190 655 OFFCURVE",
"295 655 CURVE SMOOTH"
);
},
{
closed = 1;
nodes = (
"204 604 LINE",
"193 604 OFFCURVE",
"193 586 OFFCURVE",
"193 578 CURVE",
"221 577 LINE",
"263 578 LINE",
"283 578 LINE SMOOTH",
"311 578 OFFCURVE",
"339 570 OFFCURVE",
"339 539 CURVE SMOOTH",
"339 513 OFFCURVE",
"317 495 OFFCURVE",
"279 495 CURVE SMOOTH",
"271 495 OFFCURVE",
"263 496 OFFCURVE",
"254 497 CURVE",
"250 471 LINE",
"263 470 OFFCURVE",
"272 470 OFFCURVE",
"283 470 CURVE SMOOTH",
"341 470 OFFCURVE",
"383 495 OFFCURVE",
"383 543 CURVE SMOOTH",
"383 579 OFFCURVE",
"360 604 OFFCURVE",
"295 604 CURVE SMOOTH"
);
},
{
closed = 1;
nodes = (
"263 385 LINE",
"221 385 LINE",
"205 384 LINE SMOOTH",
"189 383 OFFCURVE",
"192 361 OFFCURVE",
"192 357 CURVE",
"280 357 LINE SMOOTH",
"294 357 OFFCURVE",
"293 378 OFFCURVE",
"293 383 CURVE"
);
},
{
closed = 1;
nodes = (
"263 591 LINE",
"221 591 LINE",
"221 357 LINE",
"263 357 LINE"
);
},
{
closed = 1;
nodes = (
"273 477 LINE",
"290 427 OFFCURVE",
"332 353 OFFCURVE",
"378 353 CURVE SMOOTH",
"397 353 OFFCURVE",
"406 363 OFFCURVE",
"407 378 CURVE",
"380 378 OFFCURVE",
"343 413 OFFCURVE",
"312 479 CURVE"
);
}
);
width = 585;
}
);
unicode = 00AE;
},
{
glyphname = macron;
layers = (
{
anchors = (
{
name = _top;
position = "{258, 505}";
}
);
layerId = "013606A7-00D0-4ED4-9959-28651EF45347";
paths = (
{
closed = 1;
nodes = (
"110 648 LINE",
"110 578 LINE",
"405 578 LINE",
"405 648 LINE"
);
}
);
width = 600;
},
{
anchors = (
{
name = _top;
position = "{258, 485}";
}
);
layerId = "E147A15F-B728-486F-B295-953D9C6EFD33";
paths = (
{
closed = 1;
nodes = (
"130 631 LINE",
"130 578 LINE",
"385 578 LINE",
"385 631 LINE"
);
}
);
width = 600;
}
);
unicode = 00AF;
},
{
glyphname = degree;
layers = (
{
layerId = "013606A7-00D0-4ED4-9959-28651EF45347";
paths = (
{
closed = 1;
nodes = (
"60 502 OFFCURVE",
"116 449 OFFCURVE",
"195 449 CURVE SMOOTH",
"273 449 OFFCURVE",
"330 503 OFFCURVE",
"330 580 CURVE SMOOTH",
"330 658 OFFCURVE",
"274 709 OFFCURVE",
"196 709 CURVE SMOOTH",
"118 709 OFFCURVE",
"60 657 OFFCURVE",
"60 579 CURVE SMOOTH"
);
},
{
closed = 1;
nodes = (
"138 614 OFFCURVE",
"160 638 OFFCURVE",
"195 638 CURVE SMOOTH",
"229 638 OFFCURVE",
"252 614 OFFCURVE",
"252 579 CURVE SMOOTH",
"252 545 OFFCURVE",
"230 519 OFFCURVE",
"195 519 CURVE SMOOTH",
"161 519 OFFCURVE",
"138 545 OFFCURVE",
"138 580 CURVE SMOOTH"
);
}
);
width = 390;
},
{
layerId = "E147A15F-B728-486F-B295-953D9C6EFD33";
paths = (
{
closed = 1;
nodes = (
"50 520 OFFCURVE",
"93 479 OFFCURVE",
"154 479 CURVE SMOOTH",
"213 479 OFFCURVE",
"257 520 OFFCURVE",
"257 579 CURVE SMOOTH",
"257 639 OFFCURVE",
"214 678 OFFCURVE",
"154 678 CURVE SMOOTH",
"95 678 OFFCURVE",
"50 639 OFFCURVE",
"50 579 CURVE SMOOTH"
);
},
{
closed = 1;
nodes = (
"95 615 OFFCURVE",
"118 640 OFFCURVE",
"154 640 CURVE SMOOTH",
"189 640 OFFCURVE",
"212 615 OFFCURVE",
"212 579 CURVE SMOOTH",
"212 544 OFFCURVE",
"190 518 OFFCURVE",
"154 518 CURVE SMOOTH",
"119 518 OFFCURVE",
"95 544 OFFCURVE",
"95 580 CURVE SMOOTH"
);
}
);
width = 307;
}
);
unicode = 00B0;
},
{
glyphname = plusminus;
layers = (
{
layerId = "013606A7-00D0-4ED4-9959-28651EF45347";
paths = (
{
closed = 1;
nodes = (
"50 307 LINE",
"50 227 LINE",
"458 227 LINE",
"458 307 LINE"
);
},
{
closed = 1;
nodes = (
"296 471 LINE",
"214 471 LINE",
"214 129 LINE",
"296 129 LINE"
);
},
{
closed = 1;
nodes = (
"50 80 LINE",
"50 0 LINE",
"458 0 LINE",
"458 80 LINE"
);
}
);
width = 508;
},
{
layerId = "E147A15F-B728-486F-B295-953D9C6EFD33";
paths = (
{
closed = 1;
nodes = (
"50 316 LINE",
"50 266 LINE",
"420 266 LINE",
"420 316 LINE"
);
},
{
closed = 1;
nodes = (
"261 476 LINE",
"209 476 LINE",
"209 142 LINE",
"261 142 LINE"
);
},
{
closed = 1;
nodes = (
"50 116 LINE",
"50 66 LINE",
"420 66 LINE",
"420 116 LINE"
);
}
);
width = 470;
}
);
unicode = 00B1;
},
{
glyphname = twosuperior;
layers = (
{
layerId = "013606A7-00D0-4ED4-9959-28651EF45347";
paths = (
{
closed = 1;
nodes = (
"103 631 OFFCURVE",
"47 596 OFFCURVE",
"47 548 CURVE SMOOTH",
"47 508 OFFCURVE",
"81 499 OFFCURVE",
"116 500 CURVE",
"116 539 OFFCURVE",
"131 581 OFFCURVE",
"174 581 CURVE SMOOTH",
"198 581 OFFCURVE",
"212 558 OFFCURVE",
"212 531 CURVE SMOOTH",
"212 451 OFFCURVE",
"102 375 OFFCURVE",
"38 324 CURVE",
"36 317 OFFCURVE",
"48 283 OFFCURVE",
"50 278 CURVE",
"320 278 LINE",
"320 389 LINE",
"302 394 OFFCURVE",
"278 389 OFFCURVE",
"276 368 CURVE SMOOTH",
"272 332 LINE",
"89 332 LINE",
"123 321 LINE",
"164 339 OFFCURVE",
"304 432 OFFCURVE",
"304 533 CURVE SMOOTH",
"304 589 OFFCURVE",
"260 631 OFFCURVE",
"171 631 CURVE SMOOTH"
);
}
);
width = 353;
},
{
layerId = "E147A15F-B728-486F-B295-953D9C6EFD33";
paths = (
{
closed = 1;
nodes = (
"91 621 OFFCURVE",
"44 588 OFFCURVE",
"44 545 CURVE SMOOTH",
"44 516 OFFCURVE",
"67 508 OFFCURVE",
"86 509 CURVE",
"86 554 OFFCURVE",
"104 586 OFFCURVE",
"150 586 CURVE SMOOTH",
"191 586 OFFCURVE",
"212 562 OFFCURVE",
"212 528 CURVE SMOOTH",
"212 446 OFFCURVE",
"101 359 OFFCURVE",
"35 304 CURVE",
"34 297 OFFCURVE",
"38 282 OFFCURVE",
"40 277 CURVE",
"278 277 LINE",
"278 366 LINE",
"269 370 OFFCURVE",
"249 366 OFFCURVE",
"246 347 CURVE SMOOTH",
"241 314 LINE",
"74 314 LINE",
"92 308 LINE",
"132 340 OFFCURVE",
"266 433 OFFCURVE",
"266 529 CURVE SMOOTH",
"266 584 OFFCURVE",
"224 621 OFFCURVE",
"156 621 CURVE SMOOTH"
);
}
);
width = 313;
}
);
unicode = 00B2;
},
{
glyphname = threesuperior;
layers = (
{
layerId = "013606A7-00D0-4ED4-9959-28651EF45347";
paths = (
{
closed = 1;
nodes = (
"91 631 OFFCURVE",
"56 601 OFFCURVE",
"56 566 CURVE SMOOTH",
"56 545 OFFCURVE",
"68 529 OFFCURVE",
"106 529 CURVE",
"109 549 OFFCURVE",
"119 581 OFFCURVE",
"159 581 CURVE SMOOTH",
"182 581 OFFCURVE",
"195 568 OFFCURVE",
"195 550 CURVE SMOOTH",
"195 498 OFFCURVE",
"131 484 OFFCURVE",
"101 484 CURVE",
"102 431 LINE",
"158 435 OFFCURVE",
"209 427 OFFCURVE",
"209 376 CURVE SMOOTH",
"209 345 OFFCURVE",
"185 324 OFFCURVE",
"148 324 CURVE SMOOTH",
"111 324 OFFCURVE",
"86 346 OFFCURVE",
"86 374 CURVE",
"52 374 OFFCURVE",
"35 356 OFFCURVE",
"35 336 CURVE SMOOTH",
"35 305 OFFCURVE",
"76 274 OFFCURVE",
"154 274 CURVE SMOOTH",
"253 274 OFFCURVE",
"305 324 OFFCURVE",
"305 381 CURVE SMOOTH",
"305 443 OFFCURVE",
"243 485 OFFCURVE",
"131 469 CURVE",
"138 461 LINE",
"274 472 OFFCURVE",
"291 523 OFFCURVE",
"291 553 CURVE SMOOTH",
"291 602 OFFCURVE",
"243 631 OFFCURVE",
"168 631 CURVE SMOOTH"
);
}
);
width = 325;
},
{
layerId = "E147A15F-B728-486F-B295-953D9C6EFD33";
paths = (
{
closed = 1;
nodes = (
"89 620 OFFCURVE",
"52 595 OFFCURVE",
"50 565 CURVE SMOOTH",
"49 547 OFFCURVE",
"61 534 OFFCURVE",
"88 533 CURVE",
"89 562 OFFCURVE",
"105 587 OFFCURVE",
"142 587 CURVE SMOOTH",
"175 587 OFFCURVE",
"194 570 OFFCURVE",
"194 541 CURVE SMOOTH",
"194 484 OFFCURVE",
"124 469 OFFCURVE",
"93 469 CURVE",
"93 431 LINE",
"146 434 OFFCURVE",
"209 424 OFFCURVE",
"211 368 CURVE SMOOTH",
"212 327 OFFCURVE",
"179 302 OFFCURVE",
"134 302 CURVE SMOOTH",
"93 302 OFFCURVE",
"70 325 OFFCURVE",
"66 355 CURVE",
"42 353 OFFCURVE",
"34 337 OFFCURVE",
"34 322 CURVE SMOOTH",
"34 291 OFFCURVE",
"72 268 OFFCURVE",
"129 268 CURVE SMOOTH",
"212 268 OFFCURVE",
"266 315 OFFCURVE",
"266 372 CURVE SMOOTH",
"266 433 OFFCURVE",
"205 470 OFFCURVE",
"120 458 CURVE",
"123 448 LINE",
"217 460 OFFCURVE",
"248 505 OFFCURVE",
"248 543 CURVE SMOOTH",
"248 591 OFFCURVE",
"205 620 OFFCURVE",
"145 620 CURVE SMOOTH"
);
}
);
width = 296;
}
);
unicode = 00B3;
},
{
glyphname = micro;
layers = (
{
layerId = "013606A7-00D0-4ED4-9959-28651EF45347";
paths = (
{
closed = 1;
nodes = (
"185 505 LINE",
"63 505 LINE",
"63 195 LINE SMOOTH",
"63 42 OFFCURVE",
"156 -15 OFFCURVE",
"248 -15 CURVE SMOOTH",
"313 -15 OFFCURVE",
"356 14 OFFCURVE",
"393 46 CURVE",
"378 110 LINE",
"349 88 OFFCURVE",
"322 76 OFFCURVE",
"282 76 CURVE SMOOTH",
"220 76 OFFCURVE",
"185 105 OFFCURVE",
"185 190 CURVE SMOOTH"
);
},
{
closed = 1;
nodes = (
"65 183 LINE",
"60 -226 LINE",
"71 -239 OFFCURVE",
"165 -240 OFFCURVE",
"185 -226 CURVE",
"178 77 LINE"
);
},
{
closed = 1;
nodes = (
"496 505 LINE",
"374 505 LINE",
"374 83 LINE SMOOTH",
"374 32 OFFCURVE",
"397 -15 OFFCURVE",
"478 -15 CURVE SMOOTH",
"546 -15 OFFCURVE",
"561 17 OFFCURVE",
"561 45 CURVE",
"496 53 LINE"
);
}
);
width = 586;
},
{
layerId = "E147A15F-B728-486F-B295-953D9C6EFD33";
paths = (
{
closed = 1;
nodes = (
"161 485 LINE",
"106 485 LINE",
"106 186 LINE SMOOTH",
"106 33 OFFCURVE",
"198 -15 OFFCURVE",
"274 -15 CURVE SMOOTH",
"350 -15 OFFCURVE",
"396 19 OFFCURVE",
"429 53 CURVE",
"424 97 LINE",
"384 62 OFFCURVE",
"345 37 OFFCURVE",
"285 37 CURVE SMOOTH",
"208 37 OFFCURVE",
"161 91 OFFCURVE",
"161 195 CURVE SMOOTH"
);
},
{
closed = 1;
nodes = (
"107 162 LINE",
"101 -187 LINE",
"117 -191 OFFCURVE",
"144 -191 OFFCURVE",
"158 -187 CURVE",
"152 45 LINE"
);
},
{
closed = 1;
nodes = (
"474 485 LINE",
"419 485 LINE",
"419 75 LINE SMOOTH",
"419 23 OFFCURVE",
"433 -16 OFFCURVE",
"486 -16 CURVE SMOOTH",
"510 -16 OFFCURVE",
"541 -8 OFFCURVE",
"541 27 CURVE",
"474 35 LINE"
);
}
);
width = 557;
}
);
unicode = 00B5;
},
{
glyphname = paragraph;
layers = (
{
layerId = "013606A7-00D0-4ED4-9959-28651EF45347";
paths = (
{
closed = 1;
nodes = (
"241 685 LINE SMOOTH",
"123 685 OFFCURVE",
"45 603 OFFCURVE",
"45 486 CURVE SMOOTH",
"45 355 OFFCURVE",
"133 275 OFFCURVE",
"278 275 CURVE",
"278 -90 LINE",
"401 -90 LINE",
"401 616 LINE",
"510 616 LINE",
"510 -90 LINE",
"633 -90 LINE",
"633 616 LINE",
"706 622 LINE",
"707 660 OFFCURVE",
"692 685 OFFCURVE",
"667 685 CURVE SMOOTH"
);
}
);
width = 751;
},
{
layerId = "E147A15F-B728-486F-B295-953D9C6EFD33";
paths = (
{
closed = 1;
nodes = (
"281 677 LINE",
"122 677 OFFCURVE",
"50 591 OFFCURVE",
"50 490 CURVE SMOOTH",
"50 332 OFFCURVE",
"188 300 OFFCURVE",
"257 300 CURVE",
"257 -90 LINE",
"317 -90 LINE",
"317 632 LINE",
"379 632 LINE",
"379 -90 LINE",
"439 -90 LINE",
"439 632 LINE",
"512 638 LINE",
"513 648 OFFCURVE",
"517 677 OFFCURVE",
"489 677 CURVE SMOOTH"
);
}
);
width = 563;
}
);
unicode = 00B6;
},
{
glyphname = periodcentered;
layers = (
{
layerId = "013606A7-00D0-4ED4-9959-28651EF45347";
paths = (
{
closed = 1;
nodes = (
"170 198 OFFCURVE",
"206 234 OFFCURVE",
"206 281 CURVE SMOOTH",
"206 327 OFFCURVE",
"170 364 OFFCURVE",
"123 364 CURVE SMOOTH",
"77 364 OFFCURVE",
"40 327 OFFCURVE",
"40 281 CURVE SMOOTH",
"40 234 OFFCURVE",
"77 198 OFFCURVE",
"123 198 CURVE SMOOTH"
);
}
);
width = 246;
},
{
layerId = "E147A15F-B728-486F-B295-953D9C6EFD33";
paths = (
{
closed = 1;
nodes = (
"113 204 OFFCURVE",
"132 224 OFFCURVE",
"132 251 CURVE SMOOTH",
"132 278 OFFCURVE",
"113 298 OFFCURVE",
"86 298 CURVE SMOOTH",
"59 298 OFFCURVE",
"40 278 OFFCURVE",
"40 251 CURVE SMOOTH",
"40 224 OFFCURVE",
"59 204 OFFCURVE",
"86 204 CURVE SMOOTH"
);
}
);
width = 172;
}
);
unicode = 00B7;
},
{
glyphname = cedilla;
layers = (
{
anchors = (
{
name = _bottom;
position = "{286, 0}";
}
);
layerId = "013606A7-00D0-4ED4-9959-28651EF45347";
paths = (
{
closed = 1;
nodes = (
"319 18 LINE",
"265 18 LINE",
"238 -86 LINE",
"298 -86 OFFCURVE",
"307 -101 OFFCURVE",
"307 -120 CURVE SMOOTH",
"307 -145 OFFCURVE",
"291 -150 OFFCURVE",
"272 -150 CURVE SMOOTH",
"252 -150 OFFCURVE",
"235 -144 OFFCURVE",
"224 -135 CURVE",
"218 -139 OFFCURVE",
"210 -162 OFFCURVE",
"212 -177 CURVE",
"226 -192 OFFCURVE",
"250 -205 OFFCURVE",
"286 -205 CURVE SMOOTH",
"348 -205 OFFCURVE",
"387 -167 OFFCURVE",
"387 -120 CURVE SMOOTH",
"387 -84 OFFCURVE",
"364 -46 OFFCURVE",
"303 -46 CURVE"
);
}
);
width = 600;
},
{
anchors = (
{
name = _bottom;
position = "{294, 0}";
}
);
layerId = "E147A15F-B728-486F-B295-953D9C6EFD33";
paths = (
{
closed = 1;
nodes = (
"312 18 LINE",
"277 18 LINE",
"252 -77 LINE",
"313 -77 OFFCURVE",
"326 -92 OFFCURVE",
"326 -112 CURVE SMOOTH",
"326 -136 OFFCURVE",
"308 -151 OFFCURVE",
"277 -151 CURVE SMOOTH",
"254 -151 OFFCURVE",
"240 -143 OFFCURVE",
"226 -132 CURVE",
"220 -136 OFFCURVE",
"212 -146 OFFCURVE",
"214 -161 CURVE",
"228 -176 OFFCURVE",
"252 -189 OFFCURVE",
"287 -189 CURVE SMOOTH",
"339 -189 OFFCURVE",
"378 -160 OFFCURVE",
"378 -110 CURVE SMOOTH",
"378 -71 OFFCURVE",
"355 -41 OFFCURVE",
"298 -41 CURVE"
);
}
);
width = 600;
}
);
unicode = 00B8;
},
{
glyphname = onesuperior;
layers = (
{
layerId = "013606A7-00D0-4ED4-9959-28651EF45347";
paths = (
{
closed = 1;
nodes = (
"201 594 LINE SMOOTH",
"201 616 OFFCURVE",
"193 627 OFFCURVE",
"178 627 CURVE SMOOTH",
"169 627 OFFCURVE",
"143 626 OFFCURVE",
"130 619 CURVE SMOOTH",
"30 564 LINE",
"29 556 OFFCURVE",
"46 518 OFFCURVE",
"73 526 CURVE SMOOTH",
"111 538 LINE",
"111 278 LINE",
"201 278 LINE"
);
},
{
closed = 1;
nodes = (
"201 329 LINE",
"111 328 LINE",
"76 326 LINE SMOOTH",
"44 324 OFFCURVE",
"48 284 OFFCURVE",
"47 278 CURVE",
"233 278 LINE SMOOTH",
"266 278 OFFCURVE",
"263 319 OFFCURVE",
"263 325 CURVE"
);
}
);
width = 294;
},
{
layerId = "E147A15F-B728-486F-B295-953D9C6EFD33";
paths = (
{
closed = 1;
nodes = (
"166 595 LINE",
"166 610 OFFCURVE",
"158 617 OFFCURVE",
"147 617 CURVE SMOOTH",
"139 617 OFFCURVE",
"130 616 OFFCURVE",
"121 611 CURVE",
"45 572 LINE",
"45 566 OFFCURVE",
"56 545 OFFCURVE",
"73 550 CURVE SMOOTH",
"114 562 LINE",
"114 287 LINE",
"166 287 LINE"
);
},
{
closed = 1;
nodes = (
"166 318 LINE",
"114 317 LINE",
"76 316 LINE SMOOTH",
"52 315 OFFCURVE",
"56 293 OFFCURVE",
"55 287 CURVE",
"202 287 LINE SMOOTH",
"225 287 OFFCURVE",
"223 310 OFFCURVE",
"222 315 CURVE"
);
}
);
width = 268;
}
);
unicode = 00B9;
},
{
glyphname = ordmasculine;
layers = (
{
anchors = (
{
name = top;
position = "{204, 324}";
}
);
layerId = "013606A7-00D0-4ED4-9959-28651EF45347";
paths = (
{
closed = 1;
nodes = (
"96 633 OFFCURVE",
"41 567 OFFCURVE",
"41 454 CURVE SMOOTH",
"41 351 OFFCURVE",
"90 291 OFFCURVE",
"188 291 CURVE SMOOTH",
"295 291 OFFCURVE",
"352 350 OFFCURVE",
"352 459 CURVE SMOOTH",
"352 552 OFFCURVE",
"306 633 OFFCURVE",
"205 633 CURVE SMOOTH"
);
},
{
closed = 1;
nodes = (
"236 573 OFFCURVE",
"259 534 OFFCURVE",
"259 454 CURVE SMOOTH",
"259 388 OFFCURVE",
"237 351 OFFCURVE",
"197 351 CURVE SMOOTH",
"158 351 OFFCURVE",
"134 386 OFFCURVE",
"134 461 CURVE SMOOTH",
"134 531 OFFCURVE",
"157 573 OFFCURVE",
"197 573 CURVE SMOOTH"
);
}
);
width = 401;
},
{
anchors = (
{
name = top;
position = "{179, 296}";
}
);
layerId = "E147A15F-B728-486F-B295-953D9C6EFD33";
paths = (
{
closed = 1;
nodes = (
"94 621 OFFCURVE",
"45 565 OFFCURVE",
"46 473 CURVE SMOOTH",
"47 391 OFFCURVE",
"88 341 OFFCURVE",
"164 341 CURVE SMOOTH",
"246 341 OFFCURVE",
"293 400 OFFCURVE",
"292 487 CURVE SMOOTH",
"291 586 OFFCURVE",
"231 621 OFFCURVE",
"174 621 CURVE SMOOTH"
);
},
{
closed = 1;
nodes = (
"215 584 OFFCURVE",
"236 536 OFFCURVE",
"236 479 CURVE SMOOTH",
"236 420 OFFCURVE",
"211 378 OFFCURVE",
"169 378 CURVE SMOOTH",
"124 378 OFFCURVE",
"101 422 OFFCURVE",
"101 480 CURVE SMOOTH",
"101 538 OFFCURVE",
"126 584 OFFCURVE",
"169 584 CURVE SMOOTH"
);
}
);
width = 355;
}
);
unicode = 00BA;
},
{
glyphname = guillemotright;
layers = (
{
layerId = "013606A7-00D0-4ED4-9959-28651EF45347";
paths = (
{
closed = 1;
nodes = (
"26 441 LINE",
"83 491 LINE",
"327 281 LINE",
"332 264 OFFCURVE",
"332 239 OFFCURVE",
"327 222 CURVE",
"83 12 LINE",
"20 62 LINE",
"186 247 LINE",
"186 256 LINE"
);
},
{
closed = 1;
nodes = (
"276 441 LINE",
"333 491 LINE",
"577 281 LINE",
"582 264 OFFCURVE",
"582 239 OFFCURVE",
"577 222 CURVE",
"333 12 LINE",
"270 62 LINE",
"436 247 LINE",
"436 256 LINE"
);
}
);
width = 621;
},
{
layerId = "E147A15F-B728-486F-B295-953D9C6EFD33";
paths = (
{
closed = 1;
nodes = (
"34 436 LINE",
"57 460 LINE",
"301 261 LINE",
"305 241 OFFCURVE",
"305 239 OFFCURVE",
"301 221 CURVE",
"57 21 LINE",
"33 45 LINE",
"235 238 LINE",
"235 243 LINE"
);
},
{
closed = 1;
nodes = (
"209 436 LINE",
"232 460 LINE",
"476 261 LINE",
"480 241 OFFCURVE",
"480 239 OFFCURVE",
"476 221 CURVE",
"232 21 LINE",
"208 45 LINE",
"410 238 LINE",
"410 243 LINE"
);
}
);
width = 539;
}
);
unicode = 00BB;
},
{
glyphname = onequarter;
layers = (
{
layerId = "013606A7-00D0-4ED4-9959-28651EF45347";
paths = (
{
closed = 1;
nodes = (
"610 630 LINE",
"505 630 LINE",
"149 0 LINE",
"254 0 LINE"
);
},
{
closed = 1;
nodes = (
"201 594 LINE SMOOTH",
"201 616 OFFCURVE",
"193 627 OFFCURVE",
"178 627 CURVE SMOOTH",
"169 627 OFFCURVE",
"143 626 OFFCURVE",
"130 619 CURVE SMOOTH",
"30 564 LINE",
"29 556 OFFCURVE",
"46 518 OFFCURVE",
"73 526 CURVE SMOOTH",
"111 538 LINE",
"111 278 LINE",
"201 278 LINE"
);
},
{
closed = 1;
nodes = (
"201 329 LINE",
"111 328 LINE",
"77 326 LINE SMOOTH",
"45 324 OFFCURVE",
"49 284 OFFCURVE",
"48 278 CURVE",
"232 278 LINE SMOOTH",
"265 278 OFFCURVE",
"262 319 OFFCURVE",
"262 325 CURVE"
);
},
{
closed = 1;
nodes = (
"655 353 LINE",
"636 355 OFFCURVE",
"601 353 OFFCURVE",
"580 349 CURVE",
"403 100 LINE",
"406 85 OFFCURVE",
"411 73 OFFCURVE",
"422 60 CURVE",
"700 60 LINE",
"700 110 LINE",
"433 110 LINE",
"467 97 LINE",
"628 328 LINE",
"565 298 LINE",
"565 -15 LINE",
"655 -10 LINE"
);
}
);
width = 740;
},
{
layerId = "E147A15F-B728-486F-B295-953D9C6EFD33";
paths = (
{
closed = 1;
nodes = (
"512 620 LINE",
"460 620 LINE",
"106 0 LINE",
"158 0 LINE"
);
},
{
closed = 1;
nodes = (
"148 597 LINE",
"148 613 OFFCURVE",
"140 620 OFFCURVE",
"129 620 CURVE SMOOTH",
"121 620 OFFCURVE",
"112 619 OFFCURVE",
"103 614 CURVE SMOOTH",
"27 573 LINE",
"27 566 OFFCURVE",
"38 544 OFFCURVE",
"55 549 CURVE SMOOTH",
"96 562 LINE",
"96 276 LINE",
"148 276 LINE"
);
},
{
closed = 1;
nodes = (
"148 309 LINE",
"96 308 LINE",
"58 306 LINE SMOOTH",
"34 305 OFFCURVE",
"38 282 OFFCURVE",
"37 276 CURVE",
"184 276 LINE SMOOTH",
"207 276 OFFCURVE",
"205 300 OFFCURVE",
"204 305 CURVE"
);
},
{
closed = 1;
nodes = (
"519 338 LINE",
"505 341 OFFCURVE",
"491 340 OFFCURVE",
"476 336 CURVE",
"308 101 LINE",
"309 89 OFFCURVE",
"316 79 OFFCURVE",
"322 70 CURVE",
"573 70 LINE",
"573 105 LINE",
"326 105 LINE",
"343 94 LINE",
"506 322 LINE",
"469 304 LINE",
"469 -9 LINE",
"520 -3 LINE"
);
}
);
width = 600;
}
);
unicode = 00BC;
},
{
glyphname = onehalf;
layers = (
{
layerId = "013606A7-00D0-4ED4-9959-28651EF45347";
paths = (
{
closed = 1;
nodes = (
"598 630 LINE",
"493 630 LINE",
"137 0 LINE",
"242 0 LINE"
);
},
{
closed = 1;
nodes = (
"190 327 LINE",
"100 326 LINE",
"66 324 LINE SMOOTH",
"34 322 OFFCURVE",
"38 282 OFFCURVE",
"37 276 CURVE",
"221 276 LINE SMOOTH",
"254 276 OFFCURVE",
"251 317 OFFCURVE",
"251 323 CURVE"
);
},
{
closed = 1;
nodes = (
"158 625 OFFCURVE",
"132 624 OFFCURVE",
"119 617 CURVE SMOOTH",
"19 562 LINE",
"18 554 OFFCURVE",
"35 516 OFFCURVE",
"62 524 CURVE SMOOTH",
"100 536 LINE",
"100 276 LINE",
"190 276 LINE",
"190 592 LINE SMOOTH",
"190 614 OFFCURVE",
"182 625 OFFCURVE",
"167 625 CURVE SMOOTH"
);
},
{
closed = 1;
nodes = (
"504 353 OFFCURVE",
"448 318 OFFCURVE",
"448 270 CURVE SMOOTH",
"448 230 OFFCURVE",
"482 221 OFFCURVE",
"517 222 CURVE",
"517 261 OFFCURVE",
"532 303 OFFCURVE",
"575 303 CURVE SMOOTH",
"599 303 OFFCURVE",
"613 280 OFFCURVE",
"613 253 CURVE SMOOTH",
"613 173 OFFCURVE",
"503 97 OFFCURVE",
"439 46 CURVE",
"437 39 OFFCURVE",
"449 5 OFFCURVE",
"451 0 CURVE",
"721 0 LINE",
"721 111 LINE",
"703 116 OFFCURVE",
"679 111 OFFCURVE",
"677 90 CURVE SMOOTH",
"673 54 LINE",
"490 54 LINE",
"524 43 LINE",
"565 61 OFFCURVE",
"705 154 OFFCURVE",
"705 255 CURVE SMOOTH",
"705 311 OFFCURVE",
"661 353 OFFCURVE",
"572 353 CURVE SMOOTH"
);
}
);
width = 740;
},
{
layerId = "E147A15F-B728-486F-B295-953D9C6EFD33";
paths = (
{
closed = 1;
nodes = (
"498 620 LINE",
"446 620 LINE",
"92 0 LINE",
"144 0 LINE"
);
},
{
closed = 1;
nodes = (
"139 309 LINE",
"87 308 LINE",
"49 306 LINE SMOOTH",
"25 305 OFFCURVE",
"29 282 OFFCURVE",
"28 276 CURVE",
"175 276 LINE SMOOTH",
"198 276 OFFCURVE",
"196 300 OFFCURVE",
"195 305 CURVE"
);
},
{
closed = 1;
nodes = (
"112 620 OFFCURVE",
"103 619 OFFCURVE",
"94 614 CURVE SMOOTH",
"18 573 LINE",
"18 566 OFFCURVE",
"29 544 OFFCURVE",
"46 549 CURVE SMOOTH",
"87 562 LINE",
"87 276 LINE",
"139 276 LINE",
"139 597 LINE SMOOTH",
"139 613 OFFCURVE",
"131 620 OFFCURVE",
"120 620 CURVE SMOOTH"
);
},
{
closed = 1;
nodes = (
"396 344 OFFCURVE",
"349 311 OFFCURVE",
"349 268 CURVE SMOOTH",
"349 239 OFFCURVE",
"372 231 OFFCURVE",
"391 232 CURVE",
"391 277 OFFCURVE",
"409 309 OFFCURVE",
"455 309 CURVE SMOOTH",
"496 309 OFFCURVE",
"517 285 OFFCURVE",
"517 251 CURVE SMOOTH",
"517 169 OFFCURVE",
"406 82 OFFCURVE",
"340 27 CURVE",
"339 20 OFFCURVE",
"343 5 OFFCURVE",
"345 0 CURVE",
"583 0 LINE",
"583 89 LINE",
"574 93 OFFCURVE",
"554 89 OFFCURVE",
"551 70 CURVE SMOOTH",
"546 37 LINE",
"379 37 LINE",
"397 31 LINE",
"437 63 OFFCURVE",
"571 156 OFFCURVE",
"571 252 CURVE SMOOTH",
"571 307 OFFCURVE",
"529 344 OFFCURVE",
"461 344 CURVE SMOOTH"
);
}
);
width = 600;
}
);
unicode = 00BD;
},
